<svg width="793" height="165" viewBox="0 0 793 165" fill="none" xmlns="http://www.w3.org/2000/svg">
<path d="M792 33.5V147V148L775.5 164.5L580.5 164.5L572 156H533L525 164.5L301.5 164.5L288 150.5L62 150.5L50.5 162.5H16.5L1 147V29L20 10.5L371 10.5L380.5 1L422.5 1L432 10.5L769 10.5L792 33.5Z" fill="white" fill-opacity="0.68" stroke="#217AFF" stroke-opacity="0.2"/>
<path d="M34.619 154H17L19.381 156H37L34.619 154Z" fill="#CDD6EE"/>
<path d="M30.619 150H13L15.381 152H33L30.619 150Z" fill="#CDD6EE"/>
<path d="M34.5 154H26L28.5 156H37L34.5 154Z" fill="#217AFF"/>
<path d="M30.5 150H18L20.5 152H33L30.5 150Z" fill="#217AFF"/>
</svg>
