<svg width="446" height="446" viewBox="0 0 446 446" fill="none" xmlns="http://www.w3.org/2000/svg">
<mask id="path-1-inside-1" fill="white">
<path d="M2.00252 224.077C1.40775 102.023 99.8695 2.59737 221.923 2.00259C343.976 1.40781 443.403 99.8695 443.997 221.923C444.592 343.977 346.13 443.403 224.077 443.997C102.023 444.592 2.5973 346.13 2.00252 224.077ZM339.988 222.43C339.673 157.819 287.041 105.697 222.43 106.012C157.819 106.327 105.697 158.959 106.012 223.57C106.327 288.181 158.959 340.303 223.57 339.988C288.181 339.673 340.303 287.041 339.988 222.43Z"/>
</mask>
<path d="M2.00252 224.077C1.40775 102.023 99.8695 2.59737 221.923 2.00259C343.976 1.40781 443.403 99.8695 443.997 221.923C444.592 343.977 346.13 443.403 224.077 443.997C102.023 444.592 2.5973 346.13 2.00252 224.077ZM339.988 222.43C339.673 157.819 287.041 105.697 222.43 106.012C157.819 106.327 105.697 158.959 106.012 223.57C106.327 288.181 158.959 340.303 223.57 339.988C288.181 339.673 340.303 287.041 339.988 222.43Z" fill="#0B1B51" fill-opacity="0.7" stroke="#44BCFF" stroke-opacity="0.2" stroke-width="2" mask="url(#path-1-inside-1)"/>
</svg>
