<svg width="644" height="644" viewBox="0 0 644 644" fill="none" xmlns="http://www.w3.org/2000/svg">
<mask id="path-1-inside-1" fill="white">
<path d="M644 322C644 499.836 499.836 644 322 644C144.164 644 0 499.836 0 322C0 144.164 144.164 0 322 0C499.836 0 644 144.164 644 322ZM119.515 322C119.515 433.829 210.171 524.485 322 524.485C433.829 524.485 524.485 433.829 524.485 322C524.485 210.171 433.829 119.515 322 119.515C210.171 119.515 119.515 210.171 119.515 322Z"/>
</mask>
<path d="M644 322C644 499.836 499.836 644 322 644C144.164 644 0 499.836 0 322C0 144.164 144.164 0 322 0C499.836 0 644 144.164 644 322ZM119.515 322C119.515 433.829 210.171 524.485 322 524.485C433.829 524.485 524.485 433.829 524.485 322C524.485 210.171 433.829 119.515 322 119.515C210.171 119.515 119.515 210.171 119.515 322Z" fill="#0B1B51" fill-opacity="0.7" stroke="#44BCFF" stroke-opacity="0.2" stroke-width="2" mask="url(#path-1-inside-1)"/>
</svg>
