<?xml version="1.0" encoding="utf-8"?>
<!-- Generator: Adobe Illustrator 24.0.0, SVG Export Plug-In . SVG Version: 6.00 Build 0)  -->
<svg version="1.1" id="Layer_1" xmlns="http://www.w3.org/2000/svg" xmlns:xlink="http://www.w3.org/1999/xlink" x="0px" y="0px"
	 viewBox="0 0 252 181" style="enable-background:new 0 0 252 181;" xml:space="preserve">
<style type="text/css">
	.st0{fill:#44BCFF;}
</style>
<path class="st0" d="M24.7,90.7l39,22.5c1.4-2.4,2.9-4.8,4.4-7.1L30.5,81.3C28.5,84.4,26.5,87.5,24.7,90.7z"/>
<path class="st0" d="M33.7,76.7l36.7,26c1.6-2.3,3.3-4.5,5-6.7l-35-28.2C38.1,70.7,35.8,73.7,33.7,76.7z"/>
<path class="st0" d="M67.8,40.4l28.2,35c2.2-1.7,4.4-3.4,6.7-5l-26-36.7C73.7,35.8,70.7,38.1,67.8,40.4z"/>
<path class="st0" d="M55.3,51.4l31.3,32.3c2-1.9,4.1-3.8,6.2-5.6L63.6,43.9C60.7,46.3,58,48.8,55.3,51.4z"/>
<path class="st0" d="M17,105.5l40.9,18.8c1.2-2.5,2.4-5,3.7-7.5L22,95.6C20.2,98.8,18.5,102.2,17,105.5z"/>
<path class="st0" d="M43.9,63.6l34.2,29.3c1.8-2.1,3.7-4.2,5.6-6.2L51.4,55.3C48.8,58,46.3,60.7,43.9,63.6z"/>
<path class="st0" d="M0.8,169.9l44.9,2.7c0.2-2.8,0.4-5.6,0.8-8.3l-44.7-5.5C1.4,162.5,1.1,166.2,0.8,169.9z"/>
<path class="st0" d="M10.7,121l42.4,15c0.9-2.6,1.9-5.2,3-7.8l-41.4-17.6C13.3,114,12,117.5,10.7,121z"/>
<path class="st0" d="M2.6,153.3l44.5,6.8c0.4-2.8,0.9-5.5,1.5-8.2l-44-9.6C3.9,146,3.2,149.6,2.6,153.3z"/>
<path class="st0" d="M5.9,137l43.6,10.9c0.7-2.7,1.4-5.4,2.3-8L9,126.3C7.8,129.8,6.8,133.4,5.9,137z"/>
<path class="st0" d="M0.5,181h45c0-1.4,0-2.8,0.1-4.2l-45-1.4C0.5,177.3,0.5,179.1,0.5,181z"/>
<path class="st0" d="M192.1,0.8l-2.7,44.9c2.8,0.2,5.6,0.4,8.3,0.8l5.5-44.7C199.5,1.4,195.8,1.1,192.1,0.8z"/>
<path class="st0" d="M208.7,2.6l-6.8,44.5c2.8,0.4,5.5,0.9,8.2,1.5l9.6-44C216,3.9,212.4,3.2,208.7,2.6z"/>
<path class="st0" d="M241,10.7l-15,42.4c2.6,0.9,5.2,1.9,7.8,3l17.6-41.4C248,13.3,244.5,12,241,10.7z"/>
<path class="st0" d="M225,5.9l-10.9,43.6c2.7,0.7,5.4,1.4,8,2.3L235.7,9C232.2,7.8,228.6,6.8,225,5.9z"/>
<path class="st0" d="M175.4,0.6l1.4,45c1.4,0,2.8-0.1,4.2-0.1s2.8,0,4.2,0.1l1.4-45c-1.8-0.1-3.7-0.1-5.6-0.1S177.3,0.5,175.4,0.6z"
	/>
<path class="st0" d="M81.3,30.5L106.2,68c2.3-1.5,4.7-3,7.1-4.4l-22.5-39C87.5,26.5,84.4,28.5,81.3,30.5z"/>
<path class="st0" d="M158.8,1.8l5.5,44.7c2.7-0.3,5.5-0.6,8.3-0.8l-2.7-44.9C166.2,1.1,162.5,1.4,158.8,1.8z"/>
<path class="st0" d="M95.6,22l21.3,39.6c2.4-1.3,4.9-2.6,7.5-3.7L105.5,17C102.2,18.5,98.8,20.2,95.6,22z"/>
<path class="st0" d="M110.6,14.7l17.6,41.4c2.6-1.1,5.1-2.1,7.8-3l-15-42.4C117.5,12,114,13.3,110.6,14.7z"/>
<path class="st0" d="M142.4,4.6l9.6,44c2.7-0.6,5.4-1.1,8.2-1.5l-6.8-44.5C149.6,3.2,146,3.9,142.4,4.6z"/>
<path class="st0" d="M126.3,9l13.6,42.9c2.6-0.8,5.3-1.6,8-2.3L137,5.9C133.4,6.8,129.8,7.8,126.3,9z"/>
</svg>
