<svg width="415" height="288" viewBox="0 0 415 288" fill="none" xmlns="http://www.w3.org/2000/svg">
<path d="M414 33.5V270V271L397.5 287.5H302.5L294 279H273L267 285.5H229.5L218 273.5H128L116.5 285.5H16.5L2 270L1 29L20 10.5H50L59.5 1H101.5L111 10.5H391L414 33.5Z" fill="#0B1B51" fill-opacity="0.68" stroke="#44BCFF" stroke-opacity="0.2"/>
<path d="M400.5 267H404.5L393.5 279H389.5L400.5 267Z" fill="#44BCFF"/>
<path d="M14.5 267H10.5L21.5 279H25.5L14.5 267Z" fill="#44BCFF"/>
<path d="M364.5 267H368.5L357.5 279H353.5L364.5 267Z" fill="#44BCFF"/>
<path d="M50.5 267H46.5L57.5 279H61.5L50.5 267Z" fill="#44BCFF"/>
<path d="M382.5 267H386.5L375.5 279H371.5L382.5 267Z" fill="#44BCFF"/>
<path d="M32.5 267H28.5L39.5 279H43.5L32.5 267Z" fill="#44BCFF"/>
<path d="M346.5 267H350.5L339.5 279H335.5L346.5 267Z" fill="#0E487B"/>
<path d="M68.5 267H64.5L75.5 279H79.5L68.5 267Z" fill="#44BCFF"/>
<path d="M316.5 267H320.5L309.5 279H305.5L316.5 267Z" fill="#0E487B"/>
<path d="M99.6905 4H71.5L75.3095 8H103.5L99.6905 4Z" fill="#0E487B"/>
<path d="M246.119 278H228.5L230.881 280H248.5L246.119 278Z" fill="#0E487B"/>
<path d="M242.119 274H224.5L226.881 276H244.5L242.119 274Z" fill="#0E487B"/>
<path d="M99.6364 4H86.5L90.3636 8H103.5L99.6364 4Z" fill="#44BCFF"/>
<path d="M246 278H237.5L240 280H248.5L246 278Z" fill="#44BCFF"/>
<path d="M242 274H229.5L232 276H244.5L242 274Z" fill="#44BCFF"/>
<path d="M98.5 267H94.5L105.5 279H109.5L98.5 267Z" fill="#0E487B"/>
<path d="M394.5 267H398.5L387.5 279H383.5L394.5 267Z" fill="#44BCFF"/>
<path d="M20.5 267H16.5L27.5 279H31.5L20.5 267Z" fill="#44BCFF"/>
<path d="M358.5 267H362.5L351.5 279H347.5L358.5 267Z" fill="#44BCFF"/>
<path d="M56.5 267H52.5L63.5 279H67.5L56.5 267Z" fill="#44BCFF"/>
<path d="M328.5 267H332.5L321.5 279H317.5L328.5 267Z" fill="#0E487B"/>
<path d="M86.5 267H82.5L93.5 279H97.5L86.5 267Z" fill="#0E487B"/>
<path d="M376.5 267H380.5L369.5 279H365.5L376.5 267Z" fill="#44BCFF"/>
<path d="M38.5 267H34.5L45.5 279H49.5L38.5 267Z" fill="#44BCFF"/>
<path d="M340.5 267H344.5L333.5 279H329.5L340.5 267Z" fill="#0E487B"/>
<path d="M74.5 267H70.5L81.5 279H85.5L74.5 267Z" fill="#44BCFF"/>
<path d="M388.5 267H392.5L381.5 279H377.5L388.5 267Z" fill="#44BCFF"/>
<path d="M26.5 267H22.5L33.5 279H37.5L26.5 267Z" fill="#44BCFF"/>
<path d="M352.5 267H356.5L345.5 279H341.5L352.5 267Z" fill="#44BCFF"/>
<path d="M62.5 267H58.5L69.5 279H73.5L62.5 267Z" fill="#44BCFF"/>
<path d="M322.5 267H326.5L315.5 279H311.5L322.5 267Z" fill="#0E487B"/>
<path d="M92.5 267H88.5L99.5 279H103.5L92.5 267Z" fill="#0E487B"/>
<path d="M370.5 267H374.5L363.5 279H359.5L370.5 267Z" fill="#44BCFF"/>
<path d="M44.5 267H40.5L51.5 279H55.5L44.5 267Z" fill="#44BCFF"/>
<path d="M334.5 267H338.5L327.5 279H323.5L334.5 267Z" fill="#0E487B"/>
<path d="M80.5 267H76.5L87.5 279H91.5L80.5 267Z" fill="#44BCFF"/>
<path d="M361.26 256.61C361.707 256.61 362.113 256.7 362.48 256.88C362.847 257.06 363.137 257.317 363.35 257.65C363.563 257.977 363.67 258.357 363.67 258.79C363.67 259.257 363.553 259.667 363.32 260.02C363.087 260.373 362.767 260.647 362.36 260.84C361.96 261.027 361.513 261.12 361.02 261.12C360.04 261.12 359.273 260.82 358.72 260.22C358.167 259.62 357.89 258.763 357.89 257.65C357.89 256.857 358.04 256.177 358.34 255.61C358.64 255.043 359.057 254.613 359.59 254.32C360.13 254.027 360.753 253.88 361.46 253.88C361.833 253.88 362.19 253.923 362.53 254.01C362.877 254.09 363.17 254.207 363.41 254.36L362.81 255.55C362.463 255.317 362.027 255.2 361.5 255.2C360.907 255.2 360.437 255.373 360.09 255.72C359.743 256.067 359.557 256.57 359.53 257.23C359.943 256.817 360.52 256.61 361.26 256.61ZM360.93 259.91C361.277 259.91 361.557 259.817 361.77 259.63C361.99 259.443 362.1 259.19 362.1 258.87C362.1 258.55 361.99 258.297 361.77 258.11C361.557 257.917 361.27 257.82 360.91 257.82C360.557 257.82 360.267 257.92 360.04 258.12C359.813 258.313 359.7 258.563 359.7 258.87C359.7 259.177 359.81 259.427 360.03 259.62C360.25 259.813 360.55 259.91 360.93 259.91ZM366.657 256.63C367.644 256.63 368.371 256.827 368.837 257.22C369.311 257.613 369.547 258.14 369.547 258.8C369.547 259.227 369.441 259.617 369.227 259.97C369.014 260.317 368.687 260.597 368.247 260.81C367.814 261.017 367.277 261.12 366.637 261.12C366.144 261.12 365.657 261.057 365.177 260.93C364.704 260.797 364.301 260.61 363.967 260.37L364.607 259.13C364.874 259.33 365.181 259.487 365.527 259.6C365.874 259.707 366.231 259.76 366.597 259.76C367.004 259.76 367.324 259.68 367.557 259.52C367.791 259.36 367.907 259.137 367.907 258.85C367.907 258.55 367.784 258.323 367.537 258.17C367.297 258.017 366.877 257.94 366.277 257.94H364.487L364.847 254H369.117V255.3H366.197L366.087 256.63H366.657ZM371.727 257.78C371.213 257.78 370.793 257.607 370.467 257.26C370.147 256.907 369.987 256.437 369.987 255.85C369.987 255.263 370.147 254.797 370.467 254.45C370.793 254.097 371.213 253.92 371.727 253.92C372.24 253.92 372.657 254.097 372.977 254.45C373.297 254.797 373.457 255.263 373.457 255.85C373.457 256.437 373.297 256.907 372.977 257.26C372.657 257.607 372.24 257.78 371.727 257.78ZM375.897 254H377.087L372.307 261H371.117L375.897 254ZM371.727 256.96C371.953 256.96 372.13 256.867 372.257 256.68C372.39 256.493 372.457 256.217 372.457 255.85C372.457 255.483 372.39 255.207 372.257 255.02C372.13 254.833 371.953 254.74 371.727 254.74C371.507 254.74 371.33 254.837 371.197 255.03C371.063 255.217 370.997 255.49 370.997 255.85C370.997 256.21 371.063 256.487 371.197 256.68C371.33 256.867 371.507 256.96 371.727 256.96ZM376.477 261.08C376.143 261.08 375.843 261.003 375.577 260.85C375.317 260.69 375.113 260.463 374.967 260.17C374.82 259.877 374.747 259.537 374.747 259.15C374.747 258.763 374.82 258.423 374.967 258.13C375.113 257.837 375.317 257.613 375.577 257.46C375.843 257.3 376.143 257.22 376.477 257.22C376.99 257.22 377.407 257.397 377.727 257.75C378.053 258.097 378.217 258.563 378.217 259.15C378.217 259.737 378.053 260.207 377.727 260.56C377.407 260.907 376.99 261.08 376.477 261.08ZM376.477 260.26C376.703 260.26 376.88 260.167 377.007 259.98C377.14 259.787 377.207 259.51 377.207 259.15C377.207 258.79 377.14 258.517 377.007 258.33C376.88 258.137 376.703 258.04 376.477 258.04C376.257 258.04 376.08 258.133 375.947 258.32C375.813 258.507 375.747 258.783 375.747 259.15C375.747 259.517 375.813 259.793 375.947 259.98C376.08 260.167 376.257 260.26 376.477 260.26ZM386.378 256.9H383.618V261H382.068V255.62H386.378V256.9ZM389.5 261.08C388.934 261.08 388.424 260.963 387.97 260.73C387.524 260.49 387.174 260.16 386.92 259.74C386.667 259.32 386.54 258.843 386.54 258.31C386.54 257.777 386.667 257.3 386.92 256.88C387.174 256.46 387.524 256.133 387.97 255.9C388.424 255.66 388.934 255.54 389.5 255.54C390.067 255.54 390.574 255.66 391.02 255.9C391.467 256.133 391.817 256.46 392.07 256.88C392.324 257.3 392.45 257.777 392.45 258.31C392.45 258.843 392.324 259.32 392.07 259.74C391.817 260.16 391.467 260.49 391.02 260.73C390.574 260.963 390.067 261.08 389.5 261.08ZM389.5 259.8C389.9 259.8 390.227 259.667 390.48 259.4C390.74 259.127 390.87 258.763 390.87 258.31C390.87 257.857 390.74 257.497 390.48 257.23C390.227 256.957 389.9 256.82 389.5 256.82C389.1 256.82 388.77 256.957 388.51 257.23C388.25 257.497 388.12 257.857 388.12 258.31C388.12 258.763 388.25 259.127 388.51 259.4C388.77 259.667 389.1 259.8 389.5 259.8ZM399.475 259.72V262.16H398.025V261H394.245V262.16H392.795V259.72H393.015C393.349 259.713 393.579 259.517 393.705 259.13C393.832 258.743 393.912 258.193 393.945 257.48L394.015 255.62H398.705V259.72H399.475ZM395.355 257.59C395.335 258.137 395.292 258.583 395.225 258.93C395.165 259.277 395.049 259.54 394.875 259.72H397.145V256.9H395.385L395.355 257.59Z" fill="#44BCFF"/>
<path d="M14.68 257.32C15.0267 257.493 15.29 257.72 15.47 258C15.6567 258.28 15.75 258.603 15.75 258.97C15.75 259.403 15.6267 259.783 15.38 260.11C15.1333 260.43 14.7867 260.68 14.34 260.86C13.8933 261.033 13.3767 261.12 12.79 261.12C12.2033 261.12 11.6867 261.033 11.24 260.86C10.8 260.68 10.4567 260.43 10.21 260.11C9.97 259.783 9.85 259.403 9.85 258.97C9.85 258.603 9.94 258.28 10.12 258C10.3067 257.72 10.57 257.493 10.91 257.32C10.65 257.16 10.45 256.96 10.31 256.72C10.17 256.473 10.1 256.193 10.1 255.88C10.1 255.473 10.2133 255.12 10.44 254.82C10.6667 254.52 10.9833 254.29 11.39 254.13C11.7967 253.963 12.2633 253.88 12.79 253.88C13.3233 253.88 13.7933 253.963 14.2 254.13C14.6133 254.29 14.9333 254.52 15.16 254.82C15.3867 255.12 15.5 255.473 15.5 255.88C15.5 256.193 15.43 256.473 15.29 256.72C15.15 256.96 14.9467 257.16 14.68 257.32ZM12.79 255.07C12.4633 255.07 12.2 255.15 12 255.31C11.8067 255.463 11.71 255.677 11.71 255.95C11.71 256.217 11.8067 256.427 12 256.58C12.1933 256.733 12.4567 256.81 12.79 256.81C13.1233 256.81 13.39 256.733 13.59 256.58C13.79 256.427 13.89 256.217 13.89 255.95C13.89 255.677 13.79 255.463 13.59 255.31C13.39 255.15 13.1233 255.07 12.79 255.07ZM12.79 259.93C13.1967 259.93 13.5167 259.84 13.75 259.66C13.99 259.473 14.11 259.227 14.11 258.92C14.11 258.613 13.99 258.37 13.75 258.19C13.5167 258.01 13.1967 257.92 12.79 257.92C12.39 257.92 12.0733 258.01 11.84 258.19C11.6067 258.37 11.49 258.613 11.49 258.92C11.49 259.233 11.6067 259.48 11.84 259.66C12.0733 259.84 12.39 259.93 12.79 259.93ZM18.8916 256.63C19.8782 256.63 20.6049 256.827 21.0716 257.22C21.5449 257.613 21.7816 258.14 21.7816 258.8C21.7816 259.227 21.6749 259.617 21.4616 259.97C21.2482 260.317 20.9216 260.597 20.4816 260.81C20.0482 261.017 19.5116 261.12 18.8716 261.12C18.3782 261.12 17.8916 261.057 17.4116 260.93C16.9382 260.797 16.5349 260.61 16.2016 260.37L16.8416 259.13C17.1082 259.33 17.4149 259.487 17.7616 259.6C18.1082 259.707 18.4649 259.76 18.8316 259.76C19.2382 259.76 19.5582 259.68 19.7916 259.52C20.0249 259.36 20.1416 259.137 20.1416 258.85C20.1416 258.55 20.0182 258.323 19.7716 258.17C19.5316 258.017 19.1116 257.94 18.5116 257.94H16.7216L17.0816 254H21.3516V255.3H18.4316L18.3216 256.63H18.8916ZM23.9612 257.78C23.4478 257.78 23.0278 257.607 22.7012 257.26C22.3812 256.907 22.2212 256.437 22.2212 255.85C22.2212 255.263 22.3812 254.797 22.7012 254.45C23.0278 254.097 23.4478 253.92 23.9612 253.92C24.4745 253.92 24.8912 254.097 25.2112 254.45C25.5312 254.797 25.6912 255.263 25.6912 255.85C25.6912 256.437 25.5312 256.907 25.2112 257.26C24.8912 257.607 24.4745 257.78 23.9612 257.78ZM28.1312 254H29.3212L24.5412 261H23.3512L28.1312 254ZM23.9612 256.96C24.1878 256.96 24.3645 256.867 24.4912 256.68C24.6245 256.493 24.6912 256.217 24.6912 255.85C24.6912 255.483 24.6245 255.207 24.4912 255.02C24.3645 254.833 24.1878 254.74 23.9612 254.74C23.7412 254.74 23.5645 254.837 23.4312 255.03C23.2978 255.217 23.2312 255.49 23.2312 255.85C23.2312 256.21 23.2978 256.487 23.4312 256.68C23.5645 256.867 23.7412 256.96 23.9612 256.96ZM28.7112 261.08C28.3778 261.08 28.0778 261.003 27.8112 260.85C27.5512 260.69 27.3478 260.463 27.2012 260.17C27.0545 259.877 26.9812 259.537 26.9812 259.15C26.9812 258.763 27.0545 258.423 27.2012 258.13C27.3478 257.837 27.5512 257.613 27.8112 257.46C28.0778 257.3 28.3778 257.22 28.7112 257.22C29.2245 257.22 29.6412 257.397 29.9612 257.75C30.2878 258.097 30.4512 258.563 30.4512 259.15C30.4512 259.737 30.2878 260.207 29.9612 260.56C29.6412 260.907 29.2245 261.08 28.7112 261.08ZM28.7112 260.26C28.9378 260.26 29.1145 260.167 29.2412 259.98C29.3745 259.787 29.4412 259.51 29.4412 259.15C29.4412 258.79 29.3745 258.517 29.2412 258.33C29.1145 258.137 28.9378 258.04 28.7112 258.04C28.4912 258.04 28.3145 258.133 28.1812 258.32C28.0478 258.507 27.9812 258.783 27.9812 259.15C27.9812 259.517 28.0478 259.793 28.1812 259.98C28.3145 260.167 28.4912 260.26 28.7112 260.26ZM39.5527 261V257.78L37.9427 260.48H37.2827L35.7127 257.77V261H34.3027V255.62H35.9327L37.6527 258.73L39.4827 255.62H40.9427L40.9627 261H39.5527ZM47.687 258.33C47.687 258.35 47.677 258.49 47.657 258.75H43.587C43.6604 259.083 43.8337 259.347 44.107 259.54C44.3804 259.733 44.7204 259.83 45.127 259.83C45.407 259.83 45.6537 259.79 45.867 259.71C46.087 259.623 46.2904 259.49 46.477 259.31L47.307 260.21C46.8004 260.79 46.0604 261.08 45.087 261.08C44.4804 261.08 43.9437 260.963 43.477 260.73C43.0104 260.49 42.6504 260.16 42.397 259.74C42.1437 259.32 42.017 258.843 42.017 258.31C42.017 257.783 42.1404 257.31 42.387 256.89C42.6404 256.463 42.9837 256.133 43.417 255.9C43.857 255.66 44.347 255.54 44.887 255.54C45.4137 255.54 45.8904 255.653 46.317 255.88C46.7437 256.107 47.077 256.433 47.317 256.86C47.5637 257.28 47.687 257.77 47.687 258.33ZM44.897 256.72C44.5437 256.72 44.247 256.82 44.007 257.02C43.767 257.22 43.6204 257.493 43.567 257.84H46.217C46.1637 257.5 46.017 257.23 45.777 257.03C45.537 256.823 45.2437 256.72 44.897 256.72ZM51.4428 261.08C50.8695 261.08 50.3528 260.963 49.8928 260.73C49.4395 260.49 49.0828 260.16 48.8228 259.74C48.5695 259.32 48.4428 258.843 48.4428 258.31C48.4428 257.777 48.5695 257.3 48.8228 256.88C49.0828 256.46 49.4395 256.133 49.8928 255.9C50.3528 255.66 50.8695 255.54 51.4428 255.54C52.0095 255.54 52.5028 255.66 52.9228 255.9C53.3495 256.133 53.6595 256.47 53.8528 256.91L52.6428 257.56C52.3628 257.067 51.9595 256.82 51.4328 256.82C51.0261 256.82 50.6895 256.953 50.4228 257.22C50.1561 257.487 50.0228 257.85 50.0228 258.31C50.0228 258.77 50.1561 259.133 50.4228 259.4C50.6895 259.667 51.0261 259.8 51.4328 259.8C51.9661 259.8 52.3695 259.553 52.6428 259.06L53.8528 259.72C53.6595 260.147 53.3495 260.48 52.9228 260.72C52.5028 260.96 52.0095 261.08 51.4428 261.08ZM59.4441 255.62V261H58.0541V259.46H56.9041L55.8841 261H54.2241L55.4541 259.24C55.0807 259.093 54.7941 258.883 54.5941 258.61C54.4007 258.33 54.3041 257.993 54.3041 257.6C54.3041 256.967 54.5307 256.48 54.9841 256.14C55.4441 255.793 56.0741 255.62 56.8741 255.62H59.4441ZM56.9041 256.89C56.5707 256.89 56.3174 256.95 56.1441 257.07C55.9774 257.19 55.8941 257.383 55.8941 257.65C55.8941 257.917 55.9741 258.113 56.1341 258.24C56.3007 258.36 56.5507 258.42 56.8841 258.42H58.0541V256.89H56.9041ZM67.0034 259.72V262.18H65.5534V261H60.9434V255.62H62.4934V259.72H64.6634V255.62H66.2234V259.72H67.0034Z" fill="#44BCFF"/>
</svg>
