<svg width="434" height="427" viewBox="0 0 434 427" fill="none" xmlns="http://www.w3.org/2000/svg">
<path d="M0.5 33.5V409V410L17 426.5H112L120.5 418H141.5L147.5 424.5H185L196.5 412.5H306.5L318 424.5H418L432.5 409L433.5 29L414.5 10.5H384.5L375 1H333L323.5 10.5H23.5L0.5 33.5Z" fill="white" fill-opacity="0.68" stroke="#217AFF" stroke-opacity="0.2"/>
<path d="M419 406H423L412 418H408L419 406Z" fill="#F79A2D"/>
<path d="M14 407H10L21 419H25L14 407Z" fill="#F79A2D"/>
<path d="M383 406H387L376 418H372L383 406Z" fill="#F79A2D"/>
<path d="M50 407H46L57 419H61L50 407Z" fill="#F79A2D"/>
<path d="M401 406H405L394 418H390L401 406Z" fill="#F79A2D"/>
<path d="M32 407H28L39 419H43L32 407Z" fill="#F79A2D"/>
<path d="M365 406H369L358 418H354L365 406Z" fill="#F79A2D" fill-opacity="0.2"/>
<path d="M68 407H64L75 419H79L68 407Z" fill="#F79A2D"/>
<path d="M335 406H339L328 418H324L335 406Z" fill="#F79A2D" fill-opacity="0.2"/>
<path d="M338.81 4H367L363.19 8H335L338.81 4Z" fill="#CDD6EE"/>
<path d="M168.381 417H186L183.619 419H166L168.381 417Z" fill="#CDD6EE"/>
<path d="M172.381 413H190L187.619 415H170L172.381 413Z" fill="#CDD6EE"/>
<path d="M338.864 4H352L348.136 8H335L338.864 4Z" fill="#217AFF"/>
<path d="M168.5 417H177L174.5 419H166L168.5 417Z" fill="#217AFF"/>
<path d="M172.5 413H185L182.5 415H170L172.5 413Z" fill="#217AFF"/>
<path d="M98 407H94L105 419H109L98 407Z" fill="#F79A2D" fill-opacity="0.2"/>
<path d="M413 406H417L406 418H402L413 406Z" fill="#F79A2D"/>
<path d="M20 407H16L27 419H31L20 407Z" fill="#F79A2D"/>
<path d="M377 406H381L370 418H366L377 406Z" fill="#F79A2D"/>
<path d="M56 407H52L63 419H67L56 407Z" fill="#F79A2D"/>
<path d="M347 406H351L340 418H336L347 406Z" fill="#F79A2D" fill-opacity="0.2"/>
<path d="M86 407H82L93 419H97L86 407Z" fill="#F79A2D" fill-opacity="0.2"/>
<path d="M395 406H399L388 418H384L395 406Z" fill="#F79A2D"/>
<path d="M38 407H34L45 419H49L38 407Z" fill="#F79A2D"/>
<path d="M359 406H363L352 418H348L359 406Z" fill="#F79A2D" fill-opacity="0.2"/>
<path d="M74 407H70L81 419H85L74 407Z" fill="#F79A2D"/>
<path d="M407 406H411L400 418H396L407 406Z" fill="#F79A2D"/>
<path d="M26 407H22L33 419H37L26 407Z" fill="#F79A2D"/>
<path d="M371 406H375L364 418H360L371 406Z" fill="#F79A2D"/>
<path d="M62 407H58L69 419H73L62 407Z" fill="#F79A2D"/>
<path d="M341 406H345L334 418H330L341 406Z" fill="#F79A2D" fill-opacity="0.2"/>
<path d="M92 407H88L99 419H103L92 407Z" fill="#F79A2D" fill-opacity="0.2"/>
<path d="M389 406H393L382 418H378L389 406Z" fill="#F79A2D"/>
<path d="M44 407H40L51 419H55L44 407Z" fill="#F79A2D"/>
<path d="M353 406H357L346 418H342L353 406Z" fill="#F79A2D" fill-opacity="0.2"/>
<path d="M80 407H76L87 419H91L80 407Z" fill="#F79A2D"/>
<path d="M379.76 395.61C380.207 395.61 380.613 395.7 380.98 395.88C381.347 396.06 381.637 396.317 381.85 396.65C382.063 396.977 382.17 397.357 382.17 397.79C382.17 398.257 382.053 398.667 381.82 399.02C381.587 399.373 381.267 399.647 380.86 399.84C380.46 400.027 380.013 400.12 379.52 400.12C378.54 400.12 377.773 399.82 377.22 399.22C376.667 398.62 376.39 397.763 376.39 396.65C376.39 395.857 376.54 395.177 376.84 394.61C377.14 394.043 377.557 393.613 378.09 393.32C378.63 393.027 379.253 392.88 379.96 392.88C380.333 392.88 380.69 392.923 381.03 393.01C381.377 393.09 381.67 393.207 381.91 393.36L381.31 394.55C380.963 394.317 380.527 394.2 380 394.2C379.407 394.2 378.937 394.373 378.59 394.72C378.243 395.067 378.057 395.57 378.03 396.23C378.443 395.817 379.02 395.61 379.76 395.61ZM379.43 398.91C379.777 398.91 380.057 398.817 380.27 398.63C380.49 398.443 380.6 398.19 380.6 397.87C380.6 397.55 380.49 397.297 380.27 397.11C380.057 396.917 379.77 396.82 379.41 396.82C379.057 396.82 378.767 396.92 378.54 397.12C378.313 397.313 378.2 397.563 378.2 397.87C378.2 398.177 378.31 398.427 378.53 398.62C378.75 398.813 379.05 398.91 379.43 398.91ZM385.157 395.63C386.144 395.63 386.871 395.827 387.337 396.22C387.811 396.613 388.047 397.14 388.047 397.8C388.047 398.227 387.941 398.617 387.727 398.97C387.514 399.317 387.187 399.597 386.747 399.81C386.314 400.017 385.777 400.12 385.137 400.12C384.644 400.12 384.157 400.057 383.677 399.93C383.204 399.797 382.801 399.61 382.467 399.37L383.107 398.13C383.374 398.33 383.681 398.487 384.027 398.6C384.374 398.707 384.731 398.76 385.097 398.76C385.504 398.76 385.824 398.68 386.057 398.52C386.291 398.36 386.407 398.137 386.407 397.85C386.407 397.55 386.284 397.323 386.037 397.17C385.797 397.017 385.377 396.94 384.777 396.94H382.987L383.347 393H387.617V394.3H384.697L384.587 395.63H385.157ZM390.227 396.78C389.713 396.78 389.293 396.607 388.967 396.26C388.647 395.907 388.487 395.437 388.487 394.85C388.487 394.263 388.647 393.797 388.967 393.45C389.293 393.097 389.713 392.92 390.227 392.92C390.74 392.92 391.157 393.097 391.477 393.45C391.797 393.797 391.957 394.263 391.957 394.85C391.957 395.437 391.797 395.907 391.477 396.26C391.157 396.607 390.74 396.78 390.227 396.78ZM394.397 393H395.587L390.807 400H389.617L394.397 393ZM390.227 395.96C390.453 395.96 390.63 395.867 390.757 395.68C390.89 395.493 390.957 395.217 390.957 394.85C390.957 394.483 390.89 394.207 390.757 394.02C390.63 393.833 390.453 393.74 390.227 393.74C390.007 393.74 389.83 393.837 389.697 394.03C389.563 394.217 389.497 394.49 389.497 394.85C389.497 395.21 389.563 395.487 389.697 395.68C389.83 395.867 390.007 395.96 390.227 395.96ZM394.977 400.08C394.643 400.08 394.343 400.003 394.077 399.85C393.817 399.69 393.613 399.463 393.467 399.17C393.32 398.877 393.247 398.537 393.247 398.15C393.247 397.763 393.32 397.423 393.467 397.13C393.613 396.837 393.817 396.613 394.077 396.46C394.343 396.3 394.643 396.22 394.977 396.22C395.49 396.22 395.907 396.397 396.227 396.75C396.553 397.097 396.717 397.563 396.717 398.15C396.717 398.737 396.553 399.207 396.227 399.56C395.907 399.907 395.49 400.08 394.977 400.08ZM394.977 399.26C395.203 399.26 395.38 399.167 395.507 398.98C395.64 398.787 395.707 398.51 395.707 398.15C395.707 397.79 395.64 397.517 395.507 397.33C395.38 397.137 395.203 397.04 394.977 397.04C394.757 397.04 394.58 397.133 394.447 397.32C394.313 397.507 394.247 397.783 394.247 398.15C394.247 398.517 394.313 398.793 394.447 398.98C394.58 399.167 394.757 399.26 394.977 399.26ZM404.878 395.9H402.118V400H400.568V394.62H404.878V395.9ZM408 400.08C407.434 400.08 406.924 399.963 406.47 399.73C406.024 399.49 405.674 399.16 405.42 398.74C405.167 398.32 405.04 397.843 405.04 397.31C405.04 396.777 405.167 396.3 405.42 395.88C405.674 395.46 406.024 395.133 406.47 394.9C406.924 394.66 407.434 394.54 408 394.54C408.567 394.54 409.074 394.66 409.52 394.9C409.967 395.133 410.317 395.46 410.57 395.88C410.824 396.3 410.95 396.777 410.95 397.31C410.95 397.843 410.824 398.32 410.57 398.74C410.317 399.16 409.967 399.49 409.52 399.73C409.074 399.963 408.567 400.08 408 400.08ZM408 398.8C408.4 398.8 408.727 398.667 408.98 398.4C409.24 398.127 409.37 397.763 409.37 397.31C409.37 396.857 409.24 396.497 408.98 396.23C408.727 395.957 408.4 395.82 408 395.82C407.6 395.82 407.27 395.957 407.01 396.23C406.75 396.497 406.62 396.857 406.62 397.31C406.62 397.763 406.75 398.127 407.01 398.4C407.27 398.667 407.6 398.8 408 398.8ZM417.975 398.72V401.16H416.525V400H412.745V401.16H411.295V398.72H411.515C411.849 398.713 412.079 398.517 412.205 398.13C412.332 397.743 412.412 397.193 412.445 396.48L412.515 394.62H417.205V398.72H417.975ZM413.855 396.59C413.835 397.137 413.792 397.583 413.725 397.93C413.665 398.277 413.549 398.54 413.375 398.72H415.645V395.9H413.885L413.855 396.59Z" fill="#F79A2D"/>
<path d="M14.18 397.32C14.5267 397.493 14.79 397.72 14.97 398C15.1567 398.28 15.25 398.603 15.25 398.97C15.25 399.403 15.1267 399.783 14.88 400.11C14.6333 400.43 14.2867 400.68 13.84 400.86C13.3933 401.033 12.8767 401.12 12.29 401.12C11.7033 401.12 11.1867 401.033 10.74 400.86C10.3 400.68 9.95667 400.43 9.71 400.11C9.47 399.783 9.35 399.403 9.35 398.97C9.35 398.603 9.44 398.28 9.62 398C9.80667 397.72 10.07 397.493 10.41 397.32C10.15 397.16 9.95 396.96 9.81 396.72C9.67 396.473 9.6 396.193 9.6 395.88C9.6 395.473 9.71333 395.12 9.94 394.82C10.1667 394.52 10.4833 394.29 10.89 394.13C11.2967 393.963 11.7633 393.88 12.29 393.88C12.8233 393.88 13.2933 393.963 13.7 394.13C14.1133 394.29 14.4333 394.52 14.66 394.82C14.8867 395.12 15 395.473 15 395.88C15 396.193 14.93 396.473 14.79 396.72C14.65 396.96 14.4467 397.16 14.18 397.32ZM12.29 395.07C11.9633 395.07 11.7 395.15 11.5 395.31C11.3067 395.463 11.21 395.677 11.21 395.95C11.21 396.217 11.3067 396.427 11.5 396.58C11.6933 396.733 11.9567 396.81 12.29 396.81C12.6233 396.81 12.89 396.733 13.09 396.58C13.29 396.427 13.39 396.217 13.39 395.95C13.39 395.677 13.29 395.463 13.09 395.31C12.89 395.15 12.6233 395.07 12.29 395.07ZM12.29 399.93C12.6967 399.93 13.0167 399.84 13.25 399.66C13.49 399.473 13.61 399.227 13.61 398.92C13.61 398.613 13.49 398.37 13.25 398.19C13.0167 398.01 12.6967 397.92 12.29 397.92C11.89 397.92 11.5733 398.01 11.34 398.19C11.1067 398.37 10.99 398.613 10.99 398.92C10.99 399.233 11.1067 399.48 11.34 399.66C11.5733 399.84 11.89 399.93 12.29 399.93ZM18.3916 396.63C19.3782 396.63 20.1049 396.827 20.5716 397.22C21.0449 397.613 21.2816 398.14 21.2816 398.8C21.2816 399.227 21.1749 399.617 20.9616 399.97C20.7482 400.317 20.4216 400.597 19.9816 400.81C19.5482 401.017 19.0116 401.12 18.3716 401.12C17.8782 401.12 17.3916 401.057 16.9116 400.93C16.4382 400.797 16.0349 400.61 15.7016 400.37L16.3416 399.13C16.6082 399.33 16.9149 399.487 17.2616 399.6C17.6082 399.707 17.9649 399.76 18.3316 399.76C18.7382 399.76 19.0582 399.68 19.2916 399.52C19.5249 399.36 19.6416 399.137 19.6416 398.85C19.6416 398.55 19.5182 398.323 19.2716 398.17C19.0316 398.017 18.6116 397.94 18.0116 397.94H16.2216L16.5816 394H20.8516V395.3H17.9316L17.8216 396.63H18.3916ZM23.4612 397.78C22.9478 397.78 22.5278 397.607 22.2012 397.26C21.8812 396.907 21.7212 396.437 21.7212 395.85C21.7212 395.263 21.8812 394.797 22.2012 394.45C22.5278 394.097 22.9478 393.92 23.4612 393.92C23.9745 393.92 24.3912 394.097 24.7112 394.45C25.0312 394.797 25.1912 395.263 25.1912 395.85C25.1912 396.437 25.0312 396.907 24.7112 397.26C24.3912 397.607 23.9745 397.78 23.4612 397.78ZM27.6312 394H28.8212L24.0412 401H22.8512L27.6312 394ZM23.4612 396.96C23.6878 396.96 23.8645 396.867 23.9912 396.68C24.1245 396.493 24.1912 396.217 24.1912 395.85C24.1912 395.483 24.1245 395.207 23.9912 395.02C23.8645 394.833 23.6878 394.74 23.4612 394.74C23.2412 394.74 23.0645 394.837 22.9312 395.03C22.7978 395.217 22.7312 395.49 22.7312 395.85C22.7312 396.21 22.7978 396.487 22.9312 396.68C23.0645 396.867 23.2412 396.96 23.4612 396.96ZM28.2112 401.08C27.8778 401.08 27.5778 401.003 27.3112 400.85C27.0512 400.69 26.8478 400.463 26.7012 400.17C26.5545 399.877 26.4812 399.537 26.4812 399.15C26.4812 398.763 26.5545 398.423 26.7012 398.13C26.8478 397.837 27.0512 397.613 27.3112 397.46C27.5778 397.3 27.8778 397.22 28.2112 397.22C28.7245 397.22 29.1412 397.397 29.4612 397.75C29.7878 398.097 29.9512 398.563 29.9512 399.15C29.9512 399.737 29.7878 400.207 29.4612 400.56C29.1412 400.907 28.7245 401.08 28.2112 401.08ZM28.2112 400.26C28.4378 400.26 28.6145 400.167 28.7412 399.98C28.8745 399.787 28.9412 399.51 28.9412 399.15C28.9412 398.79 28.8745 398.517 28.7412 398.33C28.6145 398.137 28.4378 398.04 28.2112 398.04C27.9912 398.04 27.8145 398.133 27.6812 398.32C27.5478 398.507 27.4812 398.783 27.4812 399.15C27.4812 399.517 27.5478 399.793 27.6812 399.98C27.8145 400.167 27.9912 400.26 28.2112 400.26ZM39.0527 401V397.78L37.4427 400.48H36.7827L35.2127 397.77V401H33.8027V395.62H35.4327L37.1527 398.73L38.9827 395.62H40.4427L40.4627 401H39.0527ZM47.187 398.33C47.187 398.35 47.177 398.49 47.157 398.75H43.087C43.1604 399.083 43.3337 399.347 43.607 399.54C43.8804 399.733 44.2204 399.83 44.627 399.83C44.907 399.83 45.1537 399.79 45.367 399.71C45.587 399.623 45.7904 399.49 45.977 399.31L46.807 400.21C46.3004 400.79 45.5604 401.08 44.587 401.08C43.9804 401.08 43.4437 400.963 42.977 400.73C42.5104 400.49 42.1504 400.16 41.897 399.74C41.6437 399.32 41.517 398.843 41.517 398.31C41.517 397.783 41.6404 397.31 41.887 396.89C42.1404 396.463 42.4837 396.133 42.917 395.9C43.357 395.66 43.847 395.54 44.387 395.54C44.9137 395.54 45.3904 395.653 45.817 395.88C46.2437 396.107 46.577 396.433 46.817 396.86C47.0637 397.28 47.187 397.77 47.187 398.33ZM44.397 396.72C44.0437 396.72 43.747 396.82 43.507 397.02C43.267 397.22 43.1204 397.493 43.067 397.84H45.717C45.6637 397.5 45.517 397.23 45.277 397.03C45.037 396.823 44.7437 396.72 44.397 396.72ZM50.9428 401.08C50.3695 401.08 49.8528 400.963 49.3928 400.73C48.9395 400.49 48.5828 400.16 48.3228 399.74C48.0695 399.32 47.9428 398.843 47.9428 398.31C47.9428 397.777 48.0695 397.3 48.3228 396.88C48.5828 396.46 48.9395 396.133 49.3928 395.9C49.8528 395.66 50.3695 395.54 50.9428 395.54C51.5095 395.54 52.0028 395.66 52.4228 395.9C52.8495 396.133 53.1595 396.47 53.3528 396.91L52.1428 397.56C51.8628 397.067 51.4595 396.82 50.9328 396.82C50.5261 396.82 50.1895 396.953 49.9228 397.22C49.6561 397.487 49.5228 397.85 49.5228 398.31C49.5228 398.77 49.6561 399.133 49.9228 399.4C50.1895 399.667 50.5261 399.8 50.9328 399.8C51.4661 399.8 51.8695 399.553 52.1428 399.06L53.3528 399.72C53.1595 400.147 52.8495 400.48 52.4228 400.72C52.0028 400.96 51.5095 401.08 50.9428 401.08ZM58.9441 395.62V401H57.5541V399.46H56.4041L55.3841 401H53.7241L54.9541 399.24C54.5807 399.093 54.2941 398.883 54.0941 398.61C53.9007 398.33 53.8041 397.993 53.8041 397.6C53.8041 396.967 54.0307 396.48 54.4841 396.14C54.9441 395.793 55.5741 395.62 56.3741 395.62H58.9441ZM56.4041 396.89C56.0707 396.89 55.8174 396.95 55.6441 397.07C55.4774 397.19 55.3941 397.383 55.3941 397.65C55.3941 397.917 55.4741 398.113 55.6341 398.24C55.8007 398.36 56.0507 398.42 56.3841 398.42H57.5541V396.89H56.4041ZM66.5034 399.72V402.18H65.0534V401H60.4434V395.62H61.9934V399.72H64.1634V395.62H65.7234V399.72H66.5034Z" fill="#F79A2D"/>
</svg>
