<svg width="414" height="337" viewBox="0 0 414 337" fill="none" xmlns="http://www.w3.org/2000/svg">
<path d="M0.5 33.5V319V320L17 336.5H112L120.5 328H141.5L147.5 334.5H185L196.5 322.5H286.5L298 334.5H398L412.5 319L413.5 29L394.5 10.5H364.5L355 1H313L303.5 10.5H23.5L0.5 33.5Z" fill="#0B1B51" fill-opacity="0.68" stroke="#44BCFF" stroke-opacity="0.2"/>
<path d="M400 315H404L393 327H389L400 315Z" fill="#44BCFF"/>
<path d="M14 316H10L21 328H25L14 316Z" fill="#44BCFF"/>
<path d="M364 315H368L357 327H353L364 315Z" fill="#44BCFF"/>
<path d="M50 316H46L57 328H61L50 316Z" fill="#44BCFF"/>
<path d="M382 315H386L375 327H371L382 315Z" fill="#44BCFF"/>
<path d="M32 316H28L39 328H43L32 316Z" fill="#44BCFF"/>
<path d="M346 315H350L339 327H335L346 315Z" fill="#0E487B"/>
<path d="M68 316H64L75 328H79L68 316Z" fill="#44BCFF"/>
<path d="M316 315H320L309 327H305L316 315Z" fill="#0E487B"/>
<path d="M314.81 4H343L339.19 8H311L314.81 4Z" fill="#0E487B"/>
<path d="M168.381 326H186L183.619 328H166L168.381 326Z" fill="#0E487B"/>
<path d="M172.381 322H190L187.619 324H170L172.381 322Z" fill="#0E487B"/>
<path d="M168.5 326H177L174.5 328H166L168.5 326Z" fill="#44BCFF"/>
<path d="M172.5 322H185L182.5 324H170L172.5 322Z" fill="#44BCFF"/>
<path d="M98 316H94L105 328H109L98 316Z" fill="#0E487B"/>
<path d="M394 315H398L387 327H383L394 315Z" fill="#44BCFF"/>
<path d="M20 316H16L27 328H31L20 316Z" fill="#44BCFF"/>
<path d="M358 315H362L351 327H347L358 315Z" fill="#44BCFF"/>
<path d="M56 316H52L63 328H67L56 316Z" fill="#44BCFF"/>
<path d="M328 315H332L321 327H317L328 315Z" fill="#0E487B"/>
<path d="M86 316H82L93 328H97L86 316Z" fill="#0E487B"/>
<path d="M376 315H380L369 327H365L376 315Z" fill="#44BCFF"/>
<path d="M38 316H34L45 328H49L38 316Z" fill="#44BCFF"/>
<path d="M340 315H344L333 327H329L340 315Z" fill="#0E487B"/>
<path d="M74 316H70L81 328H85L74 316Z" fill="#44BCFF"/>
<path d="M388 315H392L381 327H377L388 315Z" fill="#44BCFF"/>
<path d="M26 316H22L33 328H37L26 316Z" fill="#44BCFF"/>
<path d="M352 315H356L345 327H341L352 315Z" fill="#44BCFF"/>
<path d="M62 316H58L69 328H73L62 316Z" fill="#44BCFF"/>
<path d="M322 315H326L315 327H311L322 315Z" fill="#0E487B"/>
<path d="M92 316H88L99 328H103L92 316Z" fill="#0E487B"/>
<path d="M370 315H374L363 327H359L370 315Z" fill="#44BCFF"/>
<path d="M44 316H40L51 328H55L44 316Z" fill="#44BCFF"/>
<path d="M334 315H338L327 327H323L334 315Z" fill="#0E487B"/>
<path d="M80 316H76L87 328H91L80 316Z" fill="#44BCFF"/>
<path d="M360.76 304.61C361.207 304.61 361.613 304.7 361.98 304.88C362.347 305.06 362.637 305.317 362.85 305.65C363.063 305.977 363.17 306.357 363.17 306.79C363.17 307.257 363.053 307.667 362.82 308.02C362.587 308.373 362.267 308.647 361.86 308.84C361.46 309.027 361.013 309.12 360.52 309.12C359.54 309.12 358.773 308.82 358.22 308.22C357.667 307.62 357.39 306.763 357.39 305.65C357.39 304.857 357.54 304.177 357.84 303.61C358.14 303.043 358.557 302.613 359.09 302.32C359.63 302.027 360.253 301.88 360.96 301.88C361.333 301.88 361.69 301.923 362.03 302.01C362.377 302.09 362.67 302.207 362.91 302.36L362.31 303.55C361.963 303.317 361.527 303.2 361 303.2C360.407 303.2 359.937 303.373 359.59 303.72C359.243 304.067 359.057 304.57 359.03 305.23C359.443 304.817 360.02 304.61 360.76 304.61ZM360.43 307.91C360.777 307.91 361.057 307.817 361.27 307.63C361.49 307.443 361.6 307.19 361.6 306.87C361.6 306.55 361.49 306.297 361.27 306.11C361.057 305.917 360.77 305.82 360.41 305.82C360.057 305.82 359.767 305.92 359.54 306.12C359.313 306.313 359.2 306.563 359.2 306.87C359.2 307.177 359.31 307.427 359.53 307.62C359.75 307.813 360.05 307.91 360.43 307.91ZM366.157 304.63C367.144 304.63 367.871 304.827 368.337 305.22C368.811 305.613 369.047 306.14 369.047 306.8C369.047 307.227 368.941 307.617 368.727 307.97C368.514 308.317 368.187 308.597 367.747 308.81C367.314 309.017 366.777 309.12 366.137 309.12C365.644 309.12 365.157 309.057 364.677 308.93C364.204 308.797 363.801 308.61 363.467 308.37L364.107 307.13C364.374 307.33 364.681 307.487 365.027 307.6C365.374 307.707 365.731 307.76 366.097 307.76C366.504 307.76 366.824 307.68 367.057 307.52C367.291 307.36 367.407 307.137 367.407 306.85C367.407 306.55 367.284 306.323 367.037 306.17C366.797 306.017 366.377 305.94 365.777 305.94H363.987L364.347 302H368.617V303.3H365.697L365.587 304.63H366.157ZM371.227 305.78C370.713 305.78 370.293 305.607 369.967 305.26C369.647 304.907 369.487 304.437 369.487 303.85C369.487 303.263 369.647 302.797 369.967 302.45C370.293 302.097 370.713 301.92 371.227 301.92C371.74 301.92 372.157 302.097 372.477 302.45C372.797 302.797 372.957 303.263 372.957 303.85C372.957 304.437 372.797 304.907 372.477 305.26C372.157 305.607 371.74 305.78 371.227 305.78ZM375.397 302H376.587L371.807 309H370.617L375.397 302ZM371.227 304.96C371.453 304.96 371.63 304.867 371.757 304.68C371.89 304.493 371.957 304.217 371.957 303.85C371.957 303.483 371.89 303.207 371.757 303.02C371.63 302.833 371.453 302.74 371.227 302.74C371.007 302.74 370.83 302.837 370.697 303.03C370.563 303.217 370.497 303.49 370.497 303.85C370.497 304.21 370.563 304.487 370.697 304.68C370.83 304.867 371.007 304.96 371.227 304.96ZM375.977 309.08C375.643 309.08 375.343 309.003 375.077 308.85C374.817 308.69 374.613 308.463 374.467 308.17C374.32 307.877 374.247 307.537 374.247 307.15C374.247 306.763 374.32 306.423 374.467 306.13C374.613 305.837 374.817 305.613 375.077 305.46C375.343 305.3 375.643 305.22 375.977 305.22C376.49 305.22 376.907 305.397 377.227 305.75C377.553 306.097 377.717 306.563 377.717 307.15C377.717 307.737 377.553 308.207 377.227 308.56C376.907 308.907 376.49 309.08 375.977 309.08ZM375.977 308.26C376.203 308.26 376.38 308.167 376.507 307.98C376.64 307.787 376.707 307.51 376.707 307.15C376.707 306.79 376.64 306.517 376.507 306.33C376.38 306.137 376.203 306.04 375.977 306.04C375.757 306.04 375.58 306.133 375.447 306.32C375.313 306.507 375.247 306.783 375.247 307.15C375.247 307.517 375.313 307.793 375.447 307.98C375.58 308.167 375.757 308.26 375.977 308.26ZM385.878 304.9H383.118V309H381.568V303.62H385.878V304.9ZM389 309.08C388.434 309.08 387.924 308.963 387.47 308.73C387.024 308.49 386.674 308.16 386.42 307.74C386.167 307.32 386.04 306.843 386.04 306.31C386.04 305.777 386.167 305.3 386.42 304.88C386.674 304.46 387.024 304.133 387.47 303.9C387.924 303.66 388.434 303.54 389 303.54C389.567 303.54 390.074 303.66 390.52 303.9C390.967 304.133 391.317 304.46 391.57 304.88C391.824 305.3 391.95 305.777 391.95 306.31C391.95 306.843 391.824 307.32 391.57 307.74C391.317 308.16 390.967 308.49 390.52 308.73C390.074 308.963 389.567 309.08 389 309.08ZM389 307.8C389.4 307.8 389.727 307.667 389.98 307.4C390.24 307.127 390.37 306.763 390.37 306.31C390.37 305.857 390.24 305.497 389.98 305.23C389.727 304.957 389.4 304.82 389 304.82C388.6 304.82 388.27 304.957 388.01 305.23C387.75 305.497 387.62 305.857 387.62 306.31C387.62 306.763 387.75 307.127 388.01 307.4C388.27 307.667 388.6 307.8 389 307.8ZM398.975 307.72V310.16H397.525V309H393.745V310.16H392.295V307.72H392.515C392.849 307.713 393.079 307.517 393.205 307.13C393.332 306.743 393.412 306.193 393.445 305.48L393.515 303.62H398.205V307.72H398.975ZM394.855 305.59C394.835 306.137 394.792 306.583 394.725 306.93C394.665 307.277 394.549 307.54 394.375 307.72H396.645V304.9H394.885L394.855 305.59Z" fill="#44BCFF"/>
<path d="M14.18 306.32C14.5267 306.493 14.79 306.72 14.97 307C15.1567 307.28 15.25 307.603 15.25 307.97C15.25 308.403 15.1267 308.783 14.88 309.11C14.6333 309.43 14.2867 309.68 13.84 309.86C13.3933 310.033 12.8767 310.12 12.29 310.12C11.7033 310.12 11.1867 310.033 10.74 309.86C10.3 309.68 9.95667 309.43 9.71 309.11C9.47 308.783 9.35 308.403 9.35 307.97C9.35 307.603 9.44 307.28 9.62 307C9.80667 306.72 10.07 306.493 10.41 306.32C10.15 306.16 9.95 305.96 9.81 305.72C9.67 305.473 9.6 305.193 9.6 304.88C9.6 304.473 9.71333 304.12 9.94 303.82C10.1667 303.52 10.4833 303.29 10.89 303.13C11.2967 302.963 11.7633 302.88 12.29 302.88C12.8233 302.88 13.2933 302.963 13.7 303.13C14.1133 303.29 14.4333 303.52 14.66 303.82C14.8867 304.12 15 304.473 15 304.88C15 305.193 14.93 305.473 14.79 305.72C14.65 305.96 14.4467 306.16 14.18 306.32ZM12.29 304.07C11.9633 304.07 11.7 304.15 11.5 304.31C11.3067 304.463 11.21 304.677 11.21 304.95C11.21 305.217 11.3067 305.427 11.5 305.58C11.6933 305.733 11.9567 305.81 12.29 305.81C12.6233 305.81 12.89 305.733 13.09 305.58C13.29 305.427 13.39 305.217 13.39 304.95C13.39 304.677 13.29 304.463 13.09 304.31C12.89 304.15 12.6233 304.07 12.29 304.07ZM12.29 308.93C12.6967 308.93 13.0167 308.84 13.25 308.66C13.49 308.473 13.61 308.227 13.61 307.92C13.61 307.613 13.49 307.37 13.25 307.19C13.0167 307.01 12.6967 306.92 12.29 306.92C11.89 306.92 11.5733 307.01 11.34 307.19C11.1067 307.37 10.99 307.613 10.99 307.92C10.99 308.233 11.1067 308.48 11.34 308.66C11.5733 308.84 11.89 308.93 12.29 308.93ZM18.3916 305.63C19.3782 305.63 20.1049 305.827 20.5716 306.22C21.0449 306.613 21.2816 307.14 21.2816 307.8C21.2816 308.227 21.1749 308.617 20.9616 308.97C20.7482 309.317 20.4216 309.597 19.9816 309.81C19.5482 310.017 19.0116 310.12 18.3716 310.12C17.8782 310.12 17.3916 310.057 16.9116 309.93C16.4382 309.797 16.0349 309.61 15.7016 309.37L16.3416 308.13C16.6082 308.33 16.9149 308.487 17.2616 308.6C17.6082 308.707 17.9649 308.76 18.3316 308.76C18.7382 308.76 19.0582 308.68 19.2916 308.52C19.5249 308.36 19.6416 308.137 19.6416 307.85C19.6416 307.55 19.5182 307.323 19.2716 307.17C19.0316 307.017 18.6116 306.94 18.0116 306.94H16.2216L16.5816 303H20.8516V304.3H17.9316L17.8216 305.63H18.3916ZM23.4612 306.78C22.9478 306.78 22.5278 306.607 22.2012 306.26C21.8812 305.907 21.7212 305.437 21.7212 304.85C21.7212 304.263 21.8812 303.797 22.2012 303.45C22.5278 303.097 22.9478 302.92 23.4612 302.92C23.9745 302.92 24.3912 303.097 24.7112 303.45C25.0312 303.797 25.1912 304.263 25.1912 304.85C25.1912 305.437 25.0312 305.907 24.7112 306.26C24.3912 306.607 23.9745 306.78 23.4612 306.78ZM27.6312 303H28.8212L24.0412 310H22.8512L27.6312 303ZM23.4612 305.96C23.6878 305.96 23.8645 305.867 23.9912 305.68C24.1245 305.493 24.1912 305.217 24.1912 304.85C24.1912 304.483 24.1245 304.207 23.9912 304.02C23.8645 303.833 23.6878 303.74 23.4612 303.74C23.2412 303.74 23.0645 303.837 22.9312 304.03C22.7978 304.217 22.7312 304.49 22.7312 304.85C22.7312 305.21 22.7978 305.487 22.9312 305.68C23.0645 305.867 23.2412 305.96 23.4612 305.96ZM28.2112 310.08C27.8778 310.08 27.5778 310.003 27.3112 309.85C27.0512 309.69 26.8478 309.463 26.7012 309.17C26.5545 308.877 26.4812 308.537 26.4812 308.15C26.4812 307.763 26.5545 307.423 26.7012 307.13C26.8478 306.837 27.0512 306.613 27.3112 306.46C27.5778 306.3 27.8778 306.22 28.2112 306.22C28.7245 306.22 29.1412 306.397 29.4612 306.75C29.7878 307.097 29.9512 307.563 29.9512 308.15C29.9512 308.737 29.7878 309.207 29.4612 309.56C29.1412 309.907 28.7245 310.08 28.2112 310.08ZM28.2112 309.26C28.4378 309.26 28.6145 309.167 28.7412 308.98C28.8745 308.787 28.9412 308.51 28.9412 308.15C28.9412 307.79 28.8745 307.517 28.7412 307.33C28.6145 307.137 28.4378 307.04 28.2112 307.04C27.9912 307.04 27.8145 307.133 27.6812 307.32C27.5478 307.507 27.4812 307.783 27.4812 308.15C27.4812 308.517 27.5478 308.793 27.6812 308.98C27.8145 309.167 27.9912 309.26 28.2112 309.26ZM39.0527 310V306.78L37.4427 309.48H36.7827L35.2127 306.77V310H33.8027V304.62H35.4327L37.1527 307.73L38.9827 304.62H40.4427L40.4627 310H39.0527ZM47.187 307.33C47.187 307.35 47.177 307.49 47.157 307.75H43.087C43.1604 308.083 43.3337 308.347 43.607 308.54C43.8804 308.733 44.2204 308.83 44.627 308.83C44.907 308.83 45.1537 308.79 45.367 308.71C45.587 308.623 45.7904 308.49 45.977 308.31L46.807 309.21C46.3004 309.79 45.5604 310.08 44.587 310.08C43.9804 310.08 43.4437 309.963 42.977 309.73C42.5104 309.49 42.1504 309.16 41.897 308.74C41.6437 308.32 41.517 307.843 41.517 307.31C41.517 306.783 41.6404 306.31 41.887 305.89C42.1404 305.463 42.4837 305.133 42.917 304.9C43.357 304.66 43.847 304.54 44.387 304.54C44.9137 304.54 45.3904 304.653 45.817 304.88C46.2437 305.107 46.577 305.433 46.817 305.86C47.0637 306.28 47.187 306.77 47.187 307.33ZM44.397 305.72C44.0437 305.72 43.747 305.82 43.507 306.02C43.267 306.22 43.1204 306.493 43.067 306.84H45.717C45.6637 306.5 45.517 306.23 45.277 306.03C45.037 305.823 44.7437 305.72 44.397 305.72ZM50.9428 310.08C50.3695 310.08 49.8528 309.963 49.3928 309.73C48.9395 309.49 48.5828 309.16 48.3228 308.74C48.0695 308.32 47.9428 307.843 47.9428 307.31C47.9428 306.777 48.0695 306.3 48.3228 305.88C48.5828 305.46 48.9395 305.133 49.3928 304.9C49.8528 304.66 50.3695 304.54 50.9428 304.54C51.5095 304.54 52.0028 304.66 52.4228 304.9C52.8495 305.133 53.1595 305.47 53.3528 305.91L52.1428 306.56C51.8628 306.067 51.4595 305.82 50.9328 305.82C50.5261 305.82 50.1895 305.953 49.9228 306.22C49.6561 306.487 49.5228 306.85 49.5228 307.31C49.5228 307.77 49.6561 308.133 49.9228 308.4C50.1895 308.667 50.5261 308.8 50.9328 308.8C51.4661 308.8 51.8695 308.553 52.1428 308.06L53.3528 308.72C53.1595 309.147 52.8495 309.48 52.4228 309.72C52.0028 309.96 51.5095 310.08 50.9428 310.08ZM58.9441 304.62V310H57.5541V308.46H56.4041L55.3841 310H53.7241L54.9541 308.24C54.5807 308.093 54.2941 307.883 54.0941 307.61C53.9007 307.33 53.8041 306.993 53.8041 306.6C53.8041 305.967 54.0307 305.48 54.4841 305.14C54.9441 304.793 55.5741 304.62 56.3741 304.62H58.9441ZM56.4041 305.89C56.0707 305.89 55.8174 305.95 55.6441 306.07C55.4774 306.19 55.3941 306.383 55.3941 306.65C55.3941 306.917 55.4741 307.113 55.6341 307.24C55.8007 307.36 56.0507 307.42 56.3841 307.42H57.5541V305.89H56.4041ZM66.5034 308.72V311.18H65.0534V310H60.4434V304.62H61.9934V308.72H64.1634V304.62H65.7234V308.72H66.5034Z" fill="#44BCFF"/>
<path d="M314.864 4H328L324.136 8H311L314.864 4Z" fill="#44BCFF"/>
</svg>
