<svg width="415" height="373" viewBox="0 0 415 373" fill="none" xmlns="http://www.w3.org/2000/svg">
<path d="M1 33.5V355V356L17.5 372.5H112.5L121 364H142L148 370.5H185.5L197 358.5H287L298.5 370.5H398.5L413 355L414 29L395 10.5H275L265.5 1H223.5L214 10.5H24L1 33.5Z" fill="#FCFCFC" fill-opacity="0.68" stroke="#217AFF" stroke-opacity="0.2"/>
<path d="M14.5 349H10.5L21.5 361H25.5L14.5 349Z" fill="#F79A2D"/>
<path d="M50.5 349H46.5L57.5 361H61.5L50.5 349Z" fill="#F79A2D"/>
<path d="M32.5 349H28.5L39.5 361H43.5L32.5 349Z" fill="#F79A2D"/>
<path d="M68.5 349H64.5L75.5 361H79.5L68.5 349Z" fill="#F79A2D"/>
<path d="M98.5 349H94.5L105.5 361H109.5L98.5 349Z" fill="#F79A2D" fill-opacity="0.2"/>
<path d="M20.5 349H16.5L27.5 361H31.5L20.5 349Z" fill="#F79A2D"/>
<path d="M56.5 349H52.5L63.5 361H67.5L56.5 349Z" fill="#F79A2D"/>
<path d="M86.5 349H82.5L93.5 361H97.5L86.5 349Z" fill="#F79A2D" fill-opacity="0.2"/>
<path d="M38.5 349H34.5L45.5 361H49.5L38.5 349Z" fill="#F79A2D"/>
<path d="M74.5 349H70.5L81.5 361H85.5L74.5 349Z" fill="#F79A2D"/>
<path d="M26.5 349H22.5L33.5 361H37.5L26.5 349Z" fill="#F79A2D"/>
<path d="M62.5 349H58.5L69.5 361H73.5L62.5 349Z" fill="#F79A2D"/>
<path d="M92.5 349H88.5L99.5 361H103.5L92.5 349Z" fill="#F79A2D" fill-opacity="0.2"/>
<path d="M44.5 349H40.5L51.5 361H55.5L44.5 349Z" fill="#F79A2D"/>
<path d="M80.5 349H76.5L87.5 361H91.5L80.5 349Z" fill="#F79A2D"/>
<path d="M14.68 339.32C15.0267 339.493 15.29 339.72 15.47 340C15.6567 340.28 15.75 340.603 15.75 340.97C15.75 341.403 15.6267 341.783 15.38 342.11C15.1333 342.43 14.7867 342.68 14.34 342.86C13.8933 343.033 13.3767 343.12 12.79 343.12C12.2033 343.12 11.6867 343.033 11.24 342.86C10.8 342.68 10.4567 342.43 10.21 342.11C9.97 341.783 9.85 341.403 9.85 340.97C9.85 340.603 9.94 340.28 10.12 340C10.3067 339.72 10.57 339.493 10.91 339.32C10.65 339.16 10.45 338.96 10.31 338.72C10.17 338.473 10.1 338.193 10.1 337.88C10.1 337.473 10.2133 337.12 10.44 336.82C10.6667 336.52 10.9833 336.29 11.39 336.13C11.7967 335.963 12.2633 335.88 12.79 335.88C13.3233 335.88 13.7933 335.963 14.2 336.13C14.6133 336.29 14.9333 336.52 15.16 336.82C15.3867 337.12 15.5 337.473 15.5 337.88C15.5 338.193 15.43 338.473 15.29 338.72C15.15 338.96 14.9467 339.16 14.68 339.32ZM12.79 337.07C12.4633 337.07 12.2 337.15 12 337.31C11.8067 337.463 11.71 337.677 11.71 337.95C11.71 338.217 11.8067 338.427 12 338.58C12.1933 338.733 12.4567 338.81 12.79 338.81C13.1233 338.81 13.39 338.733 13.59 338.58C13.79 338.427 13.89 338.217 13.89 337.95C13.89 337.677 13.79 337.463 13.59 337.31C13.39 337.15 13.1233 337.07 12.79 337.07ZM12.79 341.93C13.1967 341.93 13.5167 341.84 13.75 341.66C13.99 341.473 14.11 341.227 14.11 340.92C14.11 340.613 13.99 340.37 13.75 340.19C13.5167 340.01 13.1967 339.92 12.79 339.92C12.39 339.92 12.0733 340.01 11.84 340.19C11.6067 340.37 11.49 340.613 11.49 340.92C11.49 341.233 11.6067 341.48 11.84 341.66C12.0733 341.84 12.39 341.93 12.79 341.93ZM18.8916 338.63C19.8782 338.63 20.6049 338.827 21.0716 339.22C21.5449 339.613 21.7816 340.14 21.7816 340.8C21.7816 341.227 21.6749 341.617 21.4616 341.97C21.2482 342.317 20.9216 342.597 20.4816 342.81C20.0482 343.017 19.5116 343.12 18.8716 343.12C18.3782 343.12 17.8916 343.057 17.4116 342.93C16.9382 342.797 16.5349 342.61 16.2016 342.37L16.8416 341.13C17.1082 341.33 17.4149 341.487 17.7616 341.6C18.1082 341.707 18.4649 341.76 18.8316 341.76C19.2382 341.76 19.5582 341.68 19.7916 341.52C20.0249 341.36 20.1416 341.137 20.1416 340.85C20.1416 340.55 20.0182 340.323 19.7716 340.17C19.5316 340.017 19.1116 339.94 18.5116 339.94H16.7216L17.0816 336H21.3516V337.3H18.4316L18.3216 338.63H18.8916ZM23.9612 339.78C23.4478 339.78 23.0278 339.607 22.7012 339.26C22.3812 338.907 22.2212 338.437 22.2212 337.85C22.2212 337.263 22.3812 336.797 22.7012 336.45C23.0278 336.097 23.4478 335.92 23.9612 335.92C24.4745 335.92 24.8912 336.097 25.2112 336.45C25.5312 336.797 25.6912 337.263 25.6912 337.85C25.6912 338.437 25.5312 338.907 25.2112 339.26C24.8912 339.607 24.4745 339.78 23.9612 339.78ZM28.1312 336H29.3212L24.5412 343H23.3512L28.1312 336ZM23.9612 338.96C24.1878 338.96 24.3645 338.867 24.4912 338.68C24.6245 338.493 24.6912 338.217 24.6912 337.85C24.6912 337.483 24.6245 337.207 24.4912 337.02C24.3645 336.833 24.1878 336.74 23.9612 336.74C23.7412 336.74 23.5645 336.837 23.4312 337.03C23.2978 337.217 23.2312 337.49 23.2312 337.85C23.2312 338.21 23.2978 338.487 23.4312 338.68C23.5645 338.867 23.7412 338.96 23.9612 338.96ZM28.7112 343.08C28.3778 343.08 28.0778 343.003 27.8112 342.85C27.5512 342.69 27.3478 342.463 27.2012 342.17C27.0545 341.877 26.9812 341.537 26.9812 341.15C26.9812 340.763 27.0545 340.423 27.2012 340.13C27.3478 339.837 27.5512 339.613 27.8112 339.46C28.0778 339.3 28.3778 339.22 28.7112 339.22C29.2245 339.22 29.6412 339.397 29.9612 339.75C30.2878 340.097 30.4512 340.563 30.4512 341.15C30.4512 341.737 30.2878 342.207 29.9612 342.56C29.6412 342.907 29.2245 343.08 28.7112 343.08ZM28.7112 342.26C28.9378 342.26 29.1145 342.167 29.2412 341.98C29.3745 341.787 29.4412 341.51 29.4412 341.15C29.4412 340.79 29.3745 340.517 29.2412 340.33C29.1145 340.137 28.9378 340.04 28.7112 340.04C28.4912 340.04 28.3145 340.133 28.1812 340.32C28.0478 340.507 27.9812 340.783 27.9812 341.15C27.9812 341.517 28.0478 341.793 28.1812 341.98C28.3145 342.167 28.4912 342.26 28.7112 342.26ZM39.5527 343V339.78L37.9427 342.48H37.2827L35.7127 339.77V343H34.3027V337.62H35.9327L37.6527 340.73L39.4827 337.62H40.9427L40.9627 343H39.5527ZM47.687 340.33C47.687 340.35 47.677 340.49 47.657 340.75H43.587C43.6604 341.083 43.8337 341.347 44.107 341.54C44.3804 341.733 44.7204 341.83 45.127 341.83C45.407 341.83 45.6537 341.79 45.867 341.71C46.087 341.623 46.2904 341.49 46.477 341.31L47.307 342.21C46.8004 342.79 46.0604 343.08 45.087 343.08C44.4804 343.08 43.9437 342.963 43.477 342.73C43.0104 342.49 42.6504 342.16 42.397 341.74C42.1437 341.32 42.017 340.843 42.017 340.31C42.017 339.783 42.1404 339.31 42.387 338.89C42.6404 338.463 42.9837 338.133 43.417 337.9C43.857 337.66 44.347 337.54 44.887 337.54C45.4137 337.54 45.8904 337.653 46.317 337.88C46.7437 338.107 47.077 338.433 47.317 338.86C47.5637 339.28 47.687 339.77 47.687 340.33ZM44.897 338.72C44.5437 338.72 44.247 338.82 44.007 339.02C43.767 339.22 43.6204 339.493 43.567 339.84H46.217C46.1637 339.5 46.017 339.23 45.777 339.03C45.537 338.823 45.2437 338.72 44.897 338.72ZM51.4428 343.08C50.8695 343.08 50.3528 342.963 49.8928 342.73C49.4395 342.49 49.0828 342.16 48.8228 341.74C48.5695 341.32 48.4428 340.843 48.4428 340.31C48.4428 339.777 48.5695 339.3 48.8228 338.88C49.0828 338.46 49.4395 338.133 49.8928 337.9C50.3528 337.66 50.8695 337.54 51.4428 337.54C52.0095 337.54 52.5028 337.66 52.9228 337.9C53.3495 338.133 53.6595 338.47 53.8528 338.91L52.6428 339.56C52.3628 339.067 51.9595 338.82 51.4328 338.82C51.0261 338.82 50.6895 338.953 50.4228 339.22C50.1561 339.487 50.0228 339.85 50.0228 340.31C50.0228 340.77 50.1561 341.133 50.4228 341.4C50.6895 341.667 51.0261 341.8 51.4328 341.8C51.9661 341.8 52.3695 341.553 52.6428 341.06L53.8528 341.72C53.6595 342.147 53.3495 342.48 52.9228 342.72C52.5028 342.96 52.0095 343.08 51.4428 343.08ZM59.4441 337.62V343H58.0541V341.46H56.9041L55.8841 343H54.2241L55.4541 341.24C55.0807 341.093 54.7941 340.883 54.5941 340.61C54.4007 340.33 54.3041 339.993 54.3041 339.6C54.3041 338.967 54.5307 338.48 54.9841 338.14C55.4441 337.793 56.0741 337.62 56.8741 337.62H59.4441ZM56.9041 338.89C56.5707 338.89 56.3174 338.95 56.1441 339.07C55.9774 339.19 55.8941 339.383 55.8941 339.65C55.8941 339.917 55.9741 340.113 56.1341 340.24C56.3007 340.36 56.5507 340.42 56.8841 340.42H58.0541V338.89H56.9041ZM67.0034 341.72V344.18H65.5534V343H60.9434V337.62H62.4934V341.72H64.6634V337.62H66.2234V341.72H67.0034Z" fill="#F79A2D"/>
<path d="M400.5 349H404.5L393.5 361H389.5L400.5 349Z" fill="#F79A2D"/>
<path d="M364.5 349H368.5L357.5 361H353.5L364.5 349Z" fill="#F79A2D"/>
<path d="M382.5 349H386.5L375.5 361H371.5L382.5 349Z" fill="#F79A2D"/>
<path d="M346.5 349H350.5L339.5 361H335.5L346.5 349Z" fill="#F79A2D" fill-opacity="0.2"/>
<path d="M316.5 349H320.5L309.5 361H305.5L316.5 349Z" fill="#F79A2D" fill-opacity="0.2"/>
<path d="M394.5 349H398.5L387.5 361H383.5L394.5 349Z" fill="#F79A2D"/>
<path d="M358.5 349H362.5L351.5 361H347.5L358.5 349Z" fill="#F79A2D"/>
<path d="M328.5 349H332.5L321.5 361H317.5L328.5 349Z" fill="#F79A2D" fill-opacity="0.2"/>
<path d="M376.5 349H380.5L369.5 361H365.5L376.5 349Z" fill="#F79A2D"/>
<path d="M340.5 349H344.5L333.5 361H329.5L340.5 349Z" fill="#F79A2D" fill-opacity="0.2"/>
<path d="M388.5 349H392.5L381.5 361H377.5L388.5 349Z" fill="#F79A2D"/>
<path d="M352.5 349H356.5L345.5 361H341.5L352.5 349Z" fill="#F79A2D"/>
<path d="M322.5 349H326.5L315.5 361H311.5L322.5 349Z" fill="#F79A2D" fill-opacity="0.2"/>
<path d="M370.5 349H374.5L363.5 361H359.5L370.5 349Z" fill="#F79A2D"/>
<path d="M334.5 349H338.5L327.5 361H323.5L334.5 349Z" fill="#F79A2D" fill-opacity="0.2"/>
<path d="M361.26 338.61C361.707 338.61 362.113 338.7 362.48 338.88C362.847 339.06 363.137 339.317 363.35 339.65C363.563 339.977 363.67 340.357 363.67 340.79C363.67 341.257 363.553 341.667 363.32 342.02C363.087 342.373 362.767 342.647 362.36 342.84C361.96 343.027 361.513 343.12 361.02 343.12C360.04 343.12 359.273 342.82 358.72 342.22C358.167 341.62 357.89 340.763 357.89 339.65C357.89 338.857 358.04 338.177 358.34 337.61C358.64 337.043 359.057 336.613 359.59 336.32C360.13 336.027 360.753 335.88 361.46 335.88C361.833 335.88 362.19 335.923 362.53 336.01C362.877 336.09 363.17 336.207 363.41 336.36L362.81 337.55C362.463 337.317 362.027 337.2 361.5 337.2C360.907 337.2 360.437 337.373 360.09 337.72C359.743 338.067 359.557 338.57 359.53 339.23C359.943 338.817 360.52 338.61 361.26 338.61ZM360.93 341.91C361.277 341.91 361.557 341.817 361.77 341.63C361.99 341.443 362.1 341.19 362.1 340.87C362.1 340.55 361.99 340.297 361.77 340.11C361.557 339.917 361.27 339.82 360.91 339.82C360.557 339.82 360.267 339.92 360.04 340.12C359.813 340.313 359.7 340.563 359.7 340.87C359.7 341.177 359.81 341.427 360.03 341.62C360.25 341.813 360.55 341.91 360.93 341.91ZM366.657 338.63C367.644 338.63 368.371 338.827 368.837 339.22C369.311 339.613 369.547 340.14 369.547 340.8C369.547 341.227 369.441 341.617 369.227 341.97C369.014 342.317 368.687 342.597 368.247 342.81C367.814 343.017 367.277 343.12 366.637 343.12C366.144 343.12 365.657 343.057 365.177 342.93C364.704 342.797 364.301 342.61 363.967 342.37L364.607 341.13C364.874 341.33 365.181 341.487 365.527 341.6C365.874 341.707 366.231 341.76 366.597 341.76C367.004 341.76 367.324 341.68 367.557 341.52C367.791 341.36 367.907 341.137 367.907 340.85C367.907 340.55 367.784 340.323 367.537 340.17C367.297 340.017 366.877 339.94 366.277 339.94H364.487L364.847 336H369.117V337.3H366.197L366.087 338.63H366.657ZM371.727 339.78C371.213 339.78 370.793 339.607 370.467 339.26C370.147 338.907 369.987 338.437 369.987 337.85C369.987 337.263 370.147 336.797 370.467 336.45C370.793 336.097 371.213 335.92 371.727 335.92C372.24 335.92 372.657 336.097 372.977 336.45C373.297 336.797 373.457 337.263 373.457 337.85C373.457 338.437 373.297 338.907 372.977 339.26C372.657 339.607 372.24 339.78 371.727 339.78ZM375.897 336H377.087L372.307 343H371.117L375.897 336ZM371.727 338.96C371.953 338.96 372.13 338.867 372.257 338.68C372.39 338.493 372.457 338.217 372.457 337.85C372.457 337.483 372.39 337.207 372.257 337.02C372.13 336.833 371.953 336.74 371.727 336.74C371.507 336.74 371.33 336.837 371.197 337.03C371.063 337.217 370.997 337.49 370.997 337.85C370.997 338.21 371.063 338.487 371.197 338.68C371.33 338.867 371.507 338.96 371.727 338.96ZM376.477 343.08C376.143 343.08 375.843 343.003 375.577 342.85C375.317 342.69 375.113 342.463 374.967 342.17C374.82 341.877 374.747 341.537 374.747 341.15C374.747 340.763 374.82 340.423 374.967 340.13C375.113 339.837 375.317 339.613 375.577 339.46C375.843 339.3 376.143 339.22 376.477 339.22C376.99 339.22 377.407 339.397 377.727 339.75C378.053 340.097 378.217 340.563 378.217 341.15C378.217 341.737 378.053 342.207 377.727 342.56C377.407 342.907 376.99 343.08 376.477 343.08ZM376.477 342.26C376.703 342.26 376.88 342.167 377.007 341.98C377.14 341.787 377.207 341.51 377.207 341.15C377.207 340.79 377.14 340.517 377.007 340.33C376.88 340.137 376.703 340.04 376.477 340.04C376.257 340.04 376.08 340.133 375.947 340.32C375.813 340.507 375.747 340.783 375.747 341.15C375.747 341.517 375.813 341.793 375.947 341.98C376.08 342.167 376.257 342.26 376.477 342.26ZM386.378 338.9H383.618V343H382.068V337.62H386.378V338.9ZM389.5 343.08C388.934 343.08 388.424 342.963 387.97 342.73C387.524 342.49 387.174 342.16 386.92 341.74C386.667 341.32 386.54 340.843 386.54 340.31C386.54 339.777 386.667 339.3 386.92 338.88C387.174 338.46 387.524 338.133 387.97 337.9C388.424 337.66 388.934 337.54 389.5 337.54C390.067 337.54 390.574 337.66 391.02 337.9C391.467 338.133 391.817 338.46 392.07 338.88C392.324 339.3 392.45 339.777 392.45 340.31C392.45 340.843 392.324 341.32 392.07 341.74C391.817 342.16 391.467 342.49 391.02 342.73C390.574 342.963 390.067 343.08 389.5 343.08ZM389.5 341.8C389.9 341.8 390.227 341.667 390.48 341.4C390.74 341.127 390.87 340.763 390.87 340.31C390.87 339.857 390.74 339.497 390.48 339.23C390.227 338.957 389.9 338.82 389.5 338.82C389.1 338.82 388.77 338.957 388.51 339.23C388.25 339.497 388.12 339.857 388.12 340.31C388.12 340.763 388.25 341.127 388.51 341.4C388.77 341.667 389.1 341.8 389.5 341.8ZM399.475 341.72V344.16H398.025V343H394.245V344.16H392.795V341.72H393.015C393.349 341.713 393.579 341.517 393.705 341.13C393.832 340.743 393.912 340.193 393.945 339.48L394.015 337.62H398.705V341.72H399.475ZM395.355 339.59C395.335 340.137 395.292 340.583 395.225 340.93C395.165 341.277 395.049 341.54 394.875 341.72H397.145V338.9H395.385L395.355 339.59Z" fill="#F79A2D"/>
<path d="M231.81 5H260L256.19 9H228L231.81 5Z" fill="#CDD6EE"/>
<path d="M231.864 5H245L241.136 9H228L231.864 5Z" fill="#217AFF"/>
</svg>
