<svg width="1920" height="105" viewBox="0 0 1920 105" fill="none" xmlns="http://www.w3.org/2000/svg">
<g opacity="0.68">
<path d="M48 15H6H-20V123.5C-20 145.5 1715.5 132.667 1968.5 123.5L1973.5 55.5H1824.5L1816.5 62.5H1798.5L1772 92.5H1738.5H625L594 61.5H541.5L529 49H489.5L477 61.5H411.5L365 15H155L141 1H62L48 15Z" fill="#0B1B51"/>
<path d="M48 15H6H-20V123.5C-20 145.5 1715.5 132.667 1968.5 123.5L1973.5 55.5H1824.5L1816.5 62.5H1798.5L1772 92.5H1738.5H625L594 61.5H541.5L529 49H489.5L477 61.5H411.5L365 15H155L141 1H62L48 15Z" fill="url(#paint0_linear)"/>
<path d="M1824.17 55.1237L1816.31 62H1798.5H1798.27L1798.13 62.169L1771.77 92H1738.5H625.207L594.354 61.1464L594.207 61H594H541.707L529.354 48.6464L529.207 48.5H529H489.5H489.293L489.146 48.6464L476.793 61H411.707L365.354 14.6464L365.207 14.5H365H155.207L141.354 0.646447L141.207 0.5H141H62H61.7929L61.6464 0.646447L47.7929 14.5H6H-20H-20.5V15V123.5C-20.5 123.895 -20.2558 124.193 -19.9954 124.4C-19.7283 124.613 -19.3605 124.8 -18.9234 124.971C-18.044 125.316 -16.7607 125.641 -15.1064 125.953C-11.7897 126.578 -6.88153 127.168 -0.491129 127.724C12.2949 128.838 31.0718 129.824 55.0483 130.692C103.004 132.429 171.791 133.697 255.12 134.57C421.779 136.318 646.626 136.49 879.377 135.688C1344.87 134.083 1842.01 128.583 1968.52 124L1968.97 123.983L1969 123.537L1974 55.5367L1974.04 55H1973.5H1824.5H1824.31L1824.17 55.1237Z" stroke="#44BCFF" stroke-opacity="0.4"/>
</g>
<defs>
<linearGradient id="paint0_linear" x1="368" y1="-86" x2="359" y2="68" gradientUnits="userSpaceOnUse">
<stop stop-color="#44BCFF" stop-opacity="0.46"/>
<stop offset="1" stop-color="#44BCFF" stop-opacity="0"/>
</linearGradient>
</defs>
</svg>
