<svg width="185" height="48" viewBox="0 0 185 48" fill="none" xmlns="http://www.w3.org/2000/svg">
<path fill-rule="evenodd" clip-rule="evenodd" d="M34.5404 29.4409C34.9417 29.4637 35.3398 29.5387 35.7216 29.6529C35.9272 29.7182 35.9826 29.6921 35.9794 29.4833C35.9728 29.108 35.9794 28.7393 35.9794 28.3673C35.9761 27.8975 35.6694 27.6723 35.3007 27.47C34.7166 27.1502 34.1227 26.8435 33.5615 26.4715C32.6544 25.8614 32.1486 24.9706 31.744 24.0145C31.3361 23.0748 31.248 22.0665 31.1534 21.0517C31.0457 19.8281 31.0555 18.6077 31.1077 17.3939C31.1958 15.3937 31.2872 13.3902 31.235 11.39C31.1893 9.88251 31.049 8.36848 30.4225 6.97193C29.8515 5.69283 28.7747 4.77267 27.277 4.76615C27.1823 4.76615 27.0551 4.68783 26.9964 4.88361C26.9409 5.05655 27.0714 5.07939 27.1334 5.17076C27.414 5.57537 27.7077 5.97019 27.9459 6.39764C28.3733 7.14486 28.8236 7.88556 28.9672 8.75352C29.0129 9.05045 29.0977 9.34085 29.0945 9.64431C29.0847 9.97714 29.0945 10.31 29.0879 10.6428C29.039 14.5421 29.2185 18.4381 29.1956 22.3406C29.1891 22.8072 29.2968 23.2901 29.2511 23.76C29.1728 24.6182 29.2119 25.5057 28.7747 26.2986C28.4517 26.8761 27.4467 28.2727 25.1006 28.5598C23.7986 28.7197 22.5293 28.7654 21.3775 28.0835C20.3105 27.4537 19.8765 26.4356 19.8994 25.1174C20.3203 25.5318 20.6923 25.9136 21.1458 26.1909C22.5391 27.0556 23.9455 27.2155 25.2637 26.3541C25.7988 26.0017 25.9881 25.4274 26.1382 24.8433C26.4417 23.7241 26.4351 22.569 26.3699 21.4302C26.2198 18.9503 26.3144 16.477 26.3013 14.0037C26.2916 12.8877 26.2589 11.775 26.1839 10.6656C26.1121 9.44853 26.024 8.21839 25.6324 7.04371C25.5443 6.77615 25.4105 6.5249 25.2768 6.27691C25.1952 6.14313 25.1071 6.06481 24.9896 6.29975C24.6503 6.95561 24.4871 7.65063 24.3664 8.36196C24.0629 10.1077 24.0956 16.3073 24.0303 17.6419C23.9814 18.6763 24.0009 19.7074 23.9814 20.745C23.952 21.9164 24.2293 23.0356 24.6633 24.1157C24.8069 24.4648 24.9439 24.8237 25.081 25.1761C25.1038 25.2349 25.1267 25.3099 25.0712 25.3621C25.0059 25.4241 24.957 25.3425 24.9015 25.323C23.6029 24.8531 22.6827 23.9721 22.1378 22.6963C21.7299 21.7565 21.5831 20.7646 21.4917 19.753C21.3318 18.0008 21.4982 16.2421 21.3971 14.4931C21.3057 12.8584 21.3383 11.2269 21.3318 9.5921C21.3318 8.25102 21.6222 6.96866 22.2226 5.77115C22.4608 5.28496 22.7904 4.84772 23.0775 4.38764C23.1689 4.23102 23.1754 4.11029 23.0384 3.93735C22.6011 3.36632 22.017 3.02697 21.3808 2.7692C20.5259 2.42006 19.6285 2.26996 18.6986 2.18512C17.0671 2.03176 15.5335 2.32543 14.0912 3.0335C12.525 3.80683 11.3079 4.99455 10.4269 6.50858C10.3094 6.71089 9.95052 7.46464 9.85589 7.65715C9.20329 9.0635 8.98793 10.5579 9.11193 12.0818C9.22613 13.4196 9.44475 14.7541 10.2997 15.8766C10.7499 16.4737 11.3764 16.849 11.9899 17.2405C12.1596 17.3547 12.3912 17.4265 12.4891 17.7267C11.7549 17.6484 11.0665 17.5995 10.4008 17.3776C8.41365 16.6956 7.29118 15.2273 6.69732 13.2891C6.3906 12.2906 6.24702 11.2628 6.30576 10.2284C6.37754 8.85141 6.62879 7.50379 7.23571 6.24754C7.97641 4.7172 9.10214 3.5621 10.5346 2.68762C11.8398 1.88493 13.2494 1.33022 14.7471 1.00392C15.5922 0.817932 16.4439 0.73962 17.3086 0.661309C18.8878 0.524263 20.4182 0.759198 21.9355 1.16381C22.4412 1.29759 22.898 1.58473 23.3516 1.85882C23.6485 2.03829 23.9553 2.21123 24.2718 2.34175C24.771 2.55384 25.2311 2.4168 25.6716 2.12965C26.3274 1.70546 26.9866 1.26822 27.7599 1.05939C28.419 0.876666 29.0814 0.798354 29.7568 0.736357C30.9087 0.635205 32.0083 0.817932 33.0818 1.19318C34.1554 1.57168 35.0951 2.16881 35.9467 2.92582C37.3041 4.11681 37.9013 5.6602 38.2178 7.38306C38.5506 9.22339 38.3646 11.0768 38.4658 12.9236C38.5702 15.0902 38.6061 23.7894 38.8541 24.6214C38.965 24.9999 39.1543 25.0946 39.4773 24.8727C39.9667 24.5366 40.3354 24.0798 40.7042 23.6164C41.3796 22.7615 41.5689 21.7696 41.67 20.7189C41.7744 19.6552 41.7842 18.5947 41.719 17.5375C41.5786 15.3382 41.5167 13.139 41.5852 10.9397C41.657 8.7372 41.9898 6.56731 43.109 4.61605C43.9998 3.07266 45.2887 1.98934 46.9756 1.3759C48.3526 0.873403 49.7622 0.661309 51.2077 0.749409C52.216 0.811406 53.221 1.02024 54.115 1.50642C54.8688 1.92082 55.6421 2.33196 56.2393 2.9715C57.3356 4.14618 58.1057 5.51663 58.4352 7.08939C58.9443 9.504 58.7876 11.8664 57.6423 14.0885C56.7352 15.8505 55.2604 16.9436 53.3841 17.5375C52.5847 17.7887 51.769 17.9454 50.9304 17.9519C50.5323 17.9584 50.1375 17.9617 49.7426 17.9715C49.1879 17.9258 48.6234 17.8964 48.0948 17.6974C47.9023 17.6191 47.5662 17.5995 47.6021 17.3515C47.638 17.1296 47.9708 17.1688 48.1731 17.1459C49.1455 17.0382 50.1081 16.9338 51.0283 16.5782C52.3922 16.0528 53.3874 15.1 54.1118 13.8666C54.7448 12.7964 55.045 11.6119 55.1723 10.3752C55.3126 9.00477 55.2995 7.65389 54.8394 6.33891C54.1738 4.43985 52.8882 3.24886 50.8684 2.89645C50.1407 2.76593 49.4229 2.66152 48.6952 2.84751C47.7816 3.08571 47.1192 3.65999 46.6004 4.4268C45.7487 5.70262 45.3409 7.15139 45.0146 8.61647C44.7992 9.5921 44.7274 10.5808 44.672 11.5793C44.6132 12.3885 44.5839 13.1977 44.623 14.0037C44.7862 17.8344 44.6165 21.6684 44.7144 25.4992C44.7633 27.3232 44.8025 29.157 44.8808 30.981C45.0048 33.9079 44.946 36.8315 44.9265 39.7584C44.9199 40.8156 44.7633 41.8957 44.2804 42.8909C43.9476 43.5794 44.052 43.7164 44.7209 44.2385C45.6378 44.9564 46.7537 45.2141 47.8664 45.4295C49.3087 45.7068 50.777 45.8863 52.2486 45.8276C53.4951 45.7754 54.735 45.5861 55.8607 45.0118C57.241 44.3103 58.0796 43.1291 58.5364 41.6705C58.8529 40.6688 59.065 39.6442 59.1205 38.5837C59.1955 37.1285 58.9573 35.7678 58.135 34.5605C57.4629 33.5848 56.5003 33.0432 55.3191 32.88C53.5669 32.6386 52.0267 33.1933 50.5975 34.1526C50.268 34.3712 49.9417 34.5996 49.5208 34.6323C50.0624 32.6516 51.4459 31.5814 53.3189 31.043C54.2129 30.7852 55.1364 30.733 56.0533 30.808C57.3095 30.9027 58.4907 31.2616 59.5381 31.9827C60.6084 32.7202 61.5416 33.611 62.1355 34.7824C62.7783 36.0484 63.0426 37.4156 62.9382 38.8317C62.8892 39.4843 62.762 40.1402 62.5499 40.7634C62.0408 42.2187 61.2936 43.5272 60.1157 44.542C59.1531 45.3708 58.0665 46.0201 56.8755 46.4671C55.3811 47.0284 53.8377 47.3514 52.2356 47.3677C51.596 47.3742 50.9597 47.3775 50.3267 47.384C48.9138 47.3416 47.5401 47.0838 46.1762 46.7282C45.1157 46.4443 44.1434 45.994 43.1971 45.4686C42.8088 45.25 42.4792 45.1782 42.0616 45.4164C40.7596 46.1376 39.3892 46.6759 37.8817 46.8228C37.6761 46.8424 37.4705 46.888 37.2585 46.8913C35.9467 46.8913 32.7066 47.3579 32.377 47.3775C31.3655 47.433 30.3442 47.4069 29.3359 47.3644C28.22 47.3188 27.1269 47.1752 26.0273 47.0023C24.9994 46.8391 24.014 46.5715 23.084 46.1082C21.2568 45.1978 20.0266 43.7752 19.5633 41.7749C19.2174 40.287 19.5372 38.9198 20.5063 37.7158C21.5896 36.3682 23.0612 35.6993 24.6894 35.3012C25.9098 34.9977 27.153 35.0075 28.3831 35.076C30.7586 35.2131 32.997 35.9048 35.144 36.9C35.4703 37.0501 35.7999 37.1937 36.1556 37.3569C36.1686 36.1267 36.1066 34.9357 35.9989 33.7382C35.9663 33.4119 35.9859 33.0726 35.9957 32.7397C36.0055 32.5831 35.9467 32.5048 35.813 32.4461C34.6187 31.9044 33.4114 31.8685 32.191 32.358C31.2154 32.7528 30.2528 33.177 29.1989 33.3466C27.8317 33.5653 26.4939 33.5457 25.2898 32.743C24.7123 32.358 24.2685 31.8424 24.0368 31.167C24.014 31.0919 23.965 31.0103 24.014 30.9484C24.0825 30.8603 24.1706 30.932 24.262 30.9549C25.019 31.1539 25.7727 31.3921 26.5428 31.5259C27.2672 31.6532 27.9524 31.3921 28.6148 31.1082C29.6263 30.6906 30.5595 30.1065 31.5874 29.7378C31.9561 29.604 32.3248 29.48 32.7164 29.4441C33.3168 29.4409 33.9269 29.4409 34.5404 29.4409ZM29.8482 38.3684C29.3261 38.5805 28.8954 38.8383 28.4745 39.158C27.4336 39.9509 27.104 40.9788 27.3781 42.2187C27.6914 43.6577 28.53 44.7345 29.8156 45.4393C30.1941 45.6448 31.496 46.0005 31.93 46.0429C32.7751 46.1115 34.0673 46.1735 34.6905 45.4328C35.4932 44.4767 35.8619 43.3379 36.074 42.1241C36.1784 41.54 36.1131 40.9494 36.2143 40.3621C36.3089 39.8335 36.2241 39.3179 35.7477 38.9394C35.1995 38.5054 34.5893 38.1791 33.9596 37.8789C32.3444 37.1023 30.6313 36.6521 28.8595 36.5215C27.2346 36.4008 25.6324 36.5509 24.138 37.3471C22.6664 38.1302 21.3514 39.9314 21.6516 41.9381C21.8702 43.3999 23.3092 45.5274 25.0842 45.8406C25.267 45.87 25.515 46.069 25.6324 45.9026C25.776 45.7101 25.5084 45.5437 25.3975 45.3871C24.5948 44.2744 24.0858 43.0965 24.3925 41.6803C24.7416 40.039 25.5606 38.7632 27.1824 38.1563C28.0699 37.8267 28.9639 37.8202 29.8482 38.3684ZM35.6433 9.06676C35.6792 8.14334 35.6009 6.98171 35.1636 5.85598C34.4392 3.99608 33.01 3.01718 31.1371 2.59952C30.2398 2.39722 29.3196 2.34827 28.3994 2.52121C27.7729 2.63542 27.1334 2.72678 26.5852 3.1216C26.4319 3.22928 26.21 3.34348 26.2589 3.5099C26.3079 3.68936 26.5624 3.63389 26.7451 3.63715C27.4956 3.64042 28.2493 3.598 28.9933 3.74809C30.4258 4.0385 31.607 4.74983 32.6054 5.81683C33.4669 6.74678 33.8943 7.83335 33.9596 9.07329C34.0314 10.4111 33.9204 11.7522 34.0346 13.09C34.139 14.2647 34.0411 15.4492 34.1162 16.6304C34.2239 18.3369 34.0411 20.0565 34.2206 21.7663C34.3087 22.6179 34.3674 23.4761 34.7362 24.2723C34.8765 24.5692 35.0853 24.8009 35.3235 24.9999C35.441 25.0978 35.6237 25.1892 35.7868 25.1239C35.9761 25.0521 35.9892 24.8759 35.9859 24.6899C35.9304 22.8725 36.0577 21.0517 35.9108 19.2342C35.826 18.2031 35.9369 17.1688 35.826 16.1311C35.7314 15.2534 35.7836 14.3593 35.7575 13.4751C35.7151 12.085 35.6204 10.708 35.6433 9.06676ZM41.6178 41.863C42.0975 36.5215 42.1268 31.2812 41.8984 25.969C41.732 26.0669 41.6276 26.1354 41.5167 26.1974C41.1218 26.4161 40.8804 26.8174 40.5051 27.0687C40.0287 27.3884 39.5001 27.594 38.9976 27.8616C38.8704 27.9268 38.7627 27.979 38.7692 28.1683C38.7888 28.6316 38.717 29.0982 38.7137 29.5518C38.6876 32.8344 38.7268 36.1202 38.6289 39.4028C38.6224 39.5431 38.6126 39.6638 38.7692 39.7747C39.6861 40.4306 40.59 41.106 41.6178 41.863ZM40.6226 43.5696C40.7107 43.4195 40.5606 43.302 40.4594 43.2302C39.8623 42.7832 39.35 42.2252 38.7137 41.8174C38.4853 41.6705 38.4038 41.7652 38.3352 41.9577C37.9469 43.0573 37.5782 44.1634 37.1704 45.2565C37.0561 45.5567 37.1932 45.5698 37.3824 45.5274C38.3777 45.2957 39.3402 44.9727 40.1658 44.3429C40.3974 44.1634 40.6552 43.9644 40.6226 43.5696Z" fill="#150035"/>
<path fill-rule="evenodd" clip-rule="evenodd" d="M13.4517 34.6715C12.6817 34.2799 11.9507 33.8949 11.21 33.536C9.58834 32.7529 7.9438 32.6843 6.27968 33.4055C5.58466 33.7024 4.91575 34.0385 4.38388 34.5801C3.66602 35.3045 3.20594 36.1823 3.04279 37.1938C2.8307 38.4696 2.98406 39.6998 3.42456 40.9266C4.00537 42.5418 4.97448 43.8666 6.34493 44.8487C6.97143 45.299 7.75454 45.5829 8.55398 45.7167C9.91138 45.9418 11.2068 45.7134 12.4043 45.0674C13.9444 44.232 14.9527 42.9627 15.2659 41.2073C15.3769 40.6003 15.4846 37.941 15.5107 37.2264C15.6836 32.6615 15.5759 17.9748 15.4748 15.198C15.4356 14.2419 15.3704 13.2826 15.4291 12.3363C15.4976 11.1486 15.4062 9.95437 15.5727 8.77317C15.7554 7.49734 16.1339 6.29656 17.0867 5.36008C17.8143 4.65201 18.7149 4.32898 19.7134 4.28982C20.1474 4.27024 21.2111 4.30287 21.2405 4.44971C21.2633 4.57044 21.1883 4.62917 21.0838 4.69117C20.7478 4.88695 20.441 5.11536 20.0984 5.30461C19.5274 5.62765 18.2059 6.39771 18.1308 8.10099C17.9514 14.7575 18.1635 33.8427 18.1308 36.7272C18.108 38.7959 18.0068 40.8777 17.2759 42.8551C16.5907 44.7084 15.3834 46.0495 13.4746 46.6858C12.3619 47.0545 11.2329 47.3025 10.0517 47.3351C9.48067 47.3547 8.91291 47.3743 8.34841 47.3939C4.94838 47.3939 3.01016 45.3676 2.0639 44.3919C0.184415 41.7587 -0.0244156 38.8905 0.00495124 37.7876C0.0506331 36.1855 0.500925 34.7172 1.56792 33.4577C2.66102 32.172 4.05432 31.4411 5.64666 30.9974C6.60271 30.7363 7.57834 30.7037 8.54419 30.7755C10.006 30.8864 11.334 31.3759 12.3651 32.4592C12.9427 33.0694 13.3506 33.7872 13.4517 34.6715Z" fill="#150035"/>
<path fill-rule="evenodd" clip-rule="evenodd" d="M34.5404 29.4408C33.927 29.444 33.3168 29.444 32.7066 29.4473C33.3168 29.3396 33.927 29.3461 34.5404 29.4408Z" fill="#150035"/>
<path d="M69.7089 2.87681C70.1983 2.79524 70.8868 2.72998 71.8527 2.72998C72.8316 2.72998 73.5299 2.91597 73.9965 3.29121C74.4435 3.64688 74.7469 4.22769 74.7469 4.91618C74.7469 5.60467 74.5185 6.18548 74.1009 6.58031C73.5592 7.08933 72.7565 7.321 71.82 7.321C71.6112 7.321 71.4252 7.31121 71.2784 7.28837V9.79761H69.7056V2.87681H69.7089ZM71.2817 6.06149C71.4154 6.09412 71.5851 6.10391 71.8135 6.10391C72.6554 6.10391 73.1774 5.67646 73.1774 4.9586C73.1774 4.31253 72.7304 3.9275 71.9375 3.9275C71.6145 3.9275 71.3959 3.96013 71.2817 3.98949V6.06149Z" fill="#150035"/>
<path d="M82.1507 6.21801C82.1507 8.51842 80.7541 9.91498 78.7049 9.91498C76.6232 9.91498 75.4061 8.34222 75.4061 6.34527C75.4061 4.24064 76.7504 2.67115 78.8224 2.67115C80.976 2.66788 82.1507 4.2798 82.1507 6.21801ZM77.08 6.30938C77.08 7.6831 77.7261 8.6522 78.7865 8.6522C79.86 8.6522 80.4735 7.63089 80.4735 6.26696C80.4735 5.00745 79.8698 3.92413 78.7767 3.92413C77.7065 3.9274 77.08 4.94871 77.08 6.30938Z" fill="#150035"/>
<path d="M88.3471 9.60173C88.0567 9.74856 87.4008 9.90518 86.5459 9.90518C84.1215 9.90518 82.8718 8.39442 82.8718 6.39747C82.8718 4.00244 84.5783 2.67114 86.7025 2.67114C87.5248 2.67114 88.148 2.83755 88.4319 2.98439L88.1089 4.2439C87.7858 4.11012 87.3388 3.98286 86.7776 3.98286C85.518 3.98286 84.5391 4.74314 84.5391 6.30285C84.5391 7.70919 85.3712 8.59346 86.7873 8.59346C87.267 8.59346 87.7989 8.48905 88.1089 8.36505L88.3471 9.60173Z" fill="#150035"/>
<path d="M94.2727 9.60173C93.9822 9.74856 93.3264 9.90518 92.4715 9.90518C90.0471 9.90518 88.7974 8.39442 88.7974 6.39747C88.7974 4.00244 90.5039 2.67114 92.6281 2.67114C93.4504 2.67114 94.0769 2.83755 94.3575 2.98439L94.0345 4.2439C93.7114 4.11012 93.2644 3.98286 92.7032 3.98286C91.4436 3.98286 90.4647 4.74314 90.4647 6.30285C90.4647 7.70919 91.2968 8.59346 92.7129 8.59346C93.1926 8.59346 93.7212 8.48905 94.0345 8.36505L94.2727 9.60173Z" fill="#150035"/>
<path d="M96.7721 2.78207V4.86386C96.7721 5.98959 96.7525 7.10227 96.6873 8.03874H96.7297C97.0951 7.21647 97.5617 6.28978 97.9794 5.5393L99.4902 2.77881H101.115V9.79423H99.6566V7.72223C99.6566 6.63892 99.6762 5.68287 99.7708 4.76597H99.7381C99.4151 5.59803 98.9681 6.52472 98.5504 7.26542L97.1245 9.79423H95.3135V2.78207H96.7721Z" fill="#150035"/>
<path d="M103.957 2.78215V4.86393C103.957 5.98966 103.938 7.10234 103.876 8.03882H103.918C104.283 7.21655 104.75 6.28986 105.168 5.53937L106.679 2.77888H108.303V9.79431H106.845V7.72231C106.845 6.639 106.865 5.68294 106.959 4.76604H106.927C106.603 5.5981 106.156 6.52479 105.739 7.26549L104.313 9.79431H102.502V2.78215H103.957ZM104.936 1.17676C104.946 1.58137 105.06 1.81304 105.393 1.81304C105.716 1.81304 105.84 1.58463 105.882 1.17676H106.943C106.881 2.07082 106.297 2.45585 105.37 2.45585C104.453 2.45585 103.934 2.05124 103.85 1.17676H104.936Z" fill="#150035"/>
<path d="M114.839 9.60173C114.549 9.74856 113.893 9.90518 113.038 9.90518C110.614 9.90518 109.364 8.39442 109.364 6.39747C109.364 4.00244 111.07 2.67114 113.195 2.67114C114.017 2.67114 114.64 2.83755 114.924 2.98439L114.601 4.2439C114.278 4.11012 113.831 3.98286 113.27 3.98286C112.01 3.98286 111.031 4.74314 111.031 6.30285C111.031 7.70919 111.863 8.59346 113.28 8.59346C113.759 8.59346 114.288 8.48905 114.601 8.36505L114.839 9.60173Z" fill="#150035"/>
<path d="M117.453 2.78223V5.69607H117.59L119.525 2.78223H121.45L119.003 5.89512C119.91 6.12353 120.315 6.75002 120.605 7.59187C120.856 8.34236 121.085 9.10263 121.417 9.79765H119.711C119.473 9.31799 119.336 8.77633 119.169 8.25752C118.931 7.46788 118.608 6.86096 117.753 6.86096H117.453V9.79765H115.88V2.78223H117.453Z" fill="#150035"/>
<path d="M123.64 2.78207V4.86386C123.64 5.98959 123.62 7.10227 123.558 8.03874H123.6C123.966 7.21647 124.432 6.28978 124.85 5.5393L126.361 2.77881H127.986V9.79423H126.527V7.72223C126.527 6.63892 126.547 5.68287 126.641 4.76597H126.606C126.283 5.59803 125.836 6.52472 125.418 7.26542L123.992 9.79423H122.181V2.78207H123.64Z" fill="#150035"/>
<path d="M130.825 2.78215V4.86393C130.825 5.98966 130.805 7.10234 130.743 8.03882H130.785C131.151 7.21655 131.618 6.28986 132.035 5.53937L133.546 2.77888H135.171V9.79431H133.712V7.72231C133.712 6.639 133.732 5.68294 133.827 4.76604H133.794C133.471 5.5981 133.024 6.52479 132.606 7.26549L131.18 9.79431H129.369V2.78215H130.825ZM131.804 1.17676C131.813 1.58137 131.928 1.81304 132.26 1.81304C132.583 1.81304 132.707 1.58463 132.75 1.17676H133.81C133.748 2.07082 133.164 2.45585 132.237 2.45585C131.321 2.45585 130.802 2.05124 130.717 1.17676H131.804Z" fill="#150035"/>
<path d="M70.0515 18.1181H73.06C72.9556 17.1817 72.2997 16.441 71.125 16.441C70.5736 16.441 70.0515 16.5878 69.6991 16.7314L69.3859 15.5567C69.8133 15.3707 70.4985 15.1619 71.249 15.1619C73.7158 15.1619 74.7665 16.8488 74.7665 18.7968C74.7665 21.1592 73.1644 22.409 71.1022 22.409C70.3745 22.409 69.6665 22.2425 69.301 22.0761L69.5719 20.859C69.9373 21.0059 70.479 21.1103 70.9782 21.1103C72.1757 21.1103 72.9262 20.3826 73.0502 19.3613H70.0515V18.1181Z" fill="#150035"/>
<path d="M77.3932 15.2761V18.19H77.527L79.4619 15.2761H81.3871L78.9398 18.389C79.847 18.6174 80.2516 19.2439 80.542 20.0858C80.7932 20.8363 81.0216 21.5965 81.3545 22.2915H79.6479C79.4097 21.8119 79.2727 21.2702 79.1063 20.7514C78.8681 19.9618 78.545 19.3549 77.6901 19.3549H77.3867V22.2915H75.8139V15.2761H77.3932Z" fill="#150035"/>
<path d="M88.3667 18.7122C88.3667 21.0126 86.9701 22.4091 84.921 22.4091C82.8392 22.4091 81.6221 20.8364 81.6221 18.8394C81.6221 16.7348 82.9664 15.1653 85.0384 15.1653C87.192 15.162 88.3667 16.7772 88.3667 18.7122ZM83.2992 18.8068C83.2992 20.1805 83.9453 21.1496 85.0058 21.1496C86.0793 21.1496 86.6927 20.1283 86.6927 18.7644C86.6927 17.5048 86.0891 16.4215 84.996 16.4215C83.9225 16.4215 83.2992 17.4429 83.2992 18.8068Z" fill="#150035"/>
<path d="M91.0031 15.2761V17.9713H93.6168V15.2761H95.1993V22.2915H93.6168V19.3549H91.0031V22.2915H89.4108V15.2761H91.0031Z" fill="#150035"/>
<path d="M103.008 18.7122C103.008 21.0126 101.611 22.4091 99.5619 22.4091C97.4802 22.4091 96.2631 20.8364 96.2631 18.8394C96.2631 16.7348 97.6074 15.1653 99.6794 15.1653C101.833 15.162 103.008 16.7772 103.008 18.7122ZM97.9402 18.8068C97.9402 20.1805 98.5863 21.1496 99.6468 21.1496C100.72 21.1496 101.334 20.1283 101.334 18.7644C101.334 17.5048 100.73 16.4215 99.637 16.4215C98.5635 16.4215 97.9402 17.4429 97.9402 18.8068Z" fill="#150035"/>
<path d="M109.935 19.6093C109.902 18.7674 109.873 17.7461 109.873 16.7248H109.84C109.622 17.6189 109.331 18.6206 109.061 19.4429L108.206 22.1805H106.966L106.215 19.4624C105.987 18.6402 105.745 17.6417 105.579 16.7248H105.559C105.517 17.6711 105.488 18.7544 105.435 19.6289L105.311 22.2947H103.843L104.29 15.2793H106.404L107.093 17.6221C107.312 18.4346 107.53 19.3091 107.687 20.1314H107.719C107.918 19.3189 108.157 18.3922 108.385 17.6123L109.136 15.2793H111.208L111.593 22.2947H110.043L109.935 19.6093Z" fill="#150035"/>
<path d="M114.265 15.2762V17.358C114.265 18.4837 114.245 19.5964 114.183 20.5329H114.226C114.591 19.7106 115.058 18.7839 115.476 18.0334L116.986 15.2729H118.611V22.2884H117.153V20.2164C117.153 19.1331 117.172 18.177 117.267 17.2601H117.234C116.911 18.0922 116.464 19.0189 116.047 19.7596L114.621 22.2884H112.81V15.2762H114.265Z" fill="#150035"/>
<path d="M121.45 15.2761V17.3057C121.45 18.1084 121.878 18.4934 122.628 18.4934C122.98 18.4934 123.356 18.389 123.659 18.2324V15.2761H125.242V22.2915H123.659V19.3973H123.627C123.117 19.6485 122.638 19.7627 122.054 19.7627C120.784 19.7627 119.868 19.0873 119.868 17.5765V15.2761H121.45Z" fill="#150035"/>
<path d="M130.792 19.3288H128.211V20.9929H131.095V22.2948H126.619V15.2761H130.949V16.5781H128.211V18.0366H130.792V19.3288Z" fill="#150035"/>
<path d="M137.331 22.0959C137.041 22.2427 136.385 22.3993 135.53 22.3993C133.106 22.3993 131.856 20.8886 131.856 18.8916C131.856 16.4966 133.562 15.1653 135.687 15.1653C136.509 15.1653 137.132 15.3317 137.416 15.4785L137.093 16.738C136.77 16.6043 136.323 16.477 135.762 16.477C134.502 16.477 133.523 17.2373 133.523 18.8003C133.523 20.2066 134.355 21.0909 135.771 21.0909C136.251 21.0909 136.78 20.9865 137.093 20.8625L137.331 22.0959Z" fill="#150035"/>
<path d="M139.945 15.2761V18.19H140.078L142.013 15.2761H143.939L141.491 18.389C142.398 18.6174 142.803 19.2439 143.093 20.0858C143.345 20.8363 143.573 21.5965 143.906 22.2915H142.199C141.961 21.8119 141.824 21.2702 141.658 20.7514C141.42 19.9618 141.097 19.3549 140.242 19.3549H139.941V22.2915H138.369V15.2761H139.945Z" fill="#150035"/>
<path d="M146.131 15.2762V17.358C146.131 18.4837 146.112 19.5964 146.05 20.5329H146.092C146.458 19.7106 146.924 18.7839 147.342 18.0334L148.853 15.2729H150.478V22.2884H149.019V20.2164C149.019 19.1331 149.039 18.177 149.133 17.2601H149.101C148.778 18.0922 148.331 19.0189 147.913 19.7596L146.487 22.2884H144.676V15.2762H146.131Z" fill="#150035"/>
<path d="M153.316 15.2762V17.358C153.316 18.4837 153.297 19.5964 153.235 20.5329H153.277C153.643 19.7106 154.109 18.7839 154.527 18.0334L156.038 15.2729H157.663V22.2884H156.204V20.2164C156.204 19.133 156.224 18.177 156.318 17.2601H156.286C155.963 18.0922 155.516 19.0188 155.098 19.7595L153.672 22.2884H151.861V15.2762H153.316ZM154.295 13.6741C154.305 14.0787 154.419 14.3104 154.752 14.3104C155.075 14.3104 155.199 14.0819 155.242 13.6741H156.302C156.24 14.5681 155.656 14.9532 154.729 14.9532C153.812 14.9532 153.294 14.5486 153.209 13.6741H154.295Z" fill="#150035"/>
<path d="M70.8444 27.7734L71.8657 30.2403C72.0517 30.7395 72.1985 31.1572 72.3551 31.5846H72.3878C72.4824 31.2811 72.5966 30.8145 72.7728 30.2207L73.5331 27.7734H75.1972L73.8855 31.1767C73.458 32.2698 73.0208 33.3303 72.502 33.9764C72.0451 34.5507 71.4611 34.9031 70.6388 34.9031C70.2733 34.9031 70.0547 34.8606 69.8589 34.7889L69.9731 33.5196C70.0971 33.5522 70.2635 33.5718 70.4952 33.5718C70.9847 33.5718 71.3175 33.2389 71.4415 32.9159C71.5035 32.8017 71.4741 32.7071 71.4219 32.5929L69.0595 27.7734H70.8444Z" fill="#150035"/>
<path d="M77.4258 27.7734V30.4687H80.0395V27.7734H81.622V34.7889H80.0395V31.8522H77.4258V34.7889H75.8335V27.7734H77.4258Z" fill="#150035"/>
<path d="M84.4641 27.7733V29.8551C84.4641 30.9808 84.4445 32.0935 84.3793 33.03H84.4217C84.7871 32.2077 85.2537 31.281 85.6714 30.5305L87.1822 27.77H88.8071V34.7854H87.3486V32.7134C87.3486 31.6301 87.3682 30.6741 87.4628 29.7572H87.4302C87.1071 30.5892 86.6601 31.5159 86.2424 32.2566L84.8165 34.7854H83.0056V27.7733H84.4641Z" fill="#150035"/>
<path d="M90.1907 27.868C90.6083 27.7865 91.4502 27.7212 92.2431 27.7212C93.2122 27.7212 93.8061 27.8158 94.3151 28.116C94.8045 28.3771 95.1569 28.8567 95.1569 29.4897C95.1569 30.113 94.7915 30.697 94.0018 30.9907V31.0103C94.8045 31.2289 95.3984 31.8326 95.3984 32.7397C95.3984 33.3759 95.108 33.8752 94.6708 34.2276C94.1617 34.6322 93.3068 34.8639 91.9103 34.8639C91.1304 34.8639 90.5463 34.8117 90.1939 34.7595V27.868H90.1907ZM91.7634 30.5535H92.2855C93.1176 30.5535 93.5646 30.2109 93.5646 29.6888C93.5646 29.1569 93.16 28.8763 92.4389 28.8763C92.0963 28.8763 91.8972 28.8959 91.7634 28.9187V30.5535ZM91.7634 33.6664C91.9201 33.6859 92.1061 33.6859 92.3769 33.6859C93.0947 33.6859 93.731 33.4151 93.731 32.6744C93.731 31.9663 93.0947 31.6857 92.3051 31.6857H91.7634V33.6664Z" fill="#150035"/>
<path d="M100.655 31.8228H98.074V33.4869H100.959V34.7889H96.4817V27.7734H100.812V29.0754H98.074V30.5339H100.655V31.8228Z" fill="#150035"/>
<path d="M102.042 27.868C102.531 27.7865 103.22 27.7212 104.186 27.7212C105.165 27.7212 105.863 27.9072 106.329 28.2824C106.776 28.6381 107.08 29.2189 107.08 29.9074C107.08 30.5959 106.851 31.1767 106.434 31.5715C105.892 32.0805 105.089 32.3122 104.153 32.3122C103.944 32.3122 103.758 32.3024 103.611 32.2796V34.7888H102.039V27.868H102.042ZM103.615 31.0527C103.748 31.0853 103.918 31.0951 104.146 31.0951C104.988 31.0951 105.51 30.6677 105.51 29.9498C105.51 29.3037 105.063 28.9187 104.27 28.9187C103.947 28.9187 103.729 28.9513 103.615 28.9807V31.0527Z" fill="#150035"/>
<path d="M113.214 34.5929C112.924 34.7398 112.268 34.8964 111.413 34.8964C108.989 34.8964 107.739 33.3856 107.739 31.3887C107.739 28.9937 109.446 27.6624 111.57 27.6624C112.392 27.6624 113.015 27.8288 113.299 27.9756L112.976 29.2351C112.653 29.0981 112.206 28.9741 111.645 28.9741C110.385 28.9741 109.406 29.7344 109.406 31.2973C109.406 32.7037 110.238 33.5879 111.655 33.5879C112.134 33.5879 112.666 33.4835 112.976 33.3595L113.214 34.5929Z" fill="#150035"/>
<path d="M115.714 27.7733V29.8551C115.714 30.9808 115.694 32.0935 115.632 33.03H115.675C116.04 32.2077 116.507 31.281 116.924 30.5305L118.435 27.77H120.06V34.7854H118.602V32.7134C118.602 31.6301 118.621 30.6741 118.716 29.7572H118.683C118.36 30.5892 117.913 31.5159 117.495 32.2566L116.069 34.7854H114.258V27.7733H115.714Z" fill="#150035"/>
<path d="M122.794 29.1047H120.908V27.7734H126.302V29.1047H124.387V34.7889H122.794V29.1047Z" fill="#150035"/>
<path d="M131.324 31.8228H128.743V33.4869H131.627V34.7889H127.151V27.7734H131.48V29.0754H128.743V30.5339H131.324V31.8228Z" fill="#150035"/>
<path d="M134.061 29.1047H132.175V27.7734H137.569V29.1047H135.654V34.7889H134.061V29.1047Z" fill="#150035"/>
<path d="M71.1674 40.2674V42.3492C71.1674 43.4749 71.1478 44.5876 71.0826 45.5241H71.125C71.4905 44.7018 71.9571 43.7751 72.3747 43.0246L73.8855 40.2642H75.5105V47.2861H74.0519V45.2141C74.0519 44.1308 74.0715 43.1747 74.1661 42.2578H74.1335C73.8104 43.0899 73.3634 44.0166 72.9457 44.7573L71.5198 47.2861H69.7089V40.2674H71.1674Z" fill="#150035"/>
<path d="M82.8294 44.6006C82.7967 43.7587 82.7674 42.7374 82.7674 41.7161H82.7347C82.5161 42.6102 82.2257 43.6119 81.9549 44.4342L81.1 47.1718H79.86L79.1096 44.4537C78.8811 43.6315 78.6397 42.633 78.4733 41.7161H78.4537C78.4113 42.6624 78.3819 43.7457 78.3297 44.6202L78.2057 47.286H76.7374L77.1844 40.2673H79.2988L79.9873 42.6102C80.2059 43.4226 80.4245 44.2971 80.5812 45.1194H80.6138C80.8128 44.3069 81.051 43.3802 81.2794 42.6004L82.0299 40.2673H84.1019L84.487 47.286H82.937L82.8294 44.6006Z" fill="#150035"/>
<path d="M89.8774 44.32H87.2964V45.9874H90.1809V47.286H85.704V40.2673H90.034V41.5693H87.2964V43.0278H89.8774V44.32Z" fill="#150035"/>
<path d="M92.8565 40.2673V42.9626H95.4701V40.2673H97.0527V47.286H95.4701V44.3493H92.8565V47.286H91.2642V40.2673H92.8565Z" fill="#150035"/>
<path d="M99.8948 40.2674V42.3492C99.8948 43.4749 99.8752 44.5876 99.8132 45.5241H99.8556C100.221 44.7018 100.688 43.7751 101.105 43.0246L102.616 40.2642H104.241V47.2861H102.782V45.2141C102.782 44.1308 102.802 43.1747 102.897 42.2578H102.864C102.541 43.0899 102.094 44.0166 101.676 44.7573L100.25 47.2861H98.4395V40.2674H99.8948Z" fill="#150035"/>
<path d="M111.974 40.2673V41.5693H109.318V47.286H107.726V40.2673H111.974Z" fill="#150035"/>
<path d="M111.694 46.4442C111.694 45.883 112.079 45.4751 112.63 45.4751C113.182 45.4751 113.557 45.8699 113.557 46.4442C113.557 46.9956 113.182 47.4003 112.62 47.4003C112.079 47.4003 111.694 46.9956 111.694 46.4442Z" fill="#150035"/>
<path d="M114.568 40.3619C114.986 40.2803 115.828 40.2151 116.621 40.2151C117.59 40.2151 118.184 40.3097 118.693 40.6099C119.182 40.8709 119.535 41.3506 119.535 41.9836C119.535 42.6069 119.169 43.1909 118.38 43.4813V43.5009C119.182 43.7195 119.776 44.3232 119.776 45.2303C119.776 45.8666 119.486 46.3658 119.049 46.7182C118.539 47.1228 117.685 47.3545 116.291 47.3545C115.511 47.3545 114.927 47.3023 114.575 47.2501V40.3619H114.568ZM116.141 43.0474H116.663C117.495 43.0474 117.942 42.7047 117.942 42.1827C117.942 41.6508 117.534 41.3702 116.817 41.3702C116.474 41.3702 116.275 41.3898 116.141 41.4126V43.0474ZM116.141 46.1603C116.298 46.1798 116.484 46.1798 116.755 46.1798C117.472 46.1798 118.109 45.909 118.109 45.1716C118.109 44.4635 117.472 44.1829 116.683 44.1829H116.141V46.1603Z" fill="#150035"/>
<path d="M120.693 46.4442C120.693 45.883 121.078 45.4751 121.63 45.4751C122.181 45.4751 122.556 45.8699 122.556 46.4442C122.556 46.9956 122.181 47.4003 121.62 47.4003C121.078 47.4003 120.693 46.9956 120.693 46.4442Z" fill="#150035"/>
<path d="M131.343 40.2673V47.286H129.751V41.5693H127.261V47.286H125.669V40.2673H131.343Z" fill="#150035"/>
<path d="M138.049 40.2673V47.286H136.466V41.5693H134.874V43.2367C134.874 45.0378 134.646 46.4213 133.582 47.0478C133.226 47.2469 132.75 47.3904 132.185 47.3904L131.986 46.1113C132.329 46.0689 132.613 45.9254 132.789 45.7361C133.216 45.2989 133.321 44.4048 133.321 43.3411V40.2706H138.049V40.2673Z" fill="#150035"/>
<path d="M143.609 44.32H141.028V45.9874H143.912V47.286H139.436V40.2673H143.766V41.5693H141.028V43.0278H143.609V44.32Z" fill="#150035"/>
<path d="M148.693 47.286L148.056 46.0167C147.795 45.5273 147.629 45.1618 147.433 44.7572H147.414C147.267 45.1618 147.091 45.5273 146.872 46.0167L146.288 47.286H144.477L146.507 43.7359L144.549 40.2673H146.37L146.983 41.5497C147.192 41.9771 147.348 42.3198 147.515 42.7146H147.534C147.701 42.2675 147.838 41.9543 148.014 41.5497L148.608 40.2673H150.419L148.442 43.6935L150.523 47.286H148.693Z" fill="#150035"/>
<path d="M153.013 45.4848L152.514 47.286H150.869L153.013 40.2673H155.095L157.271 47.286H155.565L155.023 45.4848H153.013ZM154.795 44.2971L154.357 42.8092C154.233 42.3915 154.106 41.8727 154.005 41.4551H153.985C153.881 41.8727 153.776 42.4013 153.662 42.8092L153.245 44.2971H154.795Z" fill="#150035"/>
<path d="M159.803 40.2673V42.9626H162.417V40.2673H163.999V47.286H162.417V44.3493H159.803V47.286H158.211V40.2673H159.803Z" fill="#150035"/>
<path d="M171.808 43.7034C171.808 46.0038 170.411 47.4003 168.362 47.4003C166.28 47.4003 165.063 45.8276 165.063 43.8306C165.063 41.726 166.407 40.1565 168.476 40.1565C170.63 40.1532 171.808 41.7684 171.808 43.7034ZM166.737 43.798C166.737 45.1717 167.383 46.1408 168.444 46.1408C169.517 46.1408 170.131 45.1195 170.131 43.7556C170.131 42.4961 169.527 41.4127 168.434 41.4127C167.364 41.4127 166.737 42.4341 166.737 43.798Z" fill="#150035"/>
<path d="M172.852 40.3619C173.27 40.2803 174.111 40.2151 174.904 40.2151C175.873 40.2151 176.467 40.3097 176.976 40.6099C177.466 40.8709 177.821 41.3506 177.821 41.9836C177.821 42.6069 177.456 43.1909 176.666 43.4813V43.5009C177.469 43.7195 178.063 44.3232 178.063 45.2303C178.063 45.8666 177.772 46.3658 177.335 46.7182C176.826 47.1228 175.971 47.3545 174.575 47.3545C173.795 47.3545 173.211 47.3023 172.858 47.2501V40.3619H172.852ZM174.421 43.0474H174.94C175.772 43.0474 176.219 42.7047 176.219 42.1827C176.219 41.6508 175.815 41.3702 175.094 41.3702C174.751 41.3702 174.552 41.3898 174.418 41.4126V43.0474H174.421ZM174.421 46.1603C174.578 46.1798 174.764 46.1798 175.035 46.1798C175.753 46.1798 176.389 45.909 176.389 45.1716C176.389 44.4635 175.753 44.1829 174.963 44.1829H174.421V46.1603Z" fill="#150035"/>
<path d="M180.742 45.4848L180.243 47.286H178.598L180.742 40.2673H182.824L185 47.286H183.293L182.752 45.4848H180.742ZM182.523 44.2971L182.086 42.8092C181.962 42.3915 181.835 41.8727 181.73 41.4551H181.711C181.606 41.8727 181.502 42.4013 181.388 42.8092L180.97 44.2971H182.523Z" fill="#150035"/>
</svg>
