<svg width="645" height="120" viewBox="0 0 645 120" fill="none" xmlns="http://www.w3.org/2000/svg">
<path d="M644 33.5V102V103L627.5 119.5L532.5 119.5L524 111L463 111L457 117.5H369.5L358 105.5L124 105.5L112.5 117.5H16.5L2 102L1 29L20 10.5L291 10.5L300.5 1L342.5 1L352 10.5L621 10.5L644 33.5Z" fill="#0B1B51" fill-opacity="0.68" stroke="#44BCFF" stroke-opacity="0.2"/>
<path d="M631 100H635L624 112H620L631 100Z" fill="#44BCFF"/>
<path d="M16 100H12L23 112H27L16 100Z" fill="#44BCFF"/>
<path d="M595 100H599L588 112H584L595 100Z" fill="#44BCFF"/>
<path d="M52 100H48L59 112H63L52 100Z" fill="#44BCFF"/>
<path d="M613 100H617L606 112H602L613 100Z" fill="#44BCFF"/>
<path d="M34 100H30L41 112H45L34 100Z" fill="#44BCFF"/>
<path d="M577 100H581L570 112H566L577 100Z" fill="#0E487B"/>
<path d="M70 100H66L77 112H81L70 100Z" fill="#44BCFF"/>
<path d="M547 100H551L540 112H536L547 100Z" fill="#0E487B"/>
<path d="M625 100H629L618 112H614L625 100Z" fill="#44BCFF"/>
<path d="M22 100H18L29 112H33L22 100Z" fill="#44BCFF"/>
<path d="M589 100H593L582 112H578L589 100Z" fill="#44BCFF"/>
<path d="M58 100H54L65 112H69L58 100Z" fill="#44BCFF"/>
<path d="M559 100H563L552 112H548L559 100Z" fill="#0E487B"/>
<path d="M88 100H84L95 112H99L88 100Z" fill="#0E487B"/>
<path d="M607 100H611L600 112H596L607 100Z" fill="#44BCFF"/>
<path d="M40 100H36L47 112H51L40 100Z" fill="#44BCFF"/>
<path d="M571 100H575L564 112H560L571 100Z" fill="#0E487B"/>
<path d="M76 100H72L83 112H87L76 100Z" fill="#44BCFF"/>
<path d="M619 100H623L612 112H608L619 100Z" fill="#44BCFF"/>
<path d="M28 100H24L35 112H39L28 100Z" fill="#44BCFF"/>
<path d="M583 100H587L576 112H572L583 100Z" fill="#44BCFF"/>
<path d="M64 100H60L71 112H75L64 100Z" fill="#44BCFF"/>
<path d="M553 100H557L546 112H542L553 100Z" fill="#0E487B"/>
<path d="M94 100H90L101 112H105L94 100Z" fill="#0E487B"/>
<path d="M601 100H605L594 112H590L601 100Z" fill="#44BCFF"/>
<path d="M46 100H42L53 112H57L46 100Z" fill="#44BCFF"/>
<path d="M565 100H569L558 112H554L565 100Z" fill="#0E487B"/>
<path d="M82 100H78L89 112H93L82 100Z" fill="#44BCFF"/>
<path d="M591.76 89.61C592.207 89.61 592.613 89.7 592.98 89.88C593.347 90.06 593.637 90.3167 593.85 90.65C594.063 90.9767 594.17 91.3567 594.17 91.79C594.17 92.2567 594.053 92.6667 593.82 93.02C593.587 93.3733 593.267 93.6467 592.86 93.84C592.46 94.0267 592.013 94.12 591.52 94.12C590.54 94.12 589.773 93.82 589.22 93.22C588.667 92.62 588.39 91.7633 588.39 90.65C588.39 89.8567 588.54 89.1767 588.84 88.61C589.14 88.0433 589.557 87.6133 590.09 87.32C590.63 87.0267 591.253 86.88 591.96 86.88C592.333 86.88 592.69 86.9233 593.03 87.01C593.377 87.09 593.67 87.2067 593.91 87.36L593.31 88.55C592.963 88.3167 592.527 88.2 592 88.2C591.407 88.2 590.937 88.3733 590.59 88.72C590.243 89.0667 590.057 89.57 590.03 90.23C590.443 89.8167 591.02 89.61 591.76 89.61ZM591.43 92.91C591.777 92.91 592.057 92.8167 592.27 92.63C592.49 92.4433 592.6 92.19 592.6 91.87C592.6 91.55 592.49 91.2967 592.27 91.11C592.057 90.9167 591.77 90.82 591.41 90.82C591.057 90.82 590.767 90.92 590.54 91.12C590.313 91.3133 590.2 91.5633 590.2 91.87C590.2 92.1767 590.31 92.4267 590.53 92.62C590.75 92.8133 591.05 92.91 591.43 92.91ZM597.157 89.63C598.144 89.63 598.871 89.8267 599.337 90.22C599.811 90.6133 600.047 91.14 600.047 91.8C600.047 92.2267 599.941 92.6167 599.727 92.97C599.514 93.3167 599.187 93.5967 598.747 93.81C598.314 94.0167 597.777 94.12 597.137 94.12C596.644 94.12 596.157 94.0567 595.677 93.93C595.204 93.7967 594.801 93.61 594.467 93.37L595.107 92.13C595.374 92.33 595.681 92.4867 596.027 92.6C596.374 92.7067 596.731 92.76 597.097 92.76C597.504 92.76 597.824 92.68 598.057 92.52C598.291 92.36 598.407 92.1367 598.407 91.85C598.407 91.55 598.284 91.3233 598.037 91.17C597.797 91.0167 597.377 90.94 596.777 90.94H594.987L595.347 87H599.617V88.3H596.697L596.587 89.63H597.157ZM602.227 90.78C601.713 90.78 601.293 90.6067 600.967 90.26C600.647 89.9067 600.487 89.4367 600.487 88.85C600.487 88.2633 600.647 87.7967 600.967 87.45C601.293 87.0967 601.713 86.92 602.227 86.92C602.74 86.92 603.157 87.0967 603.477 87.45C603.797 87.7967 603.957 88.2633 603.957 88.85C603.957 89.4367 603.797 89.9067 603.477 90.26C603.157 90.6067 602.74 90.78 602.227 90.78ZM606.397 87H607.587L602.807 94H601.617L606.397 87ZM602.227 89.96C602.453 89.96 602.63 89.8667 602.757 89.68C602.89 89.4933 602.957 89.2167 602.957 88.85C602.957 88.4833 602.89 88.2067 602.757 88.02C602.63 87.8333 602.453 87.74 602.227 87.74C602.007 87.74 601.83 87.8367 601.697 88.03C601.563 88.2167 601.497 88.49 601.497 88.85C601.497 89.21 601.563 89.4867 601.697 89.68C601.83 89.8667 602.007 89.96 602.227 89.96ZM606.977 94.08C606.643 94.08 606.343 94.0033 606.077 93.85C605.817 93.69 605.613 93.4633 605.467 93.17C605.32 92.8767 605.247 92.5367 605.247 92.15C605.247 91.7633 605.32 91.4233 605.467 91.13C605.613 90.8367 605.817 90.6133 606.077 90.46C606.343 90.3 606.643 90.22 606.977 90.22C607.49 90.22 607.907 90.3967 608.227 90.75C608.553 91.0967 608.717 91.5633 608.717 92.15C608.717 92.7367 608.553 93.2067 608.227 93.56C607.907 93.9067 607.49 94.08 606.977 94.08ZM606.977 93.26C607.203 93.26 607.38 93.1667 607.507 92.98C607.64 92.7867 607.707 92.51 607.707 92.15C607.707 91.79 607.64 91.5167 607.507 91.33C607.38 91.1367 607.203 91.04 606.977 91.04C606.757 91.04 606.58 91.1333 606.447 91.32C606.313 91.5067 606.247 91.7833 606.247 92.15C606.247 92.5167 606.313 92.7933 606.447 92.98C606.58 93.1667 606.757 93.26 606.977 93.26ZM616.878 89.9H614.118V94H612.568V88.62H616.878V89.9ZM620 94.08C619.434 94.08 618.924 93.9633 618.47 93.73C618.024 93.49 617.674 93.16 617.42 92.74C617.167 92.32 617.04 91.8433 617.04 91.31C617.04 90.7767 617.167 90.3 617.42 89.88C617.674 89.46 618.024 89.1333 618.47 88.9C618.924 88.66 619.434 88.54 620 88.54C620.567 88.54 621.074 88.66 621.52 88.9C621.967 89.1333 622.317 89.46 622.57 89.88C622.824 90.3 622.95 90.7767 622.95 91.31C622.95 91.8433 622.824 92.32 622.57 92.74C622.317 93.16 621.967 93.49 621.52 93.73C621.074 93.9633 620.567 94.08 620 94.08ZM620 92.8C620.4 92.8 620.727 92.6667 620.98 92.4C621.24 92.1267 621.37 91.7633 621.37 91.31C621.37 90.8567 621.24 90.4967 620.98 90.23C620.727 89.9567 620.4 89.82 620 89.82C619.6 89.82 619.27 89.9567 619.01 90.23C618.75 90.4967 618.62 90.8567 618.62 91.31C618.62 91.7633 618.75 92.1267 619.01 92.4C619.27 92.6667 619.6 92.8 620 92.8ZM629.975 92.72V95.16H628.525V94H624.745V95.16H623.295V92.72H623.515C623.849 92.7133 624.079 92.5167 624.205 92.13C624.332 91.7433 624.412 91.1933 624.445 90.48L624.515 88.62H629.205V92.72H629.975ZM625.855 90.59C625.835 91.1367 625.792 91.5833 625.725 91.93C625.665 92.2767 625.549 92.54 625.375 92.72H627.645V89.9H625.885L625.855 90.59Z" fill="#44BCFF"/>
<path d="M16.18 90.32C16.5267 90.4933 16.79 90.72 16.97 91C17.1567 91.28 17.25 91.6033 17.25 91.97C17.25 92.4033 17.1267 92.7833 16.88 93.11C16.6333 93.43 16.2867 93.68 15.84 93.86C15.3933 94.0333 14.8767 94.12 14.29 94.12C13.7033 94.12 13.1867 94.0333 12.74 93.86C12.3 93.68 11.9567 93.43 11.71 93.11C11.47 92.7833 11.35 92.4033 11.35 91.97C11.35 91.6033 11.44 91.28 11.62 91C11.8067 90.72 12.07 90.4933 12.41 90.32C12.15 90.16 11.95 89.96 11.81 89.72C11.67 89.4733 11.6 89.1933 11.6 88.88C11.6 88.4733 11.7133 88.12 11.94 87.82C12.1667 87.52 12.4833 87.29 12.89 87.13C13.2967 86.9633 13.7633 86.88 14.29 86.88C14.8233 86.88 15.2933 86.9633 15.7 87.13C16.1133 87.29 16.4333 87.52 16.66 87.82C16.8867 88.12 17 88.4733 17 88.88C17 89.1933 16.93 89.4733 16.79 89.72C16.65 89.96 16.4467 90.16 16.18 90.32ZM14.29 88.07C13.9633 88.07 13.7 88.15 13.5 88.31C13.3067 88.4633 13.21 88.6767 13.21 88.95C13.21 89.2167 13.3067 89.4267 13.5 89.58C13.6933 89.7333 13.9567 89.81 14.29 89.81C14.6233 89.81 14.89 89.7333 15.09 89.58C15.29 89.4267 15.39 89.2167 15.39 88.95C15.39 88.6767 15.29 88.4633 15.09 88.31C14.89 88.15 14.6233 88.07 14.29 88.07ZM14.29 92.93C14.6967 92.93 15.0167 92.84 15.25 92.66C15.49 92.4733 15.61 92.2267 15.61 91.92C15.61 91.6133 15.49 91.37 15.25 91.19C15.0167 91.01 14.6967 90.92 14.29 90.92C13.89 90.92 13.5733 91.01 13.34 91.19C13.1067 91.37 12.99 91.6133 12.99 91.92C12.99 92.2333 13.1067 92.48 13.34 92.66C13.5733 92.84 13.89 92.93 14.29 92.93ZM20.3916 89.63C21.3782 89.63 22.1049 89.8267 22.5716 90.22C23.0449 90.6133 23.2816 91.14 23.2816 91.8C23.2816 92.2267 23.1749 92.6167 22.9616 92.97C22.7482 93.3167 22.4216 93.5967 21.9816 93.81C21.5482 94.0167 21.0116 94.12 20.3716 94.12C19.8782 94.12 19.3916 94.0567 18.9116 93.93C18.4382 93.7967 18.0349 93.61 17.7016 93.37L18.3416 92.13C18.6082 92.33 18.9149 92.4867 19.2616 92.6C19.6082 92.7067 19.9649 92.76 20.3316 92.76C20.7382 92.76 21.0582 92.68 21.2916 92.52C21.5249 92.36 21.6416 92.1367 21.6416 91.85C21.6416 91.55 21.5182 91.3233 21.2716 91.17C21.0316 91.0167 20.6116 90.94 20.0116 90.94H18.2216L18.5816 87H22.8516V88.3H19.9316L19.8216 89.63H20.3916ZM25.4612 90.78C24.9478 90.78 24.5278 90.6067 24.2012 90.26C23.8812 89.9067 23.7212 89.4367 23.7212 88.85C23.7212 88.2633 23.8812 87.7967 24.2012 87.45C24.5278 87.0967 24.9478 86.92 25.4612 86.92C25.9745 86.92 26.3912 87.0967 26.7112 87.45C27.0312 87.7967 27.1912 88.2633 27.1912 88.85C27.1912 89.4367 27.0312 89.9067 26.7112 90.26C26.3912 90.6067 25.9745 90.78 25.4612 90.78ZM29.6312 87H30.8212L26.0412 94H24.8512L29.6312 87ZM25.4612 89.96C25.6878 89.96 25.8645 89.8667 25.9912 89.68C26.1245 89.4933 26.1912 89.2167 26.1912 88.85C26.1912 88.4833 26.1245 88.2067 25.9912 88.02C25.8645 87.8333 25.6878 87.74 25.4612 87.74C25.2412 87.74 25.0645 87.8367 24.9312 88.03C24.7978 88.2167 24.7312 88.49 24.7312 88.85C24.7312 89.21 24.7978 89.4867 24.9312 89.68C25.0645 89.8667 25.2412 89.96 25.4612 89.96ZM30.2112 94.08C29.8778 94.08 29.5778 94.0033 29.3112 93.85C29.0512 93.69 28.8478 93.4633 28.7012 93.17C28.5545 92.8767 28.4812 92.5367 28.4812 92.15C28.4812 91.7633 28.5545 91.4233 28.7012 91.13C28.8478 90.8367 29.0512 90.6133 29.3112 90.46C29.5778 90.3 29.8778 90.22 30.2112 90.22C30.7245 90.22 31.1412 90.3967 31.4612 90.75C31.7878 91.0967 31.9512 91.5633 31.9512 92.15C31.9512 92.7367 31.7878 93.2067 31.4612 93.56C31.1412 93.9067 30.7245 94.08 30.2112 94.08ZM30.2112 93.26C30.4378 93.26 30.6145 93.1667 30.7412 92.98C30.8745 92.7867 30.9412 92.51 30.9412 92.15C30.9412 91.79 30.8745 91.5167 30.7412 91.33C30.6145 91.1367 30.4378 91.04 30.2112 91.04C29.9912 91.04 29.8145 91.1333 29.6812 91.32C29.5478 91.5067 29.4812 91.7833 29.4812 92.15C29.4812 92.5167 29.5478 92.7933 29.6812 92.98C29.8145 93.1667 29.9912 93.26 30.2112 93.26ZM41.0527 94V90.78L39.4427 93.48H38.7827L37.2127 90.77V94H35.8027V88.62H37.4327L39.1527 91.73L40.9827 88.62H42.4427L42.4627 94H41.0527ZM49.187 91.33C49.187 91.35 49.177 91.49 49.157 91.75H45.087C45.1604 92.0833 45.3337 92.3467 45.607 92.54C45.8804 92.7333 46.2204 92.83 46.627 92.83C46.907 92.83 47.1537 92.79 47.367 92.71C47.587 92.6233 47.7904 92.49 47.977 92.31L48.807 93.21C48.3004 93.79 47.5604 94.08 46.587 94.08C45.9804 94.08 45.4437 93.9633 44.977 93.73C44.5104 93.49 44.1504 93.16 43.897 92.74C43.6437 92.32 43.517 91.8433 43.517 91.31C43.517 90.7833 43.6404 90.31 43.887 89.89C44.1404 89.4633 44.4837 89.1333 44.917 88.9C45.357 88.66 45.847 88.54 46.387 88.54C46.9137 88.54 47.3904 88.6533 47.817 88.88C48.2437 89.1067 48.577 89.4333 48.817 89.86C49.0637 90.28 49.187 90.77 49.187 91.33ZM46.397 89.72C46.0437 89.72 45.747 89.82 45.507 90.02C45.267 90.22 45.1204 90.4933 45.067 90.84H47.717C47.6637 90.5 47.517 90.23 47.277 90.03C47.037 89.8233 46.7437 89.72 46.397 89.72ZM52.9428 94.08C52.3695 94.08 51.8528 93.9633 51.3928 93.73C50.9395 93.49 50.5828 93.16 50.3228 92.74C50.0695 92.32 49.9428 91.8433 49.9428 91.31C49.9428 90.7767 50.0695 90.3 50.3228 89.88C50.5828 89.46 50.9395 89.1333 51.3928 88.9C51.8528 88.66 52.3695 88.54 52.9428 88.54C53.5095 88.54 54.0028 88.66 54.4228 88.9C54.8495 89.1333 55.1595 89.47 55.3528 89.91L54.1428 90.56C53.8628 90.0667 53.4595 89.82 52.9328 89.82C52.5261 89.82 52.1895 89.9533 51.9228 90.22C51.6561 90.4867 51.5228 90.85 51.5228 91.31C51.5228 91.77 51.6561 92.1333 51.9228 92.4C52.1895 92.6667 52.5261 92.8 52.9328 92.8C53.4661 92.8 53.8695 92.5533 54.1428 92.06L55.3528 92.72C55.1595 93.1467 54.8495 93.48 54.4228 93.72C54.0028 93.96 53.5095 94.08 52.9428 94.08ZM60.9441 88.62V94H59.5541V92.46H58.4041L57.3841 94H55.7241L56.9541 92.24C56.5807 92.0933 56.2941 91.8833 56.0941 91.61C55.9007 91.33 55.8041 90.9933 55.8041 90.6C55.8041 89.9667 56.0307 89.48 56.4841 89.14C56.9441 88.7933 57.5741 88.62 58.3741 88.62H60.9441ZM58.4041 89.89C58.0707 89.89 57.8174 89.95 57.6441 90.07C57.4774 90.19 57.3941 90.3833 57.3941 90.65C57.3941 90.9167 57.4741 91.1133 57.6341 91.24C57.8007 91.36 58.0507 91.42 58.3841 91.42H59.5541V89.89H58.4041ZM68.5034 92.72V95.18H67.0534V94H62.4434V88.62H63.9934V92.72H66.1634V88.62H67.7234V92.72H68.5034Z" fill="#44BCFF"/>
</svg>
