<svg width="185" height="48" viewBox="0 0 185 48" fill="none" xmlns="http://www.w3.org/2000/svg">
<path fill-rule="evenodd" clip-rule="evenodd" d="M34.5404 29.4409C34.9417 29.4637 35.3398 29.5387 35.7216 29.6529C35.9272 29.7182 35.9826 29.6921 35.9794 29.4833C35.9728 29.108 35.9794 28.7393 35.9794 28.3673C35.9761 27.8975 35.6694 27.6723 35.3007 27.47C34.7166 27.1502 34.1227 26.8435 33.5615 26.4715C32.6544 25.8614 32.1486 24.9706 31.744 24.0145C31.3361 23.0748 31.248 22.0665 31.1534 21.0517C31.0457 19.8281 31.0555 18.6077 31.1077 17.3939C31.1958 15.3937 31.2872 13.3902 31.235 11.39C31.1893 9.88251 31.049 8.36848 30.4225 6.97193C29.8515 5.69283 28.7747 4.77267 27.277 4.76615C27.1823 4.76615 27.0551 4.68783 26.9964 4.88361C26.9409 5.05655 27.0714 5.07939 27.1334 5.17076C27.414 5.57537 27.7077 5.97019 27.9459 6.39764C28.3733 7.14486 28.8236 7.88556 28.9672 8.75352C29.0129 9.05045 29.0977 9.34085 29.0945 9.64431C29.0847 9.97714 29.0945 10.31 29.0879 10.6428C29.039 14.5421 29.2185 18.4381 29.1956 22.3406C29.1891 22.8072 29.2968 23.2901 29.2511 23.76C29.1728 24.6182 29.2119 25.5057 28.7747 26.2986C28.4517 26.8761 27.4467 28.2727 25.1006 28.5598C23.7986 28.7197 22.5293 28.7654 21.3775 28.0835C20.3105 27.4537 19.8765 26.4356 19.8994 25.1174C20.3203 25.5318 20.6923 25.9136 21.1458 26.1909C22.5391 27.0556 23.9455 27.2155 25.2637 26.3541C25.7988 26.0017 25.9881 25.4274 26.1382 24.8433C26.4417 23.7241 26.4351 22.569 26.3699 21.4302C26.2198 18.9503 26.3144 16.477 26.3013 14.0037C26.2916 12.8877 26.2589 11.775 26.1839 10.6656C26.1121 9.44853 26.024 8.21839 25.6324 7.04371C25.5443 6.77615 25.4105 6.5249 25.2768 6.27691C25.1952 6.14313 25.1071 6.06481 24.9896 6.29975C24.6503 6.95561 24.4871 7.65063 24.3664 8.36196C24.0629 10.1077 24.0956 16.3073 24.0303 17.6419C23.9814 18.6763 24.0009 19.7074 23.9814 20.745C23.952 21.9164 24.2293 23.0356 24.6633 24.1157C24.8069 24.4648 24.9439 24.8237 25.081 25.1761C25.1038 25.2349 25.1267 25.3099 25.0712 25.3621C25.0059 25.4241 24.957 25.3425 24.9015 25.323C23.6029 24.8531 22.6827 23.9721 22.1378 22.6963C21.7299 21.7565 21.5831 20.7646 21.4917 19.753C21.3318 18.0008 21.4982 16.2421 21.3971 14.4931C21.3057 12.8584 21.3383 11.2269 21.3318 9.5921C21.3318 8.25102 21.6222 6.96866 22.2226 5.77115C22.4608 5.28496 22.7904 4.84772 23.0775 4.38764C23.1689 4.23102 23.1754 4.11029 23.0384 3.93735C22.6011 3.36632 22.017 3.02697 21.3808 2.7692C20.5259 2.42006 19.6285 2.26996 18.6986 2.18512C17.0671 2.03176 15.5335 2.32543 14.0912 3.0335C12.525 3.80683 11.3079 4.99455 10.4269 6.50858C10.3094 6.71089 9.95052 7.46464 9.85589 7.65715C9.20329 9.0635 8.98793 10.5579 9.11193 12.0818C9.22613 13.4196 9.44475 14.7541 10.2997 15.8766C10.7499 16.4737 11.3764 16.849 11.9899 17.2405C12.1596 17.3547 12.3912 17.4265 12.4891 17.7267C11.7549 17.6484 11.0665 17.5995 10.4008 17.3776C8.41365 16.6956 7.29118 15.2273 6.69732 13.2891C6.3906 12.2906 6.24702 11.2628 6.30576 10.2284C6.37754 8.85141 6.62879 7.50379 7.23571 6.24754C7.97641 4.7172 9.10214 3.5621 10.5346 2.68762C11.8398 1.88493 13.2494 1.33022 14.7471 1.00392C15.5922 0.817932 16.4439 0.73962 17.3086 0.661309C18.8878 0.524263 20.4182 0.759198 21.9355 1.16381C22.4412 1.29759 22.898 1.58473 23.3516 1.85882C23.6485 2.03829 23.9553 2.21123 24.2718 2.34175C24.771 2.55384 25.2311 2.4168 25.6716 2.12965C26.3274 1.70546 26.9866 1.26822 27.7599 1.05939C28.419 0.876666 29.0814 0.798354 29.7568 0.736357C30.9087 0.635205 32.0083 0.817932 33.0818 1.19318C34.1554 1.57168 35.0951 2.16881 35.9467 2.92582C37.3041 4.11681 37.9013 5.6602 38.2178 7.38306C38.5506 9.22339 38.3646 11.0768 38.4658 12.9236C38.5702 15.0902 38.6061 23.7894 38.8541 24.6214C38.965 24.9999 39.1543 25.0946 39.4773 24.8727C39.9667 24.5366 40.3354 24.0798 40.7042 23.6164C41.3796 22.7615 41.5689 21.7696 41.67 20.7189C41.7744 19.6552 41.7842 18.5947 41.719 17.5375C41.5786 15.3382 41.5167 13.139 41.5852 10.9397C41.657 8.7372 41.9898 6.56731 43.109 4.61605C43.9998 3.07266 45.2887 1.98934 46.9756 1.3759C48.3526 0.873403 49.7622 0.661309 51.2077 0.749409C52.216 0.811406 53.221 1.02024 54.115 1.50642C54.8688 1.92082 55.6421 2.33196 56.2393 2.9715C57.3356 4.14618 58.1057 5.51663 58.4352 7.08939C58.9443 9.504 58.7876 11.8664 57.6423 14.0885C56.7352 15.8505 55.2604 16.9436 53.3841 17.5375C52.5847 17.7887 51.769 17.9454 50.9304 17.9519C50.5323 17.9584 50.1375 17.9617 49.7426 17.9715C49.1879 17.9258 48.6234 17.8964 48.0948 17.6974C47.9023 17.6191 47.5662 17.5995 47.6021 17.3515C47.638 17.1296 47.9708 17.1688 48.1731 17.1459C49.1455 17.0382 50.1081 16.9338 51.0283 16.5782C52.3922 16.0528 53.3874 15.1 54.1118 13.8666C54.7448 12.7964 55.045 11.6119 55.1723 10.3752C55.3126 9.00477 55.2995 7.65389 54.8394 6.33891C54.1738 4.43985 52.8882 3.24886 50.8684 2.89645C50.1407 2.76593 49.4229 2.66152 48.6952 2.84751C47.7816 3.08571 47.1192 3.65999 46.6004 4.4268C45.7487 5.70262 45.3409 7.15139 45.0146 8.61647C44.7992 9.5921 44.7274 10.5808 44.672 11.5793C44.6132 12.3885 44.5839 13.1977 44.623 14.0037C44.7862 17.8344 44.6165 21.6684 44.7144 25.4992C44.7633 27.3232 44.8025 29.157 44.8808 30.981C45.0048 33.9079 44.946 36.8315 44.9265 39.7584C44.9199 40.8156 44.7633 41.8957 44.2804 42.8909C43.9476 43.5794 44.052 43.7164 44.7209 44.2385C45.6378 44.9564 46.7537 45.2141 47.8664 45.4295C49.3087 45.7068 50.777 45.8863 52.2486 45.8276C53.4951 45.7754 54.735 45.5861 55.8607 45.0118C57.241 44.3103 58.0796 43.1291 58.5364 41.6705C58.8529 40.6688 59.065 39.6442 59.1205 38.5837C59.1955 37.1285 58.9573 35.7678 58.135 34.5605C57.4629 33.5848 56.5003 33.0432 55.3191 32.88C53.5669 32.6386 52.0267 33.1933 50.5975 34.1526C50.268 34.3712 49.9417 34.5996 49.5208 34.6323C50.0624 32.6516 51.4459 31.5814 53.3189 31.043C54.2129 30.7852 55.1364 30.733 56.0533 30.808C57.3095 30.9027 58.4907 31.2616 59.5381 31.9827C60.6084 32.7202 61.5416 33.611 62.1355 34.7824C62.7783 36.0484 63.0426 37.4156 62.9382 38.8317C62.8892 39.4843 62.762 40.1402 62.5499 40.7634C62.0408 42.2187 61.2936 43.5272 60.1157 44.542C59.1531 45.3708 58.0665 46.0201 56.8755 46.4671C55.3811 47.0284 53.8377 47.3514 52.2356 47.3677C51.596 47.3742 50.9597 47.3775 50.3267 47.384C48.9138 47.3416 47.5401 47.0838 46.1762 46.7282C45.1157 46.4443 44.1434 45.994 43.1971 45.4686C42.8088 45.25 42.4792 45.1782 42.0616 45.4164C40.7596 46.1376 39.3892 46.6759 37.8817 46.8228C37.6761 46.8424 37.4705 46.888 37.2585 46.8913C35.9467 46.8913 32.7066 47.3579 32.377 47.3775C31.3655 47.433 30.3442 47.4069 29.3359 47.3644C28.22 47.3188 27.1269 47.1752 26.0273 47.0023C24.9994 46.8391 24.014 46.5715 23.084 46.1082C21.2568 45.1978 20.0266 43.7752 19.5633 41.7749C19.2174 40.287 19.5372 38.9198 20.5063 37.7158C21.5896 36.3682 23.0612 35.6993 24.6894 35.3012C25.9098 34.9977 27.153 35.0075 28.3831 35.076C30.7586 35.2131 32.997 35.9048 35.144 36.9C35.4703 37.0501 35.7999 37.1937 36.1556 37.3569C36.1686 36.1267 36.1066 34.9357 35.9989 33.7382C35.9663 33.4119 35.9859 33.0726 35.9957 32.7397C36.0055 32.5831 35.9467 32.5048 35.813 32.4461C34.6187 31.9044 33.4114 31.8685 32.191 32.358C31.2154 32.7528 30.2528 33.177 29.1989 33.3466C27.8317 33.5653 26.4939 33.5457 25.2898 32.743C24.7123 32.358 24.2685 31.8424 24.0368 31.167C24.014 31.0919 23.965 31.0103 24.014 30.9484C24.0825 30.8603 24.1706 30.932 24.262 30.9549C25.019 31.1539 25.7727 31.3921 26.5428 31.5259C27.2672 31.6532 27.9524 31.3921 28.6148 31.1082C29.6263 30.6906 30.5595 30.1065 31.5874 29.7378C31.9561 29.604 32.3248 29.48 32.7164 29.4441C33.3168 29.4409 33.9269 29.4409 34.5404 29.4409ZM29.8482 38.3684C29.3261 38.5805 28.8954 38.8383 28.4745 39.158C27.4336 39.9509 27.104 40.9788 27.3781 42.2187C27.6914 43.6577 28.53 44.7345 29.8156 45.4393C30.1941 45.6448 31.496 46.0005 31.93 46.0429C32.7751 46.1115 34.0673 46.1735 34.6905 45.4328C35.4932 44.4767 35.8619 43.3379 36.074 42.1241C36.1784 41.54 36.1131 40.9494 36.2143 40.3621C36.3089 39.8335 36.2241 39.3179 35.7477 38.9394C35.1995 38.5054 34.5893 38.1791 33.9596 37.8789C32.3444 37.1023 30.6313 36.6521 28.8595 36.5215C27.2346 36.4008 25.6324 36.5509 24.138 37.3471C22.6664 38.1302 21.3514 39.9314 21.6516 41.9381C21.8702 43.3999 23.3092 45.5274 25.0842 45.8406C25.267 45.87 25.515 46.069 25.6324 45.9026C25.776 45.7101 25.5084 45.5437 25.3975 45.3871C24.5948 44.2744 24.0858 43.0965 24.3925 41.6803C24.7416 40.039 25.5606 38.7632 27.1824 38.1563C28.0699 37.8267 28.9639 37.8202 29.8482 38.3684ZM35.6433 9.06676C35.6792 8.14334 35.6009 6.98171 35.1636 5.85598C34.4392 3.99608 33.01 3.01718 31.1371 2.59952C30.2398 2.39722 29.3196 2.34827 28.3994 2.52121C27.7729 2.63542 27.1334 2.72678 26.5852 3.1216C26.4319 3.22928 26.21 3.34348 26.2589 3.5099C26.3079 3.68936 26.5624 3.63389 26.7451 3.63715C27.4956 3.64042 28.2493 3.598 28.9933 3.74809C30.4258 4.0385 31.607 4.74983 32.6054 5.81683C33.4669 6.74678 33.8943 7.83335 33.9596 9.07329C34.0314 10.4111 33.9204 11.7522 34.0346 13.09C34.139 14.2647 34.0411 15.4492 34.1162 16.6304C34.2239 18.3369 34.0411 20.0565 34.2206 21.7663C34.3087 22.6179 34.3674 23.4761 34.7362 24.2723C34.8765 24.5692 35.0853 24.8009 35.3235 24.9999C35.441 25.0978 35.6237 25.1892 35.7868 25.1239C35.9761 25.0521 35.9892 24.8759 35.9859 24.6899C35.9304 22.8725 36.0577 21.0517 35.9108 19.2342C35.826 18.2031 35.9369 17.1688 35.826 16.1311C35.7314 15.2534 35.7836 14.3593 35.7575 13.4751C35.7151 12.085 35.6204 10.708 35.6433 9.06676ZM41.6178 41.863C42.0975 36.5215 42.1268 31.2812 41.8984 25.969C41.732 26.0669 41.6276 26.1354 41.5167 26.1974C41.1218 26.4161 40.8804 26.8174 40.5051 27.0687C40.0287 27.3884 39.5001 27.594 38.9976 27.8616C38.8704 27.9268 38.7627 27.979 38.7692 28.1683C38.7888 28.6316 38.717 29.0982 38.7137 29.5518C38.6876 32.8344 38.7268 36.1202 38.6289 39.4028C38.6224 39.5431 38.6126 39.6638 38.7692 39.7747C39.6861 40.4306 40.59 41.106 41.6178 41.863ZM40.6226 43.5696C40.7107 43.4195 40.5606 43.302 40.4594 43.2302C39.8623 42.7832 39.35 42.2252 38.7137 41.8174C38.4853 41.6705 38.4038 41.7652 38.3352 41.9577C37.9469 43.0573 37.5782 44.1634 37.1704 45.2565C37.0561 45.5567 37.1932 45.5698 37.3824 45.5274C38.3777 45.2957 39.3402 44.9727 40.1658 44.3429C40.3974 44.1634 40.6552 43.9644 40.6226 43.5696Z" fill="white"/>
<path fill-rule="evenodd" clip-rule="evenodd" d="M13.4517 34.6714C12.6817 34.2798 11.9507 33.8948 11.21 33.5359C9.58834 32.7528 7.9438 32.6842 6.27968 33.4054C5.58466 33.7023 4.91575 34.0384 4.38388 34.58C3.66602 35.3044 3.20594 36.1822 3.04279 37.1937C2.8307 38.4695 2.98406 39.6997 3.42456 40.9265C4.00537 42.5417 4.97448 43.8665 6.34493 44.8487C6.97143 45.299 7.75454 45.5828 8.55398 45.7166C9.91138 45.9418 11.2068 45.7133 12.4043 45.0673C13.9444 44.232 14.9527 42.9627 15.2659 41.2072C15.3769 40.6003 15.4846 37.9409 15.5107 37.2263C15.6836 32.6614 15.5759 17.9747 15.4748 15.1979C15.4356 14.2418 15.3704 13.2825 15.4291 12.3363C15.4976 11.1485 15.4062 9.95428 15.5727 8.77307C15.7554 7.49725 16.1339 6.29647 17.0867 5.35999C17.8143 4.65192 18.7149 4.32889 19.7134 4.28973C20.1474 4.27015 21.2111 4.30278 21.2405 4.44962C21.2633 4.57035 21.1883 4.62908 21.0838 4.69108C20.7478 4.88686 20.441 5.11527 20.0984 5.30452C19.5274 5.62755 18.2059 6.39762 18.1308 8.1009C17.9514 14.7574 18.1635 33.8426 18.1308 36.7271C18.108 38.7958 18.0068 40.8776 17.2759 42.855C16.5907 44.7083 15.3834 46.0494 13.4746 46.6857C12.3619 47.0544 11.2329 47.3024 10.0517 47.3351C9.48067 47.3546 8.91291 47.3742 8.34841 47.3938C4.94838 47.3938 3.01016 45.3675 2.0639 44.3918C0.184415 41.7586 -0.0244156 38.8904 0.00495124 37.7876C0.0506331 36.1854 0.500925 34.7171 1.56792 33.4576C2.66102 32.172 4.05432 31.441 5.64666 30.9973C6.60271 30.7362 7.57834 30.7036 8.54419 30.7754C10.006 30.8863 11.334 31.3758 12.3651 32.4591C12.9427 33.0693 13.3506 33.7871 13.4517 34.6714Z" fill="white"/>
<path fill-rule="evenodd" clip-rule="evenodd" d="M34.5404 29.4409C33.927 29.4441 33.3168 29.4441 32.7066 29.4474C33.3168 29.3397 33.927 29.3462 34.5404 29.4409Z" fill="white"/>
<path d="M69.7089 2.87691C70.1983 2.79533 70.8868 2.73007 71.8527 2.73007C72.8316 2.73007 73.5299 2.91606 73.9965 3.29131C74.4435 3.64697 74.7469 4.22778 74.7469 4.91627C74.7469 5.60476 74.5185 6.18558 74.1009 6.5804C73.5592 7.08942 72.7565 7.32109 71.82 7.32109C71.6112 7.32109 71.4252 7.31131 71.2784 7.28847V9.7977H69.7056V2.87691H69.7089ZM71.2817 6.06158C71.4154 6.09421 71.5851 6.104 71.8135 6.104C72.6554 6.104 73.1774 5.67655 73.1774 4.95869C73.1774 4.31262 72.7304 3.92759 71.9375 3.92759C71.6145 3.92759 71.3959 3.96022 71.2817 3.98959V6.06158Z" fill="white"/>
<path d="M82.1507 6.21823C82.1507 8.51863 80.7541 9.91519 78.7049 9.91519C76.6232 9.91519 75.4061 8.34243 75.4061 6.34548C75.4061 4.24086 76.7504 2.67136 78.8224 2.67136C80.976 2.6681 82.1507 4.28001 82.1507 6.21823ZM77.08 6.30959C77.08 7.68331 77.7261 8.65242 78.7865 8.65242C79.86 8.65242 80.4735 7.6311 80.4735 6.26717C80.4735 5.00766 79.8698 3.92435 78.7767 3.92435C77.7065 3.92761 77.08 4.94893 77.08 6.30959Z" fill="white"/>
<path d="M88.3471 9.60194C88.0567 9.74877 87.4008 9.9054 86.5459 9.9054C84.1215 9.9054 82.8718 8.39464 82.8718 6.39769C82.8718 4.00265 84.5783 2.67136 86.7025 2.67136C87.5248 2.67136 88.148 2.83777 88.4319 2.9846L88.1089 4.24412C87.7858 4.11033 87.3388 3.98308 86.7776 3.98308C85.518 3.98308 84.5391 4.74335 84.5391 6.30306C84.5391 7.70941 85.3712 8.59368 86.7873 8.59368C87.267 8.59368 87.7989 8.48926 88.1089 8.36527L88.3471 9.60194Z" fill="white"/>
<path d="M94.2727 9.60194C93.9822 9.74877 93.3264 9.9054 92.4715 9.9054C90.0471 9.9054 88.7974 8.39464 88.7974 6.39769C88.7974 4.00265 90.5039 2.67136 92.6281 2.67136C93.4504 2.67136 94.0769 2.83777 94.3575 2.9846L94.0345 4.24412C93.7114 4.11033 93.2644 3.98308 92.7032 3.98308C91.4436 3.98308 90.4647 4.74335 90.4647 6.30306C90.4647 7.70941 91.2968 8.59368 92.7129 8.59368C93.1926 8.59368 93.7212 8.48926 94.0345 8.36527L94.2727 9.60194Z" fill="white"/>
<path d="M96.7721 2.78229V4.86407C96.7721 5.9898 96.7525 7.10248 96.6873 8.03896H96.7297C97.0951 7.21668 97.5617 6.29 97.9794 5.53951L99.4902 2.77902H101.115V9.79444H99.6566V7.72245C99.6566 6.63914 99.6762 5.68308 99.7708 4.76618H99.7381C99.4151 5.59824 98.9681 6.52493 98.5504 7.26563L97.1245 9.79444H95.3135V2.78229H96.7721Z" fill="white"/>
<path d="M103.957 2.78227V4.86405C103.957 5.98979 103.938 7.10246 103.876 8.03894H103.918C104.283 7.21667 104.75 6.28998 105.168 5.53949L106.679 2.77901H108.303V9.79443H106.845V7.72243C106.845 6.63912 106.865 5.68306 106.959 4.76617H106.927C106.603 5.59823 106.156 6.52492 105.739 7.26561L104.313 9.79443H102.502V2.78227H103.957ZM104.936 1.17688C104.946 1.58149 105.06 1.81316 105.393 1.81316C105.716 1.81316 105.84 1.58475 105.882 1.17688H106.943C106.881 2.07094 106.297 2.45597 105.37 2.45597C104.453 2.45597 103.934 2.05136 103.85 1.17688H104.936Z" fill="white"/>
<path d="M114.839 9.60194C114.549 9.74877 113.893 9.9054 113.038 9.9054C110.614 9.9054 109.364 8.39464 109.364 6.39769C109.364 4.00265 111.07 2.67136 113.195 2.67136C114.017 2.67136 114.64 2.83777 114.924 2.9846L114.601 4.24412C114.278 4.11033 113.831 3.98308 113.27 3.98308C112.01 3.98308 111.031 4.74335 111.031 6.30306C111.031 7.70941 111.863 8.59368 113.28 8.59368C113.759 8.59368 114.288 8.48926 114.601 8.36527L114.839 9.60194Z" fill="white"/>
<path d="M117.453 2.78229V5.69614H117.59L119.525 2.78229H121.45L119.003 5.89518C119.91 6.12359 120.315 6.75008 120.605 7.59193C120.856 8.34242 121.085 9.10269 121.417 9.79771H119.711C119.473 9.31805 119.336 8.77639 119.169 8.25758C118.931 7.46794 118.608 6.86102 117.753 6.86102H117.453V9.79771H115.88V2.78229H117.453Z" fill="white"/>
<path d="M123.64 2.78229V4.86407C123.64 5.9898 123.62 7.10248 123.558 8.03896H123.6C123.966 7.21668 124.432 6.29 124.85 5.53951L126.361 2.77902H127.986V9.79444H126.527V7.72245C126.527 6.63914 126.547 5.68308 126.641 4.76618H126.606C126.283 5.59824 125.836 6.52493 125.418 7.26563L123.992 9.79444H122.181V2.78229H123.64Z" fill="white"/>
<path d="M130.825 2.78227V4.86405C130.825 5.98979 130.805 7.10246 130.743 8.03894H130.785C131.151 7.21667 131.618 6.28998 132.035 5.53949L133.546 2.77901H135.171V9.79443H133.712V7.72243C133.712 6.63912 133.732 5.68306 133.827 4.76617H133.794C133.471 5.59823 133.024 6.52492 132.606 7.26561L131.18 9.79443H129.369V2.78227H130.825ZM131.804 1.17688C131.813 1.58149 131.928 1.81316 132.26 1.81316C132.583 1.81316 132.707 1.58475 132.75 1.17688H133.81C133.748 2.07094 133.164 2.45597 132.237 2.45597C131.321 2.45597 130.802 2.05136 130.717 1.17688H131.804Z" fill="white"/>
<path d="M70.0515 18.1183H73.06C72.9556 17.1818 72.2997 16.4411 71.125 16.4411C70.5736 16.4411 70.0515 16.588 69.6991 16.7315L69.3859 15.5569C69.8133 15.3709 70.4985 15.162 71.249 15.162C73.7158 15.162 74.7665 16.849 74.7665 18.797C74.7665 21.1594 73.1644 22.4091 71.1022 22.4091C70.3745 22.4091 69.6665 22.2427 69.301 22.0763L69.5719 20.8592C69.9373 21.0061 70.479 21.1105 70.9782 21.1105C72.1757 21.1105 72.9262 20.3828 73.0502 19.3615H70.0515V18.1183Z" fill="white"/>
<path d="M77.3932 15.2763V18.1901H77.527L79.4619 15.2763H81.3871L78.9398 18.3892C79.847 18.6176 80.2516 19.2441 80.542 20.0859C80.7932 20.8364 81.0216 21.5967 81.3545 22.2917H79.6479C79.4097 21.812 79.2727 21.2704 79.1063 20.7516C78.8681 19.9619 78.545 19.355 77.6901 19.355H77.3867V22.2917H75.8139V15.2763H77.3932Z" fill="white"/>
<path d="M88.3667 18.7122C88.3667 21.0126 86.9701 22.4091 84.921 22.4091C82.8392 22.4091 81.6221 20.8364 81.6221 18.8394C81.6221 16.7348 82.9664 15.1653 85.0384 15.1653C87.192 15.1621 88.3667 16.7772 88.3667 18.7122ZM83.2992 18.8068C83.2992 20.1805 83.9453 21.1496 85.0058 21.1496C86.0793 21.1496 86.6927 20.1283 86.6927 18.7644C86.6927 17.5049 86.0891 16.4216 84.996 16.4216C83.9225 16.4216 83.2992 17.4429 83.2992 18.8068Z" fill="white"/>
<path d="M91.0031 15.2763V17.9715H93.6168V15.2763H95.1993V22.2917H93.6168V19.355H91.0031V22.2917H89.4108V15.2763H91.0031Z" fill="white"/>
<path d="M103.008 18.7122C103.008 21.0126 101.611 22.4091 99.5619 22.4091C97.4802 22.4091 96.2631 20.8364 96.2631 18.8394C96.2631 16.7348 97.6074 15.1653 99.6794 15.1653C101.833 15.1621 103.008 16.7772 103.008 18.7122ZM97.9402 18.8068C97.9402 20.1805 98.5863 21.1496 99.6468 21.1496C100.72 21.1496 101.334 20.1283 101.334 18.7644C101.334 17.5049 100.73 16.4216 99.637 16.4216C98.5635 16.4216 97.9402 17.4429 97.9402 18.8068Z" fill="white"/>
<path d="M109.935 19.6095C109.902 18.7676 109.873 17.7463 109.873 16.725H109.84C109.622 17.6191 109.331 18.6208 109.061 19.4431L108.206 22.1807H106.966L106.215 19.4627C105.987 18.6404 105.745 17.6419 105.579 16.725H105.559C105.517 17.6713 105.488 18.7546 105.435 19.6291L105.311 22.2949H103.843L104.29 15.2795H106.404L107.093 17.6223C107.312 18.4348 107.53 19.3093 107.687 20.1316H107.719C107.918 19.3191 108.157 18.3924 108.385 17.6125L109.136 15.2795H111.208L111.593 22.2949H110.043L109.935 19.6095Z" fill="white"/>
<path d="M114.265 15.2763V17.3581C114.265 18.4838 114.245 19.5965 114.183 20.5329H114.226C114.591 19.7107 115.058 18.784 115.476 18.0335L116.986 15.273H118.611V22.2884H117.153V20.2164C117.153 19.1331 117.172 18.1771 117.267 17.2602H117.234C116.911 18.0922 116.464 19.0189 116.047 19.7596L114.621 22.2884H112.81V15.2763H114.265Z" fill="white"/>
<path d="M121.45 15.2763V17.3059C121.45 18.1085 121.878 18.4936 122.628 18.4936C122.98 18.4936 123.356 18.3892 123.659 18.2325V15.2763H125.242V22.2917H123.659V19.3974H123.627C123.117 19.6487 122.638 19.7629 122.054 19.7629C120.784 19.7629 119.868 19.0874 119.868 17.5767V15.2763H121.45Z" fill="white"/>
<path d="M130.792 19.3289H128.211V20.993H131.095V22.295H126.619V15.2763H130.949V16.5782H128.211V18.0368H130.792V19.3289Z" fill="white"/>
<path d="M137.331 22.0959C137.041 22.2427 136.385 22.3994 135.53 22.3994C133.106 22.3994 131.856 20.8886 131.856 18.8916C131.856 16.4966 133.562 15.1653 135.687 15.1653C136.509 15.1653 137.132 15.3317 137.416 15.4786L137.093 16.7381C136.77 16.6043 136.323 16.477 135.762 16.477C134.502 16.477 133.523 17.2373 133.523 18.8003C133.523 20.2066 134.355 21.0909 135.771 21.0909C136.251 21.0909 136.78 20.9865 137.093 20.8625L137.331 22.0959Z" fill="white"/>
<path d="M139.945 15.2763V18.1901H140.078L142.013 15.2763H143.939L141.491 18.3892C142.398 18.6176 142.803 19.2441 143.093 20.0859C143.345 20.8364 143.573 21.5967 143.906 22.2917H142.199C141.961 21.812 141.824 21.2704 141.658 20.7516C141.42 19.9619 141.097 19.355 140.242 19.355H139.941V22.2917H138.369V15.2763H139.945Z" fill="white"/>
<path d="M146.131 15.2763V17.3581C146.131 18.4838 146.112 19.5965 146.05 20.5329H146.092C146.458 19.7107 146.924 18.784 147.342 18.0335L148.853 15.273H150.478V22.2884H149.019V20.2164C149.019 19.1331 149.039 18.1771 149.133 17.2602H149.101C148.778 18.0922 148.331 19.0189 147.913 19.7596L146.487 22.2884H144.676V15.2763H146.131Z" fill="white"/>
<path d="M153.316 15.2763V17.358C153.316 18.4838 153.297 19.5965 153.235 20.5329H153.277C153.643 19.7107 154.109 18.784 154.527 18.0335L156.038 15.273H157.663V22.2884H156.204V20.2164C156.204 19.1331 156.224 18.1771 156.318 17.2602H156.286C155.963 18.0922 155.516 19.0189 155.098 19.7596L153.672 22.2884H151.861V15.2763H153.316ZM154.295 13.6741C154.305 14.0787 154.419 14.3104 154.752 14.3104C155.075 14.3104 155.199 14.082 155.242 13.6741H156.302C156.24 14.5682 155.656 14.9532 154.729 14.9532C153.812 14.9532 153.294 14.5486 153.209 13.6741H154.295Z" fill="white"/>
<path d="M70.8444 27.7735L71.8657 30.2403C72.0517 30.7396 72.1985 31.1572 72.3551 31.5847H72.3878C72.4824 31.2812 72.5966 30.8146 72.7728 30.2207L73.5331 27.7735H75.1972L73.8855 31.1768C73.458 32.2699 73.0208 33.3304 72.502 33.9764C72.0451 34.5507 71.4611 34.9031 70.6388 34.9031C70.2733 34.9031 70.0547 34.8607 69.8589 34.7889L69.9731 33.5196C70.0971 33.5522 70.2635 33.5718 70.4952 33.5718C70.9847 33.5718 71.3175 33.239 71.4415 32.916C71.5035 32.8018 71.4741 32.7071 71.4219 32.5929L69.0595 27.7735H70.8444Z" fill="white"/>
<path d="M77.4258 27.7735V30.4687H80.0395V27.7735H81.622V34.7889H80.0395V31.8522H77.4258V34.7889H75.8335V27.7735H77.4258Z" fill="white"/>
<path d="M84.4641 27.7735V29.8553C84.4641 30.981 84.4445 32.0937 84.3793 33.0302H84.4217C84.7871 32.2079 85.2537 31.2812 85.6714 30.5307L87.1822 27.7702H88.8071V34.7857H87.3486V32.7137C87.3486 31.6303 87.3682 30.6743 87.4628 29.7574H87.4302C87.1071 30.5895 86.6601 31.5161 86.2424 32.2568L84.8165 34.7857H83.0056V27.7735H84.4641Z" fill="white"/>
<path d="M90.1907 27.8681C90.6083 27.7865 91.4502 27.7213 92.2431 27.7213C93.2122 27.7213 93.8061 27.8159 94.3151 28.1161C94.8045 28.3771 95.1569 28.8568 95.1569 29.4898C95.1569 30.1131 94.7915 30.6971 94.0018 30.9908V31.0104C94.8045 31.229 95.3984 31.8326 95.3984 32.7398C95.3984 33.376 95.108 33.8753 94.6708 34.2277C94.1617 34.6323 93.3068 34.864 91.9103 34.864C91.1304 34.864 90.5463 34.8118 90.1939 34.7595V27.8681H90.1907ZM91.7634 30.5536H92.2855C93.1176 30.5536 93.5646 30.2109 93.5646 29.6889C93.5646 29.157 93.16 28.8764 92.4389 28.8764C92.0963 28.8764 91.8972 28.896 91.7634 28.9188V30.5536ZM91.7634 33.6664C91.9201 33.686 92.1061 33.686 92.3769 33.686C93.0947 33.686 93.731 33.4152 93.731 32.6745C93.731 31.9664 93.0947 31.6858 92.3051 31.6858H91.7634V33.6664Z" fill="white"/>
<path d="M100.655 31.8229H98.074V33.487H100.959V34.7889H96.4817V27.7735H100.812V29.0754H98.074V30.534H100.655V31.8229Z" fill="white"/>
<path d="M102.042 27.8681C102.531 27.7865 103.22 27.7213 104.186 27.7213C105.165 27.7213 105.863 27.9073 106.329 28.2825C106.776 28.6382 107.08 29.219 107.08 29.9075C107.08 30.596 106.851 31.1768 106.434 31.5716C105.892 32.0806 105.089 32.3123 104.153 32.3123C103.944 32.3123 103.758 32.3025 103.611 32.2797V34.7889H102.039V27.8681H102.042ZM103.615 31.0528C103.748 31.0854 103.918 31.0952 104.146 31.0952C104.988 31.0952 105.51 30.6678 105.51 29.9499C105.51 29.3038 105.063 28.9188 104.27 28.9188C103.947 28.9188 103.729 28.9514 103.615 28.9808V31.0528Z" fill="white"/>
<path d="M113.214 34.5932C112.924 34.74 112.268 34.8966 111.413 34.8966C108.989 34.8966 107.739 33.3858 107.739 31.3889C107.739 28.9939 109.446 27.6626 111.57 27.6626C112.392 27.6626 113.015 27.829 113.299 27.9758L112.976 29.2353C112.653 29.0983 112.206 28.9743 111.645 28.9743C110.385 28.9743 109.406 29.7346 109.406 31.2975C109.406 32.7039 110.238 33.5882 111.655 33.5882C112.134 33.5882 112.666 33.4837 112.976 33.3597L113.214 34.5932Z" fill="white"/>
<path d="M115.714 27.7735V29.8553C115.714 30.981 115.694 32.0937 115.632 33.0302H115.675C116.04 32.2079 116.507 31.2812 116.924 30.5307L118.435 27.7702H120.06V34.7857H118.602V32.7137C118.602 31.6303 118.621 30.6743 118.716 29.7574H118.683C118.36 30.5895 117.913 31.5161 117.495 32.2568L116.069 34.7857H114.258V27.7735H115.714Z" fill="white"/>
<path d="M122.794 29.1048H120.908V27.7735H126.302V29.1048H124.387V34.7889H122.794V29.1048Z" fill="white"/>
<path d="M131.324 31.8229H128.743V33.487H131.627V34.7889H127.151V27.7735H131.48V29.0754H128.743V30.534H131.324V31.8229Z" fill="white"/>
<path d="M134.061 29.1048H132.175V27.7735H137.569V29.1048H135.654V34.7889H134.061V29.1048Z" fill="white"/>
<path d="M71.1674 40.2675V42.3493C71.1674 43.475 71.1478 44.5877 71.0826 45.5242H71.125C71.4905 44.7019 71.9571 43.7752 72.3747 43.0247L73.8855 40.2642H75.5105V47.2862H74.0519V45.2142C74.0519 44.1309 74.0715 43.1748 74.1661 42.2579H74.1335C73.8104 43.09 73.3634 44.0167 72.9457 44.7574L71.5198 47.2862H69.7089V40.2675H71.1674Z" fill="white"/>
<path d="M82.8294 44.6007C82.7967 43.7589 82.7674 42.7376 82.7674 41.7163H82.7347C82.5161 42.6103 82.2257 43.612 81.9549 44.4343L81.1 47.172H79.86L79.1096 44.4539C78.8811 43.6316 78.6397 42.6332 78.4733 41.7163H78.4537C78.4113 42.6625 78.3819 43.7458 78.3297 44.6203L78.2057 47.2862H76.7374L77.1844 40.2675H79.2988L79.9873 42.6103C80.2059 43.4228 80.4245 44.2973 80.5812 45.1195H80.6138C80.8128 44.3071 81.051 43.3804 81.2794 42.6005L82.0299 40.2675H84.1019L84.487 47.2862H82.937L82.8294 44.6007Z" fill="white"/>
<path d="M89.8774 44.3201H87.2964V45.9875H90.1809V47.2862H85.704V40.2675H90.034V41.5694H87.2964V43.028H89.8774V44.3201Z" fill="white"/>
<path d="M92.8565 40.2675V42.9627H95.4701V40.2675H97.0527V47.2862H95.4701V44.3495H92.8565V47.2862H91.2642V40.2675H92.8565Z" fill="white"/>
<path d="M99.8948 40.2675V42.3493C99.8948 43.475 99.8752 44.5877 99.8132 45.5242H99.8556C100.221 44.7019 100.688 43.7752 101.105 43.0247L102.616 40.2642H104.241V47.2862H102.782V45.2142C102.782 44.1309 102.802 43.1748 102.897 42.2579H102.864C102.541 43.09 102.094 44.0167 101.676 44.7574L100.25 47.2862H98.4395V40.2675H99.8948Z" fill="white"/>
<path d="M111.974 40.2675V41.5694H109.318V47.2862H107.726V40.2675H111.974Z" fill="white"/>
<path d="M111.694 46.4443C111.694 45.8831 112.079 45.4752 112.63 45.4752C113.182 45.4752 113.557 45.87 113.557 46.4443C113.557 46.9958 113.182 47.4004 112.62 47.4004C112.079 47.4004 111.694 46.9958 111.694 46.4443Z" fill="white"/>
<path d="M114.568 40.3621C114.986 40.2805 115.828 40.2153 116.621 40.2153C117.59 40.2153 118.184 40.3099 118.693 40.6101C119.182 40.8711 119.535 41.3508 119.535 41.9838C119.535 42.607 119.169 43.1911 118.38 43.4815V43.5011C119.182 43.7197 119.776 44.3234 119.776 45.2305C119.776 45.8668 119.486 46.366 119.049 46.7184C118.539 47.123 117.685 47.3547 116.291 47.3547C115.511 47.3547 114.927 47.3025 114.575 47.2503V40.3621H114.568ZM116.141 43.0475H116.663C117.495 43.0475 117.942 42.7049 117.942 42.1829C117.942 41.651 117.534 41.3704 116.817 41.3704C116.474 41.3704 116.275 41.3899 116.141 41.4128V43.0475ZM116.141 46.1604C116.298 46.18 116.484 46.18 116.755 46.18C117.472 46.18 118.109 45.9092 118.109 45.1717C118.109 44.4637 117.472 44.1831 116.683 44.1831H116.141V46.1604Z" fill="white"/>
<path d="M120.693 46.4443C120.693 45.8831 121.078 45.4752 121.63 45.4752C122.181 45.4752 122.556 45.87 122.556 46.4443C122.556 46.9958 122.181 47.4004 121.62 47.4004C121.078 47.4004 120.693 46.9958 120.693 46.4443Z" fill="white"/>
<path d="M131.343 40.2675V47.2862H129.751V41.5694H127.261V47.2862H125.669V40.2675H131.343Z" fill="white"/>
<path d="M138.049 40.2675V47.2862H136.466V41.5694H134.874V43.2368C134.874 45.038 134.646 46.4215 133.582 47.048C133.226 47.247 132.75 47.3906 132.185 47.3906L131.986 46.1115C132.329 46.0691 132.613 45.9255 132.789 45.7363C133.216 45.299 133.321 44.405 133.321 43.3412V40.2708H138.049V40.2675Z" fill="white"/>
<path d="M143.609 44.3201H141.028V45.9875H143.912V47.2862H139.436V40.2675H143.766V41.5694H141.028V43.028H143.609V44.3201Z" fill="white"/>
<path d="M148.693 47.2862L148.056 46.0169C147.795 45.5274 147.629 45.162 147.433 44.7574H147.414C147.267 45.162 147.091 45.5274 146.872 46.0169L146.288 47.2862H144.477L146.507 43.736L144.549 40.2675H146.37L146.983 41.5498C147.192 41.9773 147.348 42.3199 147.515 42.7147H147.534C147.701 42.2677 147.838 41.9545 148.014 41.5498L148.608 40.2675H150.419L148.442 43.6936L150.523 47.2862H148.693Z" fill="white"/>
<path d="M153.013 45.485L152.514 47.2862H150.869L153.013 40.2675H155.095L157.271 47.2862H155.565L155.023 45.485H153.013ZM154.795 44.2973L154.357 42.8094C154.233 42.3917 154.106 41.8729 154.005 41.4552H153.985C153.881 41.8729 153.776 42.4015 153.662 42.8094L153.245 44.2973H154.795Z" fill="white"/>
<path d="M159.803 40.2675V42.9627H162.417V40.2675H163.999V47.2862H162.417V44.3495H159.803V47.2862H158.211V40.2675H159.803Z" fill="white"/>
<path d="M171.808 43.7034C171.808 46.0038 170.411 47.4004 168.362 47.4004C166.28 47.4004 165.063 45.8276 165.063 43.8307C165.063 41.726 166.407 40.1565 168.476 40.1565C170.63 40.1533 171.808 41.7684 171.808 43.7034ZM166.737 43.798C166.737 45.1717 167.383 46.1408 168.444 46.1408C169.517 46.1408 170.131 45.1195 170.131 43.7556C170.131 42.4961 169.527 41.4128 168.434 41.4128C167.364 41.4128 166.737 42.4341 166.737 43.798Z" fill="white"/>
<path d="M172.852 40.3621C173.27 40.2805 174.111 40.2153 174.904 40.2153C175.873 40.2153 176.467 40.3099 176.976 40.6101C177.466 40.8711 177.821 41.3508 177.821 41.9838C177.821 42.607 177.456 43.1911 176.666 43.4815V43.5011C177.469 43.7197 178.063 44.3234 178.063 45.2305C178.063 45.8668 177.772 46.366 177.335 46.7184C176.826 47.123 175.971 47.3547 174.575 47.3547C173.795 47.3547 173.211 47.3025 172.858 47.2503V40.3621H172.852ZM174.421 43.0475H174.94C175.772 43.0475 176.219 42.7049 176.219 42.1829C176.219 41.651 175.815 41.3704 175.094 41.3704C174.751 41.3704 174.552 41.3899 174.418 41.4128V43.0475H174.421ZM174.421 46.1604C174.578 46.18 174.764 46.18 175.035 46.18C175.753 46.18 176.389 45.9092 176.389 45.1717C176.389 44.4637 175.753 44.1831 174.963 44.1831H174.421V46.1604Z" fill="white"/>
<path d="M180.742 45.485L180.243 47.2862H178.598L180.742 40.2675H182.824L185 47.2862H183.293L182.752 45.485H180.742ZM182.523 44.2973L182.086 42.8094C181.962 42.3917 181.835 41.8729 181.73 41.4552H181.711C181.606 41.8729 181.502 42.4015 181.388 42.8094L180.97 44.2973H182.523Z" fill="white"/>
</svg>
