<svg width="133" height="118" viewBox="0 0 133 118" fill="none" xmlns="http://www.w3.org/2000/svg">
<path d="M77.0428 53.2535C71.9262 48.1273 63.6157 48.1273 58.5317 53.2535C53.4151 58.3796 53.4151 66.6729 58.5317 71.8318C63.6483 76.9579 71.9262 76.9579 77.0428 71.8318C82.1595 66.6729 82.1595 58.3796 77.0428 53.2535Z" fill="#44BCFF"/>
<path d="M120.942 6.49751C120.942 10.0891 118.041 12.995 114.456 12.995C110.871 12.995 107.971 10.0891 107.971 6.49751C107.971 2.90592 110.871 0 114.456 0C118.041 0 120.942 2.90592 120.942 6.49751Z" fill="#44BCFF"/>
<path d="M12.9708 93.7731C12.9708 97.3647 10.0703 100.271 6.48542 100.271C2.90051 100.271 0 97.3647 0 93.7731C0 90.1815 2.90051 87.2756 6.48542 87.2756C10.0703 87.2756 12.9708 90.1815 12.9708 93.7731Z" fill="#44BCFF"/>
<path d="M86.3637 43.0991C79.6176 36.6342 70.3294 34.4139 61.856 36.3077C60.8131 34.5445 58.8903 33.3691 56.7068 33.4344C53.4478 33.4997 50.8732 36.1771 50.9709 39.4422C50.9709 40.0952 51.1339 40.7155 51.362 41.3033C50.3517 42.1195 49.3414 42.9684 48.4289 43.9153C38.1956 54.6574 38.5541 71.6685 49.2762 81.9535C59.9984 92.2059 76.9778 91.8467 87.2436 81.1046C97.4443 70.3951 97.0858 53.3841 86.3637 43.0991ZM85.8749 79.8639C76.326 89.855 60.5198 90.2142 50.5147 80.6475C40.5421 71.0808 40.1836 55.2125 49.7325 45.2214C50.5147 44.4051 51.362 43.6541 52.2093 42.9684C53.3174 44.3724 55.0121 45.254 56.9023 45.2214C60.1613 45.1561 62.7359 42.446 62.6382 39.2136C62.6382 38.8218 62.573 38.4626 62.5078 38.0708C70.3294 36.373 78.8354 38.4953 85.0275 44.4704C95.0653 54.0044 95.4238 69.8401 85.8749 79.8639Z" fill="#44BCFF"/>
<path d="M133 94.5241C133 97.1361 130.882 99.2584 128.274 99.2584C125.667 99.2584 123.549 97.1361 123.549 94.5241C123.549 91.912 125.667 89.7897 128.274 89.7897C130.882 89.7897 133 91.912 133 94.5241Z" fill="#44BCFF"/>
<path d="M130.425 43.8827C130.425 37.7117 125.439 32.7161 119.28 32.7161C118.237 32.7161 117.226 32.8794 116.281 33.1406C114 29.3857 111.262 25.8921 108.036 22.6597C86.2659 0.848921 50.9708 0.848921 29.2007 22.6597C24.0189 27.8511 20.0755 33.8262 17.3705 40.1931C16.8165 40.0952 16.2298 40.0299 15.6432 40.0299C10.5918 40.0299 6.48541 44.1439 6.48541 49.1721C6.48541 53.3188 9.25557 56.8124 13.036 57.9552C11.8628 73.5949 17.2401 89.6591 29.1681 101.609C50.9382 123.42 86.2333 123.42 108.003 101.609C120.942 88.6469 126.189 70.8849 123.744 54.0697C127.688 52.3392 130.425 48.4211 130.425 43.8827ZM105.331 98.8993C85.06 119.208 52.2093 119.208 31.9382 98.8993C20.825 87.7654 15.8062 72.8113 16.8816 58.249C21.3465 57.6287 24.801 53.8085 24.801 49.1721C24.801 46.0703 23.2693 43.3603 20.9228 41.6951C23.4648 35.7526 27.1149 30.202 31.9708 25.3697C52.2418 5.06087 85.0926 5.06087 105.364 25.3697C108.264 28.2756 110.741 31.4427 112.794 34.7731C109.959 36.7975 108.134 40.0952 108.134 43.85C108.134 50.021 113.12 55.0166 119.28 55.0166C119.54 55.0166 119.801 54.984 120.062 54.984C122.18 70.591 117.292 86.9491 105.331 98.8993Z" fill="#44BCFF"/>
<path d="M96.662 33.6303C80.7255 17.6641 54.8816 17.6641 38.945 33.6303C23.0085 49.5966 23.0085 75.4887 38.945 91.4549C51.2641 103.83 69.5797 106.605 84.5711 99.8135C85.9399 101.348 87.8953 102.295 90.0788 102.295C94.1852 102.295 97.4768 98.9646 97.4768 94.8832C97.4768 93.6425 97.1834 92.4671 96.6294 91.4222C112.566 75.456 112.566 49.5966 96.662 33.6303ZM40.9004 89.4632C26.0719 74.5744 26.0719 50.4781 40.9004 35.622C55.7289 20.7659 79.8129 20.7659 94.6414 35.622C109.405 50.4128 109.47 74.3459 94.8696 89.202C93.5659 88.0919 91.9039 87.4388 90.0788 87.4388C85.9725 87.4388 82.6809 90.7692 82.6809 94.8832C82.6809 95.7648 82.8438 96.5811 83.1045 97.3647C69.1886 103.536 52.3395 100.891 40.9004 89.4632Z" fill="#44BCFF"/>
</svg>
