<svg width="174" height="100" viewBox="0 0 174 100" fill="none" xmlns="http://www.w3.org/2000/svg">
<path d="M19.9011 17.01C19.4344 17.3367 17.7311 17.8733 14.7911 18.62C12.4111 19.32 11.1977 19.6933 11.1511 19.74V12.53C13.0177 11.8767 15.0477 10.99 17.2411 9.87C19.4811 8.70333 21.1144 7.51333 22.1411 6.3H29.6311V63H19.9011V17.01ZM39.6132 56.14L53.6132 34.51C53.8465 34.1367 54.0565 33.81 54.2432 33.53C54.4298 33.25 54.5932 32.9933 54.7332 32.76C56.4132 30.1467 57.6498 27.9767 58.4432 26.25C59.2365 24.5233 59.6332 22.5633 59.6332 20.37C59.6332 15.9833 58.0932 13.79 55.0132 13.79C52.9132 13.79 51.4432 14.6067 50.6032 16.24C49.7632 17.8733 49.3432 20.0667 49.3432 22.82V25.2H39.8232V22.68C39.8232 17.36 41.0132 13.2067 43.3932 10.22C45.8198 7.18666 49.5998 5.67 54.7332 5.67C59.4932 5.67 63.1098 6.97666 65.5832 9.59C68.0565 12.1567 69.2932 15.7733 69.2932 20.44C69.2932 23.3333 68.7798 25.9 67.7532 28.14C66.7732 30.38 65.2332 33.1333 63.1332 36.4L62.2932 37.66L50.6032 55.23H67.8232V63H39.6132V56.14ZM89.3197 63.77C79.4731 63.77 74.5497 58.1233 74.5497 46.83C74.5497 40.2033 76.8131 35.63 81.3397 33.11C79.5197 31.85 78.0731 30.17 76.9997 28.07C75.9264 25.9233 75.3897 23.31 75.3897 20.23C75.3897 15.6567 76.5797 12.0867 78.9597 9.52C81.3397 6.95333 84.7931 5.67 89.3197 5.67C93.8931 5.67 97.3464 6.95333 99.6797 9.52C102.013 12.0867 103.18 15.6567 103.18 20.23C103.18 26.1567 101.22 30.45 97.2997 33.11C101.826 35.6767 104.09 40.32 104.09 47.04C104.09 58.1933 99.1664 63.77 89.3197 63.77ZM89.3197 29.33C92.3997 29.2833 93.9397 26.2733 93.9397 20.3C93.9397 18.06 93.5664 16.2867 92.8197 14.98C92.0731 13.6733 90.9064 13.02 89.3197 13.02C87.7331 13.02 86.5431 13.6733 85.7497 14.98C84.9564 16.2867 84.5597 18.0367 84.5597 20.23C84.5597 26.25 86.1464 29.2833 89.3197 29.33ZM89.3197 56.42C91.4664 56.42 92.8897 55.5333 93.5897 53.76C94.2897 51.94 94.6397 49.56 94.6397 46.62C94.6397 43.9133 94.2431 41.7433 93.4497 40.11C92.7031 38.43 91.3264 37.5667 89.3197 37.52C87.3131 37.5667 85.9131 38.4767 85.1197 40.25C84.3264 41.9767 83.9297 44.2633 83.9297 47.11C83.9297 49.8633 84.3031 52.1033 85.0497 53.83C85.7964 55.5567 87.2197 56.42 89.3197 56.42ZM132.575 29.26H125.155V22.54H149.585V29.26H142.095V63H132.575V29.26ZM153.783 53.41H163.023V63H153.783V53.41Z" fill="white"/>
<path d="M44.8702 97.162C43.4302 97.162 42.4162 96.736 41.8282 95.884C41.2402 95.02 40.9462 93.832 40.9462 92.32V87.172C40.9462 85.576 41.2342 84.364 41.8102 83.536C42.3862 82.708 43.4062 82.294 44.8702 82.294C46.1782 82.294 47.1142 82.648 47.6782 83.356C48.2542 84.064 48.5422 85.108 48.5422 86.488V87.64H46.6162V86.614C46.6162 85.942 46.5862 85.426 46.5262 85.066C46.4662 84.706 46.3102 84.418 46.0582 84.202C45.8182 83.986 45.4282 83.878 44.8882 83.878C44.3362 83.878 43.9222 83.998 43.6462 84.238C43.3822 84.466 43.2082 84.79 43.1242 85.21C43.0402 85.618 42.9982 86.17 42.9982 86.866V92.644C42.9982 93.388 43.0582 93.97 43.1782 94.39C43.2982 94.81 43.4902 95.11 43.7542 95.29C44.0302 95.47 44.4082 95.56 44.8882 95.56C45.4042 95.56 45.7882 95.446 46.0402 95.218C46.2922 94.99 46.4482 94.678 46.5082 94.282C46.5802 93.886 46.6162 93.346 46.6162 92.662V91.582H48.5422V92.662C48.5422 94.114 48.2662 95.23 47.7142 96.01C47.1742 96.778 46.2262 97.162 44.8702 97.162ZM53.8819 83.932H51.4159V82.42H58.3099V83.932H55.9159V97H53.8819V83.932ZM61.3354 97.648C61.6594 97.684 61.9414 97.702 62.1814 97.702C62.7694 97.702 63.1714 97.606 63.3874 97.414C63.6154 97.222 63.7294 96.916 63.7294 96.496C63.7294 96.256 63.6874 95.884 63.6034 95.38L60.7234 82.42H62.6494L63.8734 88.63L64.6114 93.256L65.2594 88.666L66.3574 82.42H68.3014L65.6914 95.416L65.5474 96.226C65.3914 97.078 65.2354 97.696 65.0794 98.08C64.9354 98.464 64.6534 98.752 64.2334 98.944C63.8134 99.148 63.1654 99.25 62.2894 99.25C62.1334 99.25 61.8154 99.238 61.3354 99.214V97.648ZM69.8326 95.542H70.4986C70.9186 95.194 71.2666 94.756 71.5426 94.228C71.8306 93.7 72.0826 92.848 72.2986 91.672C72.5266 90.484 72.6886 88.84 72.7846 86.74L73.0186 82.42H79.1206V95.542H80.5246V99.646H78.9586L78.7966 97H71.5606L71.3986 99.646H69.8326V95.542ZM77.1046 95.542V83.932H74.7466L74.6026 87.226C74.5186 89.254 74.3746 90.814 74.1706 91.906C73.9666 92.998 73.7326 93.772 73.4686 94.228C73.2046 94.672 72.8446 95.11 72.3886 95.542H77.1046ZM83.8537 82.42H89.5057V83.932H85.8877V88.756H88.8217V90.196H85.8877V95.542H89.5417V97H83.8537V82.42ZM92.9838 82.42H95.0178V88.72H98.7618V82.42H100.796V97H98.7618V90.178H95.0178V97H92.9838V82.42ZM106.476 83.932H104.01V82.42H110.904V83.932H108.51V97H106.476V83.932ZM117.835 97.162C116.407 97.162 115.381 96.76 114.757 95.956C114.145 95.14 113.839 93.964 113.839 92.428V86.902C113.839 85.39 114.151 84.244 114.775 83.464C115.399 82.684 116.419 82.294 117.835 82.294C119.251 82.294 120.265 82.69 120.877 83.482C121.501 84.262 121.813 85.402 121.813 86.902V92.446C121.813 93.958 121.501 95.122 120.877 95.938C120.253 96.754 119.239 97.162 117.835 97.162ZM117.835 95.56C118.591 95.56 119.101 95.338 119.365 94.894C119.629 94.45 119.761 93.778 119.761 92.878V86.488C119.761 85.6 119.629 84.946 119.365 84.526C119.101 84.094 118.591 83.878 117.835 83.878C117.067 83.878 116.551 84.094 116.287 84.526C116.023 84.946 115.891 85.6 115.891 86.488V92.878C115.891 93.778 116.023 94.45 116.287 94.894C116.551 95.338 117.067 95.56 117.835 95.56ZM125.612 82.42H128.96C130.28 82.42 131.258 82.72 131.894 83.32C132.53 83.908 132.848 84.826 132.848 86.074C132.848 87.934 132.152 88.96 130.76 89.152C131.624 89.356 132.254 89.764 132.65 90.376C133.046 90.976 133.244 91.798 133.244 92.842C133.244 94.15 132.932 95.17 132.308 95.902C131.696 96.634 130.76 97 129.5 97H125.612V82.42ZM128.852 88.504C129.692 88.504 130.274 88.324 130.598 87.964C130.922 87.592 131.084 86.962 131.084 86.074C131.084 85.426 130.982 84.952 130.778 84.652C130.586 84.34 130.292 84.142 129.896 84.058C129.5 83.974 128.912 83.932 128.132 83.932H127.646V88.504H128.852ZM129.014 95.542C129.614 95.542 130.076 95.452 130.4 95.272C130.736 95.08 130.97 94.792 131.102 94.408C131.234 94.024 131.3 93.502 131.3 92.842C131.3 91.906 131.108 91.21 130.724 90.754C130.34 90.286 129.716 90.052 128.852 90.052H127.646V95.542H129.014Z" fill="white"/>
</svg>
