<svg width="94" height="138" viewBox="0 0 94 138" fill="none" xmlns="http://www.w3.org/2000/svg">
<path fill-rule="evenodd" clip-rule="evenodd" d="M0.652568 103.478C2.75856 101.654 4.80788 99.7665 6.79749 97.818L38.2836 129.968C35.6381 132.559 32.9129 135.069 30.1121 137.495L0.652568 103.478ZM9.73724 94.8494C11.6663 92.8409 13.5339 90.7733 15.3372 88.6496L49.6394 117.776C47.2412 120.601 44.7576 123.35 42.1926 126.021L9.73724 94.8494ZM17.9918 85.4244C19.7271 83.2491 21.3965 81.0196 22.9971 78.7391L59.8303 104.591C57.6999 107.626 55.4786 110.593 53.1704 113.486L17.9918 85.4244ZM25.3432 75.2847C26.8692 72.9618 28.3253 70.5898 29.7087 68.1717L68.7683 90.5179C66.9249 93.74 64.9853 96.8995 62.9535 99.9923L25.3432 75.2847ZM31.7253 64.5172C33.0284 62.067 34.2582 59.5726 35.4117 57.037L76.372 75.6719C74.8331 79.0545 73.193 82.381 71.4559 85.6473L31.7253 64.5172ZM37.0806 53.2127C38.1493 50.6561 39.1418 48.0602 40.055 45.4278L82.5691 60.1775C81.3498 63.6921 80.025 67.1573 78.5987 70.5692L37.0806 53.2127ZM41.3604 41.4678C42.1862 38.8253 42.9331 36.148 43.5985 33.4386L87.3001 44.1703C86.4118 47.7873 85.4146 51.3619 84.3119 54.8903L41.3604 41.4678ZM44.5294 29.3768C45.1059 26.6694 45.6016 23.9314 46.0138 21.1652L90.5224 27.7968C89.9731 31.4839 89.312 35.1359 88.5426 38.749L44.5294 29.3768ZM46.5643 17.035C46.8878 14.2863 47.1291 11.5107 47.2856 8.71052L92.2155 11.2218C92.0076 14.9417 91.6867 18.6337 91.2559 22.2943L46.5643 17.035ZM47.4553 4.53538C47.4908 3.14261 47.5052 1.74396 47.4984 0.339713L92.4979 0.120427C92.5069 1.97946 92.4878 3.83277 92.4408 5.67996L47.4553 4.53538Z" fill="#44BCFF"/>
</svg>
